<?xml version="1.0" encoding="utf-8"?>
<!-- Generator: Adobe Illustrator 16.0.0, SVG Export Plug-In . SVG Version: 6.00 Build 0)  -->
<!DOCTYPE svg PUBLIC "-//W3C//DTD SVG 1.1//EN" "http://www.w3.org/Graphics/SVG/1.1/DTD/svg11.dtd">
<svg version="1.1" id="Layer_2" xmlns="http://www.w3.org/2000/svg" xmlns:xlink="http://www.w3.org/1999/xlink" x="0px" y="0px"
	 width="2800px" height="1960px" viewBox="0 0 2800 1960" enable-background="new 0 0 2800 1960" xml:space="preserve">
<g id="Airport">
</g>
<g>
	<rect fill="#86CAED" width="2800" height="1960"/>
	<g>
		<g>
			<g>
				<g>
					<path fill="#B6DFF4" d="M441,1680c-2.2,0-4.4-0.9-6.1-2.6c-3.3-3.4-3.2-8.7,0.1-12l284-278c3.3-3.2,8.6-3.2,11.9,0l168,164.1
						L1471,981.5c1.6-1.6,3.8-2.5,6-2.5c0,0,0,0,0.1,0c2.3,0,4.4,0.9,6,2.6l262,269.8l478.8-476.9c3.3-3.3,8.7-3.3,12,0
						c3.3,3.3,3.3,8.7,0,12l-484.9,483c-1.6,1.6-3.8,2.5-6.1,2.5c-2.3,0-4.4-0.9-6-2.6l-262-269.8L905,1569.5
						c-3.3,3.3-8.6,3.3-11.9,0.1L725,1405.4l-278.1,272.2C445.3,1679.2,443.1,1680,441,1680z"/>
				</g>
				<g>
					<g>
						<polygon fill="#B6DFF4" points="2239.1,869.6 2222.1,868.9 2225.3,785.1 2141.5,788 2140.9,771 2243,767.5 						"/>
					</g>
				</g>
			</g>
		</g>
		<g>
			<path fill="#B6DFF4" d="M1751.8,893.3c12.1-12.1,31.7-12.1,43.9,0C1783.6,905.4,1764,905.4,1751.8,893.3z"/>
			<path fill="#B6DFF4" d="M1769.5,872.9c12.1-12.1,12.1-31.7,0-43.9C1757.4,841.1,1757.4,860.8,1769.5,872.9z"/>
			<path fill="#B6DFF4" d="M1714.3,978.4c-12.1-12.1-31.7-12.1-43.9,0C1682.6,990.5,1702.2,990.5,1714.3,978.4z"/>
			<path fill="#B6DFF4" d="M1696.6,957.9c-12.1-12.1-12.1-31.7,0-43.9C1708.8,926.2,1708.8,945.8,1696.6,957.9z"/>
			<path fill="#B6DFF4" d="M1751.8,1044.5c12.1-12.1,31.7-12.1,43.9,0C1783.6,1056.6,1764,1056.6,1751.8,1044.5z"/>
			<path fill="#B6DFF4" d="M1769.5,1024.1c12.1-12.1,12.1-31.7,0-43.9C1757.4,992.3,1757.4,1012,1769.5,1024.1z"/>
			<path fill="#B6DFF4" d="M1714.3,1129.6c-12.1-12.1-31.7-12.1-43.9,0C1682.6,1141.7,1702.2,1141.7,1714.3,1129.6z"/>
			<path fill="#B6DFF4" d="M1696.6,1109.1c-12.1-12.1-12.1-31.7,0-43.9C1708.8,1077.4,1708.8,1097,1696.6,1109.1z"/>
			<polygon points="1797,994.5 1734.7,1057.9 1734.7,911.3 1799.3,845.6 1797,843.3 1734.7,906.7 1734.7,814.2 1731.5,814.2 
				1731.5,991.7 1669.2,928.4 1666.9,930.6 1731.5,996.4 1731.5,1142.9 1669.2,1079.6 1666.9,1081.8 1731.5,1147.6 1731.5,1279.1 
				1734.7,1279.1 1734.7,1062.5 1799.3,996.8 			"/>
			<path fill="#F8C44E" d="M1733.1,817.9c-51.4-51.4-51.4-134.7,0-186.1C1784.5,683.3,1784.5,766.6,1733.1,817.9z"/>
			<circle fill="#F8C44E" cx="1818.4" cy="820.9" r="33.1"/>
			<g>
				<g>
					<path fill="#FFFFFF" d="M1828.8,826.8c0,1.4-0.2,2.6-0.7,3.7c-0.5,1.1-1.2,2-2.1,2.8c-0.9,0.8-2,1.4-3.2,1.9
						c-1.3,0.5-2.6,0.8-4.2,0.9l-0.5,5.1c0,0.1-0.1,0.2-0.1,0.3c-0.1,0.1-0.2,0.2-0.3,0.2c-0.2,0.1-0.4,0.1-0.6,0.2
						c-0.3,0-0.6,0.1-1,0.1c-0.5,0-0.9,0-1.2-0.1c-0.3,0-0.6-0.1-0.7-0.2c-0.2-0.1-0.3-0.2-0.3-0.3c-0.1-0.1-0.1-0.3,0-0.5l0.5-4.8
						c-0.7-0.1-1.3-0.2-1.9-0.4c-0.6-0.2-1.2-0.3-1.6-0.5c-0.5-0.2-0.9-0.4-1.3-0.6c-0.4-0.2-0.6-0.4-0.8-0.6
						c-0.2-0.2-0.3-0.5-0.4-0.8c-0.1-0.4-0.1-0.9-0.1-1.6c0-0.5,0-1,0-1.3c0-0.4,0.1-0.6,0.2-0.8c0.1-0.2,0.2-0.3,0.3-0.4
						c0.1-0.1,0.3-0.1,0.4-0.1c0.2,0,0.5,0.1,0.9,0.4c0.4,0.2,0.9,0.5,1.5,0.8c0.6,0.3,1.4,0.5,2.3,0.8c0.9,0.2,1.9,0.4,3.1,0.4
						c1.9,0,3.2-0.3,4.1-1c0.9-0.7,1.4-1.6,1.4-2.8c0-0.8-0.2-1.4-0.6-1.9c-0.4-0.5-0.9-0.9-1.6-1.3c-0.6-0.4-1.4-0.7-2.2-1
						c-0.8-0.3-1.7-0.6-2.5-0.9c-0.9-0.3-1.7-0.7-2.5-1.2c-0.8-0.4-1.6-1-2.2-1.6c-0.6-0.7-1.2-1.4-1.6-2.4
						c-0.4-0.9-0.6-2.1-0.6-3.4c0-1.2,0.2-2.3,0.6-3.3c0.4-1,1-1.8,1.7-2.6c0.7-0.7,1.7-1.3,2.8-1.8c1.1-0.5,2.3-0.8,3.7-0.9
						l0.5-4.8c0-0.1,0-0.2,0.1-0.3c0.1-0.1,0.2-0.2,0.3-0.2c0.2-0.1,0.4-0.1,0.6-0.2c0.3,0,0.6,0,1,0c0.5,0,0.9,0,1.2,0.1
						c0.3,0,0.6,0.1,0.7,0.2c0.2,0.1,0.3,0.2,0.3,0.3c0,0.1,0.1,0.3,0.1,0.5l-0.5,4.5c0.4,0.1,0.9,0.2,1.4,0.3
						c0.5,0.1,1,0.2,1.4,0.4c0.4,0.2,0.8,0.3,1.2,0.5c0.3,0.2,0.6,0.3,0.7,0.5c0.1,0.1,0.2,0.3,0.3,0.4c0.1,0.1,0.1,0.3,0.2,0.5
						c0,0.2,0.1,0.4,0.1,0.7c0,0.3,0,0.6,0,1c0,0.5,0,0.9,0,1.2c0,0.3-0.1,0.6-0.1,0.7c-0.1,0.2-0.1,0.3-0.2,0.3
						c-0.1,0.1-0.2,0.1-0.3,0.1c-0.2,0-0.5-0.1-0.9-0.3c-0.4-0.2-0.9-0.4-1.5-0.7c-0.6-0.2-1.2-0.5-2-0.7c-0.8-0.2-1.6-0.3-2.5-0.3
						c-0.8,0-1.5,0.1-2.1,0.2c-0.6,0.2-1.1,0.4-1.4,0.7c-0.4,0.3-0.6,0.6-0.8,1s-0.3,0.8-0.3,1.3c0,0.7,0.2,1.4,0.6,1.9
						c0.4,0.5,0.9,0.9,1.6,1.3c0.7,0.4,1.4,0.7,2.2,1c0.8,0.3,1.7,0.6,2.6,1c0.9,0.3,1.7,0.7,2.6,1.2c0.8,0.4,1.6,1,2.2,1.6
						c0.7,0.6,1.2,1.4,1.6,2.3C1828.6,824.4,1828.8,825.5,1828.8,826.8z"/>
				</g>
			</g>
			<circle fill="#F8C44E" cx="1647.8" cy="905.9" r="33.1"/>
			<g>
				<g>
					<path fill="#FFFFFF" d="M1658.1,911.8c0,1.4-0.2,2.6-0.7,3.7c-0.5,1.1-1.2,2-2.1,2.8c-0.9,0.8-2,1.4-3.2,1.9
						c-1.3,0.5-2.6,0.8-4.2,0.9l-0.5,5.1c0,0.1-0.1,0.2-0.1,0.3c-0.1,0.1-0.2,0.2-0.3,0.2c-0.2,0.1-0.4,0.1-0.6,0.2
						c-0.3,0-0.6,0.1-1,0.1c-0.5,0-0.9,0-1.2-0.1c-0.3,0-0.6-0.1-0.7-0.2c-0.2-0.1-0.3-0.2-0.3-0.3c-0.1-0.1-0.1-0.3,0-0.5l0.5-4.8
						c-0.7-0.1-1.3-0.2-1.9-0.4c-0.6-0.2-1.2-0.3-1.6-0.5c-0.5-0.2-0.9-0.4-1.3-0.6c-0.4-0.2-0.6-0.4-0.8-0.6
						c-0.2-0.2-0.3-0.5-0.4-0.8c-0.1-0.4-0.1-0.9-0.1-1.6c0-0.5,0-1,0-1.3c0-0.4,0.1-0.6,0.2-0.8c0.1-0.2,0.2-0.3,0.3-0.4
						c0.1-0.1,0.3-0.1,0.4-0.1c0.2,0,0.5,0.1,0.9,0.4c0.4,0.2,0.9,0.5,1.5,0.8c0.6,0.3,1.4,0.5,2.3,0.8c0.9,0.2,1.9,0.4,3.1,0.4
						c1.9,0,3.2-0.3,4.1-1c0.9-0.7,1.4-1.6,1.4-2.8c0-0.8-0.2-1.4-0.6-1.9c-0.4-0.5-0.9-0.9-1.6-1.3c-0.6-0.4-1.4-0.7-2.2-1
						c-0.8-0.3-1.7-0.6-2.5-0.9c-0.9-0.3-1.7-0.7-2.5-1.2c-0.8-0.4-1.6-1-2.2-1.6c-0.6-0.7-1.2-1.4-1.6-2.4
						c-0.4-0.9-0.6-2.1-0.6-3.4c0-1.2,0.2-2.3,0.6-3.3c0.4-1,1-1.8,1.7-2.6c0.7-0.7,1.7-1.3,2.8-1.8c1.1-0.5,2.3-0.8,3.7-0.9
						l0.5-4.8c0-0.1,0-0.2,0.1-0.3c0.1-0.1,0.2-0.2,0.3-0.2c0.2-0.1,0.4-0.1,0.6-0.2c0.3,0,0.6,0,1,0c0.5,0,0.9,0,1.2,0.1
						c0.3,0,0.6,0.1,0.7,0.2c0.2,0.1,0.3,0.2,0.3,0.3c0,0.1,0.1,0.3,0.1,0.5l-0.5,4.5c0.4,0.1,0.9,0.2,1.4,0.3
						c0.5,0.1,1,0.2,1.4,0.4c0.4,0.2,0.8,0.3,1.2,0.5c0.3,0.2,0.6,0.3,0.7,0.5c0.1,0.1,0.2,0.3,0.3,0.4c0.1,0.1,0.1,0.3,0.2,0.5
						c0,0.2,0.1,0.4,0.1,0.7c0,0.3,0,0.6,0,1c0,0.5,0,0.9,0,1.2c0,0.3-0.1,0.6-0.1,0.7c-0.1,0.2-0.1,0.3-0.2,0.3
						c-0.1,0.1-0.2,0.1-0.3,0.1c-0.2,0-0.5-0.1-0.9-0.3c-0.4-0.2-0.9-0.4-1.5-0.7c-0.6-0.2-1.2-0.5-2-0.7c-0.8-0.2-1.6-0.3-2.5-0.3
						c-0.8,0-1.5,0.1-2.1,0.2c-0.6,0.2-1.1,0.4-1.4,0.7c-0.4,0.3-0.6,0.6-0.8,1s-0.3,0.8-0.3,1.3c0,0.7,0.2,1.4,0.6,1.9
						c0.4,0.5,0.9,0.9,1.6,1.3c0.7,0.4,1.4,0.7,2.2,1c0.8,0.3,1.7,0.6,2.6,1c0.9,0.3,1.7,0.7,2.5,1.2c0.8,0.4,1.6,1,2.2,1.6
						c0.7,0.6,1.2,1.4,1.6,2.3C1657.9,909.4,1658.1,910.5,1658.1,911.8z"/>
				</g>
			</g>
			<circle fill="#F8C44E" cx="1818.4" cy="972.1" r="33.1"/>
			<g>
				<g>
					<path fill="#FFFFFF" d="M1828.8,978c0,1.4-0.2,2.6-0.7,3.7c-0.5,1.1-1.2,2-2.1,2.8c-0.9,0.8-2,1.4-3.2,1.9
						c-1.3,0.5-2.6,0.8-4.2,0.9l-0.5,5.1c0,0.1-0.1,0.2-0.1,0.3c-0.1,0.1-0.2,0.2-0.3,0.2c-0.2,0.1-0.4,0.1-0.6,0.2
						c-0.3,0-0.6,0.1-1,0.1c-0.5,0-0.9,0-1.2-0.1c-0.3,0-0.6-0.1-0.7-0.2c-0.2-0.1-0.3-0.2-0.3-0.3c-0.1-0.1-0.1-0.3,0-0.5l0.5-4.8
						c-0.7-0.1-1.3-0.2-1.9-0.4c-0.6-0.2-1.2-0.3-1.6-0.5c-0.5-0.2-0.9-0.4-1.3-0.6c-0.4-0.2-0.6-0.4-0.8-0.6s-0.3-0.5-0.4-0.8
						c-0.1-0.4-0.1-0.9-0.1-1.6c0-0.5,0-1,0-1.3c0-0.4,0.1-0.6,0.2-0.8c0.1-0.2,0.2-0.3,0.3-0.4c0.1-0.1,0.3-0.1,0.4-0.1
						c0.2,0,0.5,0.1,0.9,0.4c0.4,0.2,0.9,0.5,1.5,0.8c0.6,0.3,1.4,0.5,2.3,0.8c0.9,0.2,1.9,0.4,3.1,0.4c1.9,0,3.2-0.3,4.1-1
						c0.9-0.7,1.4-1.6,1.4-2.8c0-0.8-0.2-1.4-0.6-1.9c-0.4-0.5-0.9-0.9-1.6-1.3c-0.6-0.4-1.4-0.7-2.2-1c-0.8-0.3-1.7-0.6-2.5-0.9
						c-0.9-0.3-1.7-0.7-2.5-1.2c-0.8-0.4-1.6-1-2.2-1.6c-0.6-0.7-1.2-1.4-1.6-2.4c-0.4-0.9-0.6-2.1-0.6-3.4c0-1.2,0.2-2.3,0.6-3.3
						c0.4-1,1-1.8,1.7-2.6c0.7-0.7,1.7-1.3,2.8-1.8c1.1-0.5,2.3-0.8,3.7-0.9l0.5-4.8c0-0.1,0-0.2,0.1-0.3c0.1-0.1,0.2-0.2,0.3-0.2
						c0.2-0.1,0.4-0.1,0.6-0.2c0.3,0,0.6,0,1,0c0.5,0,0.9,0,1.2,0.1c0.3,0,0.6,0.1,0.7,0.2c0.2,0.1,0.3,0.2,0.3,0.3
						c0,0.1,0.1,0.3,0.1,0.5l-0.5,4.5c0.4,0.1,0.9,0.2,1.4,0.3c0.5,0.1,1,0.2,1.4,0.4c0.4,0.2,0.8,0.3,1.2,0.5
						c0.3,0.2,0.6,0.3,0.7,0.5c0.1,0.1,0.2,0.3,0.3,0.4c0.1,0.1,0.1,0.3,0.2,0.5c0,0.2,0.1,0.4,0.1,0.7c0,0.3,0,0.6,0,1
						c0,0.5,0,0.9,0,1.2c0,0.3-0.1,0.6-0.1,0.7c-0.1,0.2-0.1,0.3-0.2,0.3c-0.1,0.1-0.2,0.1-0.3,0.1c-0.2,0-0.5-0.1-0.9-0.3
						c-0.4-0.2-0.9-0.4-1.5-0.7c-0.6-0.2-1.2-0.5-2-0.7c-0.8-0.2-1.6-0.3-2.5-0.3c-0.8,0-1.5,0.1-2.1,0.2c-0.6,0.2-1.1,0.4-1.4,0.7
						c-0.4,0.3-0.6,0.6-0.8,1s-0.3,0.8-0.3,1.3c0,0.7,0.2,1.4,0.6,1.9c0.4,0.5,0.9,0.9,1.6,1.3c0.7,0.4,1.4,0.7,2.2,1
						c0.8,0.3,1.7,0.6,2.6,1c0.9,0.3,1.7,0.7,2.6,1.2c0.8,0.4,1.6,1,2.2,1.6c0.7,0.6,1.2,1.4,1.6,2.3
						C1828.6,975.6,1828.8,976.7,1828.8,978z"/>
				</g>
			</g>
			<circle fill="#F8C44E" cx="1647.8" cy="1057.1" r="33.1"/>
			<g>
				<g>
					<path fill="#FFFFFF" d="M1658.1,1063c0,1.4-0.2,2.6-0.7,3.7c-0.5,1.1-1.2,2-2.1,2.8c-0.9,0.8-2,1.4-3.2,1.9
						c-1.3,0.5-2.6,0.8-4.2,0.9l-0.5,5.1c0,0.1-0.1,0.2-0.1,0.3c-0.1,0.1-0.2,0.2-0.3,0.2c-0.2,0.1-0.4,0.1-0.6,0.2
						c-0.3,0-0.6,0.1-1,0.1c-0.5,0-0.9,0-1.2-0.1c-0.3,0-0.6-0.1-0.7-0.2c-0.2-0.1-0.3-0.2-0.3-0.3c-0.1-0.1-0.1-0.3,0-0.5l0.5-4.8
						c-0.7-0.1-1.3-0.2-1.9-0.4c-0.6-0.2-1.2-0.3-1.6-0.5c-0.5-0.2-0.9-0.4-1.3-0.6c-0.4-0.2-0.6-0.4-0.8-0.6s-0.3-0.5-0.4-0.8
						c-0.1-0.4-0.1-0.9-0.1-1.6c0-0.5,0-1,0-1.3c0-0.3,0.1-0.6,0.2-0.8c0.1-0.2,0.2-0.3,0.3-0.4c0.1-0.1,0.3-0.1,0.4-0.1
						c0.2,0,0.5,0.1,0.9,0.4c0.4,0.2,0.9,0.5,1.5,0.8c0.6,0.3,1.4,0.5,2.3,0.8s1.9,0.4,3.1,0.4c1.9,0,3.2-0.3,4.1-1
						c0.9-0.7,1.4-1.6,1.4-2.8c0-0.8-0.2-1.4-0.6-1.9c-0.4-0.5-0.9-0.9-1.6-1.3c-0.6-0.4-1.4-0.7-2.2-1c-0.8-0.3-1.7-0.6-2.5-0.9
						c-0.9-0.3-1.7-0.7-2.5-1.2c-0.8-0.4-1.6-1-2.2-1.6c-0.6-0.7-1.2-1.4-1.6-2.4c-0.4-0.9-0.6-2.1-0.6-3.4c0-1.2,0.2-2.3,0.6-3.3
						c0.4-1,1-1.8,1.7-2.6c0.7-0.7,1.7-1.3,2.8-1.8c1.1-0.5,2.3-0.8,3.7-0.9l0.5-4.8c0-0.1,0-0.2,0.1-0.3c0.1-0.1,0.2-0.2,0.3-0.2
						c0.2-0.1,0.4-0.1,0.6-0.2c0.3,0,0.6,0,1,0c0.5,0,0.9,0,1.2,0.1c0.3,0,0.6,0.1,0.7,0.2c0.2,0.1,0.3,0.2,0.3,0.3
						c0,0.1,0.1,0.3,0.1,0.5l-0.5,4.5c0.4,0.1,0.9,0.2,1.4,0.3c0.5,0.1,1,0.2,1.4,0.4c0.4,0.2,0.8,0.3,1.2,0.5
						c0.3,0.2,0.6,0.3,0.7,0.5c0.1,0.1,0.2,0.3,0.3,0.4c0.1,0.1,0.1,0.3,0.2,0.5c0,0.2,0.1,0.4,0.1,0.7c0,0.3,0,0.6,0,1
						c0,0.5,0,0.9,0,1.2c0,0.3-0.1,0.6-0.1,0.7c-0.1,0.2-0.1,0.3-0.2,0.3c-0.1,0.1-0.2,0.1-0.3,0.1c-0.2,0-0.5-0.1-0.9-0.3
						c-0.4-0.2-0.9-0.4-1.5-0.7c-0.6-0.2-1.2-0.5-2-0.7c-0.8-0.2-1.6-0.3-2.5-0.3c-0.8,0-1.5,0.1-2.1,0.2c-0.6,0.2-1.1,0.4-1.4,0.7
						c-0.4,0.3-0.6,0.6-0.8,1c-0.2,0.4-0.3,0.8-0.3,1.3c0,0.7,0.2,1.4,0.6,1.9c0.4,0.5,0.9,0.9,1.6,1.3c0.7,0.4,1.4,0.7,2.2,1
						c0.8,0.3,1.7,0.6,2.6,1c0.9,0.3,1.7,0.7,2.5,1.2c0.8,0.4,1.6,1,2.2,1.6c0.7,0.6,1.2,1.4,1.6,2.3
						C1657.9,1060.6,1658.1,1061.7,1658.1,1063z"/>
				</g>
			</g>
			<g>
				<path fill="#FFFFFF" d="M1702.6,809.3l-1.4-1.4l1.1-1.1l-0.8-0.8l9.4-9.4l2.3,2.3L1702.6,809.3z M1691.5,798.2l-9.7-9.7l2.3-2.3
					l9.7,9.7L1691.5,798.2z M1722.8,789.1l-2.3-2.3l9.7-9.7l2.3,2.3L1722.8,789.1z M1672.1,778.8l-9.7-9.7l2.3-2.3l9.7,9.7
					L1672.1,778.8z M1742.2,769.7l-2.3-2.3l9.7-9.7l2.3,2.3L1742.2,769.7z M1656.2,759.4l-2.3-2.3l9.7-9.7l2.3,2.3L1656.2,759.4z
					 M1741.1,751.5l-9.7-9.7l2.3-2.3l9.7,9.7L1741.1,751.5z M1675.6,740.1l-2.3-2.3l9.7-9.7l2.3,2.3L1675.6,740.1z M1721.7,732.2
					l-9.7-9.7l2.3-2.3l9.7,9.7L1721.7,732.2z M1694.9,720.7l-2.3-2.3l9.9-9.9l2,2l-1.1,1.1l0.2,0.2L1694.9,720.7z"/>
			</g>
		</g>
		<g>
			<path fill="#6598B2" d="M2141.5,1571.9c0,7.6-6.2,13.7-13.7,13.7h-613.4c-7.6,0-13.7-6.2-13.7-13.7V1187
				c0-7.6,6.2-13.7,13.7-13.7h613.4c7.6,0,13.7,6.2,13.7,13.7V1571.9z"/>
			<path fill="#F8C44E" d="M2118.4,1207.4c0-6.8-5.5-12.3-12.3-12.3h-570.2c-6.8,0-12.3,5.5-12.3,12.3v12h594.8V1207.4z"/>
			<path fill="#B6DFF4" d="M1523.6,1219.3v332.3c0,6.8,5.5,12.3,12.3,12.3h570.2c6.8,0,12.3-5.5,12.3-12.3v-332.3H1523.6z"/>
			<path fill="#6598B2" d="M1931.8,1667.7c0,6.8-5.5,12.3-12.3,12.3h-197c-6.8,0-12.3-5.5-12.3-12.3v-3c0-6.8,5.5-12.3,12.3-12.3
				h197c6.8,0,12.3,5.5,12.3,12.3V1667.7z"/>
			<polygon fill="#6598B2" points="1879.6,1585.7 1821,1585.7 1821,1585.7 1762.5,1585.7 1737.6,1652.4 1821,1652.4 1821,1652.4 
				1904.4,1652.4 			"/>
			<g>
				<g>
					<g>
						<polygon fill="#6598B2" points="1595.4,1564.6 1592.5,1563.2 1653.6,1441.5 1681.8,1466.4 1747.8,1452.6 1786.8,1369 
							1822.3,1394.2 1862.4,1283.4 1904.4,1381.9 1952.9,1451.5 2039.9,1366.5 2042.1,1368.8 1952.5,1456.5 1901.4,1383.3 
							1862.7,1292.2 1823.9,1399.3 1788.1,1373.8 1750,1455.4 1680.8,1469.9 1654.6,1446.7 						"/>
					</g>
				</g>
				<g>
					<g>
						<path fill="#6598B2" d="M1655.7,1563.9h-3.2v-10.3h3.2V1563.9z M1655.7,1540h-3.2v-13.7h3.2V1540z M1655.7,1512.6h-3.2v-13.7
							h3.2V1512.6z M1655.7,1485.2h-3.2v-13.7h3.2V1485.2z M1655.7,1457.8h-3.2v-13.7h3.2V1457.8z"/>
					</g>
				</g>
				<g>
					<g>
						<path fill="#6598B2" d="M1682.9,1563.9h-3.2v-13.6h3.2V1563.9z M1682.9,1536.6h-3.2v-13.7h3.2V1536.6z M1682.9,1509.2h-3.2
							v-13.7h3.2V1509.2z M1682.9,1481.8h-3.2v-13.7h3.2V1481.8z"/>
					</g>
				</g>
				<g>
					<g>
						<path fill="#6598B2" d="M1750.5,1549.9h-3.2v-13.7h3.2V1549.9z M1750.5,1522.5h-3.2v-13.7h3.2V1522.5z M1750.5,1495.1h-3.2
							v-13.7h3.2V1495.1z M1750.5,1467.7h-3.2V1454h3.2V1467.7z"/>
					</g>
				</g>
				<g>
					<g>
						<path fill="#6598B2" d="M1789,1563.9h-3.2v-0.8h3.2V1563.9z M1789,1549.5h-3.2v-13.7h3.2V1549.5z M1789,1522.1h-3.2v-13.7h3.2
							V1522.1z M1789,1494.7h-3.2V1481h3.2V1494.7z M1789,1467.3h-3.2v-13.7h3.2V1467.3z M1789,1439.9h-3.2v-13.7h3.2V1439.9z
							 M1789,1412.5h-3.2v-13.7h3.2V1412.5z M1789,1385.1h-3.2v-13.7h3.2V1385.1z"/>
					</g>
				</g>
				<g>
					<g>
						<path fill="#6598B2" d="M1824.7,1563.9h-3.2v-2.8h3.2V1563.9z M1824.7,1547.4h-3.2v-13.7h3.2V1547.4z M1824.7,1520h-3.2v-13.7
							h3.2V1520z M1824.7,1492.6h-3.2v-13.7h3.2V1492.6z M1824.7,1465.2h-3.2v-13.7h3.2V1465.2z M1824.7,1437.8h-3.2v-13.7h3.2
							V1437.8z M1824.7,1410.5h-3.2v-13.7h3.2V1410.5z"/>
					</g>
				</g>
				<g>
					<g>
						<path fill="#6598B2" d="M1864.2,1561.9h-3.2v-0.1h3.2V1561.9z M1864.2,1548.1h-3.2v-13.7h3.2V1548.1z M1864.2,1520.7h-3.2
							V1507h3.2V1520.7z M1864.2,1493.3h-3.2v-13.7h3.2V1493.3z M1864.2,1465.9h-3.2v-13.7h3.2V1465.9z M1864.2,1438.5h-3.2v-13.7
							h3.2V1438.5z M1864.2,1411.1h-3.2v-13.7h3.2V1411.1z M1864.2,1383.7h-3.2V1370h3.2V1383.7z M1864.2,1356.3h-3.2v-13.7h3.2
							V1356.3z M1864.2,1328.9h-3.2v-13.7h3.2V1328.9z M1864.2,1301.5h-3.2v-13.7h3.2V1301.5z"/>
					</g>
				</g>
				<g>
					<g>
						<path fill="#6598B2" d="M1904.6,1560.7h-3.2V1547h3.2V1560.7z M1904.6,1533.3h-3.2v-13.7h3.2V1533.3z M1904.6,1505.9h-3.2
							v-13.7h3.2V1505.9z M1904.6,1478.6h-3.2v-13.7h3.2V1478.6z M1904.6,1451.2h-3.2v-13.7h3.2V1451.2z M1904.6,1423.8h-3.2v-13.7
							h3.2V1423.8z M1904.6,1396.4h-3.2v-13.7h3.2V1396.4z"/>
					</g>
				</g>
				<g>
					<g>
						<path fill="#6598B2" d="M1954.3,1563.9h-3.2v-0.3h3.2V1563.9z M1954.3,1549.9h-3.2v-13.7h3.2V1549.9z M1954.3,1522.5h-3.2
							v-13.7h3.2V1522.5z M1954.3,1495.1h-3.2v-13.7h3.2V1495.1z M1954.3,1467.7h-3.2V1454h3.2V1467.7z"/>
					</g>
				</g>
				<g>
					<g>
						<path fill="#6598B2" d="M2042.6,1563.9h-3.2v-13.7h3.2V1563.9z M2042.6,1536.5h-3.2v-13.7h3.2V1536.5z M2042.6,1509.1h-3.2
							v-13.7h3.2V1509.1z M2042.6,1481.7h-3.2V1468h3.2V1481.7z M2042.6,1454.3h-3.2v-13.7h3.2V1454.3z M2042.6,1426.9h-3.2v-13.7
							h3.2V1426.9z M2042.6,1399.6h-3.2v-13.7h3.2V1399.6z M2042.6,1372.2h-3.2v-4.5h3.2V1372.2z"/>
					</g>
				</g>
				<circle fill="#F8C44E" cx="1656" cy="1442.2" r="7.1"/>
				<circle fill="#F8C44E" cx="1683.2" cy="1465.7" r="7.1"/>
				<circle fill="#F8C44E" cx="1750.8" cy="1452.1" r="7.1"/>
				<circle fill="#F8C44E" cx="1787.4" cy="1371.4" r="7.1"/>
				<circle fill="#F8C44E" cx="1823.1" cy="1396.8" r="7.1"/>
				<circle fill="#F8C44E" cx="1862.6" cy="1287.8" r="7.1"/>
				<circle fill="#F8C44E" cx="1902.9" cy="1382.7" r="7.1"/>
				<circle fill="#F8C44E" cx="1952.7" cy="1454" r="7.1"/>
				<circle fill="#F8C44E" cx="2041" cy="1367.6" r="7.1"/>
			</g>
			<g>
				<path d="M2118.4,1243c-0.7,0-1.2,0.5-1.2,1.2v307.4c0,6.1-5,11.1-11.1,11.1h-570.2c-6.1,0-11.1-5-11.1-11.1v-307.4
					c0-0.7-0.5-1.2-1.2-1.2s-1.2,0.5-1.2,1.2v307.4c0,7.4,6.1,13.5,13.5,13.5h570.2c7.4,0,13.5-6.1,13.5-13.5v-307.4
					C2119.6,1243.5,2119.1,1243,2118.4,1243z"/>
				<path d="M2127.7,1172.1h-613.4c-8.2,0-15,6.7-15,15v384.9c0,8.3,6.7,15,15,15h613.4c8.2,0,15-6.7,15-15V1187
					C2142.7,1178.8,2136,1172.1,2127.7,1172.1z M2140.3,1571.9c0,6.9-5.6,12.5-12.5,12.5h-613.4c-6.9,0-12.5-5.6-12.5-12.5V1187
					c0-6.9,5.6-12.5,12.5-12.5h613.4c6.9,0,12.5,5.6,12.5,12.5V1571.9z"/>
				<path d="M1919.5,1651.2h-197c-7.4,0-13.5,6.1-13.5,13.5v3c0,7.5,6.1,13.5,13.5,13.5h197c7.4,0,13.5-6.1,13.5-13.5v-3
					C1933,1657.3,1927,1651.2,1919.5,1651.2z M1930.6,1667.7c0,6.1-5,11.1-11.1,11.1h-197c-6.1,0-11.1-5-11.1-11.1v-3
					c0-6.1,5-11.1,11.1-11.1h197c6.1,0,11.1,5,11.1,11.1V1667.7z"/>
				<path d="M2118.4,1218.1h-594.8c-0.7,0-1.2,0.5-1.2,1.2s0.5,1.2,1.2,1.2h594.8c0.7,0,1.2-0.5,1.2-1.2
					S2119.1,1218.1,2118.4,1218.1z"/>
			</g>
		</g>
		<g>
			<path fill="#6598B2" d="M844.5,1474.8h129.1h111.1h46.9c5.8,0,11.7,4.7,13.2,10.5l48.6,194.6H885.2l-48.6-194.6
				C835.2,1479.6,838.7,1474.8,844.5,1474.8z"/>
			<path fill="#6598B2" d="M844.5,1474.8h129.1h111.1h46.9c5.8,0,11.7,4.7,13.2,10.5l48.6,194.6H885.2l-48.6-194.6
				C835.2,1479.6,838.7,1474.8,844.5,1474.8z"/>
			<rect x="904.2" y="1391.4" fill="#CFEAF8" width="286.6" height="150"/>
			<line fill="none" stroke="#000000" stroke-width="2.126" stroke-miterlimit="10" x1="938.8" y1="1422.5" x2="1134" y2="1422.5"/>
			<line fill="none" stroke="#000000" stroke-width="2.126" stroke-miterlimit="10" x1="938.8" y1="1443.2" x2="1134" y2="1443.2"/>
			<path fill="#6598B2" d="M895.7,1474.8h129.1v-18.5c0-5.8,4.7-10.5,10.5-10.5h90c5.8,0,10.5,4.7,10.5,10.5v18.5h46.9
				c5.8,0,10.5,4.7,10.5,10.5V1680H885.2v-194.6C885.2,1479.6,889.9,1474.8,895.7,1474.8z"/>
			<g>
				<path d="M886.4,1680H884v-194.6c0-6.5,5.3-11.8,11.8-11.8h127.9v-17.3c0-6.5,5.3-11.8,11.8-11.8h90c6.5,0,11.8,5.3,11.8,11.8
					v17.3h45.7c6.5,0,11.8,5.3,11.8,11.8h-2.4c0-5.1-4.2-9.3-9.3-9.3h-48.1v-19.8c0-5.1-4.2-9.3-9.3-9.3h-90c-5.1,0-9.3,4.2-9.3,9.3
					v19.8H895.7c-5.1,0-9.3,4.2-9.3,9.3V1680z"/>
			</g>
		</g>
		<g>
			<path fill="#EFAC66" d="M1476.8,1244.2c0,0-31-10.5-31-90.5h-31.5H1400h0h-12h-33.8c0,79.9-31,90.5-31,90.5l76.8,90.1h0
				L1476.8,1244.2z"/>
			<polygon fill="#E7E5E8" points="1476.8,1507.8 1323.2,1507.8 1323.2,1244.2 1400,1293.1 1476.8,1244.2 			"/>
			<path fill="#7C8439" d="M1476.8,1244.2v224.5V1680h118.4c0,0,98.3-17.2,103.3-92.8c5-75.6-21.9-213-46.8-257.7
				C1626.7,1284.8,1570,1266.5,1476.8,1244.2z"/>
			<path fill="#7C8439" d="M1323.2,1244.2v224.5V1680h-118.4c0,0-98.3-17.2-103.3-92.8c-5-75.6,21.9-213,46.8-257.7
				C1173.3,1284.8,1230,1266.5,1323.2,1244.2z"/>
			<path fill="#FFFFFF" d="M1400,1293.1l-48.8,41.3c0,0-28-17.4-28-90.1C1323.2,1244.2,1353.9,1249.2,1400,1293.1z"/>
			<polygon fill="#FFFFFF" points="1400,1468.7 1379.6,1310.4 1400,1293.1 1400,1293.1 1420.4,1310.4 			"/>
			<path fill="#474656" d="M1601.1,1628.4c0,14.1-11.4,25.6-25.6,25.6h-351c-14.1,0-25.6-11.4-25.6-25.6v-241.2
				c0-14.1,11.4-25.6,25.6-25.6h351c14.1,0,25.6,11.4,25.6,25.6V1628.4z"/>
			<path fill="#474656" d="M1601.1,1667c0,7.2-5.8,13-13,13h-376c-7.2,0-13-5.8-13-13l0,0c0-7.2,5.8-13,13-13h376
				C1595.2,1653.9,1601.1,1659.8,1601.1,1667L1601.1,1667z"/>
			<circle fill="#52526D" cx="1400" cy="1507.8" r="39.1"/>
			<path fill="#EFAC66" d="M1527.8,1012.9c0,0,22.6,51.3-18.8,86.1c0,0-16.4-57-2.6-71.8C1520.3,1012.3,1527.8,1012.9,1527.8,1012.9
				z"/>
			<path fill="#FCC082" d="M1509,967.4c-7.9-26.7-27.1-65.3-109-65.3h0c-81.9,0-101.1,38.6-109,65.3c-7.9,26.7,0,131.6,0,131.6
				c31.7,104.9,69.4,114.8,109,114.8s77.4-9.9,109-114.8C1509,1099,1516.9,994.1,1509,967.4z"/>
			<path fill="#EFAC66" d="M1272.2,1012.9c0,0-22.6,51.3,18.8,86.1c0,0,16.4-57,2.6-71.8S1272.2,1012.9,1272.2,1012.9z"/>
			<g>
				<path d="M1400,1214.8c-19,0-39.2-2.2-58.2-18.3c-20.4-17.3-37.3-49.1-51.9-97.2l2-0.6c14.4,47.7,31.2,79.2,51.2,96.2
					c18.4,15.6,38.2,17.8,56.8,17.8c18.6,0,38.4-2.2,56.8-17.8c20.1-17,36.8-48.5,51.2-96.2l2,0.6c-14.5,48.1-31.5,79.9-51.9,97.2
					C1439.2,1212.6,1419,1214.8,1400,1214.8z"/>
			</g>
			<path fill="#474656" d="M1400,853.6c-158.1,0-127.8,159.3-127.8,159.3c21.1,23.1,18.8,86.1,18.8,86.1
				c10.2,0.7,11.4-10.6,11.4-10.6c0-116.5,17.2-139.8,17.2-139.8c28.5,32.3,80.3,34,80.3,34h0c0,0,51.8-1.8,80.3-34
				c0,0,17.2,23.3,17.2,139.8c0,0,1.2,11.3,11.4,10.6c0,0-2.3-63,18.8-86.1C1527.8,1012.9,1558.1,853.6,1400,853.6z"/>
			<g>
				<path d="M1508.1,1100.1c-10.2,0-11.6-11.5-11.6-11.6c0,0,0-0.1,0-0.1c0-101.1-13.2-132.1-16.4-138
					c-28.7,31.2-79.6,33.3-80.1,33.3c-0.6,0-51.5-2.1-80.2-33.3c-3.2,6-16.4,36.9-16.4,138c0,0,0,0.1,0,0.1
					c0,0.1-1.4,12.3-12.5,11.6c-0.6,0-1-0.5-1-1.1c0-0.6,2-62.8-18.5-85.3c-0.4-0.4-0.4-1.1,0.1-1.5c0.4-0.4,1.1-0.4,1.5,0.1
					c19.9,21.8,19.3,77.1,19.1,85.8c7.9-0.2,9.2-8.8,9.3-9.7c0-115.4,16.7-139.4,17.5-140.4c0.2-0.3,0.5-0.4,0.8-0.4
					c0.3,0,0.6,0.1,0.8,0.4c27.9,31.6,79.1,33.7,79.6,33.7c0.4,0,51.6-2.1,79.5-33.7c0.2-0.2,0.5-0.4,0.8-0.4c0.3,0,0.6,0.2,0.8,0.4
					c0.7,1,17.5,24.9,17.5,140.4c0.1,0.8,1.4,9.5,9.3,9.7c-0.2-8.7-0.8-64,19.1-85.8c0.4-0.4,1.1-0.5,1.5-0.1
					c0.4,0.4,0.5,1.1,0.1,1.5c-20.6,22.5-18.5,84.7-18.5,85.3c0,0.6-0.4,1.1-1,1.1C1508.8,1100.1,1508.4,1100.1,1508.1,1100.1z"/>
			</g>
			<path fill="#FFFFFF" d="M1400,1293.1l48.8,41.3c0,0,28-17.4,28-90.1C1476.8,1244.2,1446.1,1249.2,1400,1293.1z"/>
			<g>
				<path d="M1698.5,1588.3C1698.4,1588.3,1698.4,1588.3,1698.5,1588.3c-0.7,0-1.1-0.5-1.1-1.1c2.3-35.2-2.1-86.3-12.2-140.2
					c-9.7-51.8-22.6-95.5-34.5-117c-23.6-42.3-74.9-61.1-174.1-84.8c-0.6-0.1-0.9-0.7-0.8-1.3c0.1-0.6,0.7-0.9,1.3-0.8
					c47.1,11.3,84.4,21.4,113.2,34.3c30.5,13.7,50.3,30,62.3,51.5c12,21.6,25,65.6,34.7,117.6c10.1,54.1,14.5,105.4,12.2,140.7
					C1699.5,1587.9,1699,1588.3,1698.5,1588.3z"/>
			</g>
			<g>
				<path d="M1101.5,1588.3c-0.6,0-1-0.4-1.1-1c-2.3-35.3,2.1-86.6,12.2-140.7c9.7-52,22.7-96,34.7-117.6
					c12-21.5,31.8-37.9,62.3-51.5c28.8-12.9,66.1-23,113.2-34.3c0.6-0.1,1.1,0.2,1.3,0.8c0.1,0.6-0.2,1.1-0.8,1.3
					c-99.2,23.7-150.6,42.4-174.1,84.8c-11.9,21.4-24.8,65.2-34.5,117c-10.1,53.9-14.5,105-12.2,140.2
					C1102.6,1587.8,1102.2,1588.3,1101.5,1588.3C1101.6,1588.3,1101.6,1588.3,1101.5,1588.3z"/>
			</g>
			<g>
				<path d="M1601.1,1629.4c-0.6,0-1.1-0.5-1.1-1.1v-241.2c0-13.5-11-24.5-24.5-24.5h-351c-13.5,0-24.5,11-24.5,24.5v241.2
					c0,0.6-0.5,1.1-1.1,1.1s-1.1-0.5-1.1-1.1v-241.2c0-14.7,11.9-26.6,26.6-26.6h351c14.7,0,26.6,11.9,26.6,26.6v241.2
					C1602.1,1629,1601.6,1629.4,1601.1,1629.4z"/>
			</g>
			<g>
				<path d="M1588,1681.1h-376c-7.8,0-14.1-6.3-14.1-14.1c0-7.8,6.3-14.1,14.1-14.1h376c7.8,0,14.1,6.3,14.1,14.1
					C1602.1,1674.8,1595.8,1681.1,1588,1681.1z M1212,1655c-6.6,0-12,5.4-12,12c0,6.6,5.4,12,12,12h376c6.6,0,12-5.4,12-12
					c0-6.6-5.4-12-12-12H1212z"/>
			</g>
		</g>
		<g>
			<g>
				<path fill="#B6DFF4" d="M812.8,1658.3c0,11.1-9,20.1-20.1,20.1H583.2c-11.1,0-20.1-9-20.1-20.1v-354.1c0-11.1,9-20.1,20.1-20.1
					h209.5c11.1,0,20.1,9,20.1,20.1V1658.3z"/>
				<g>
					<path d="M583.2,1679.6c-11.7,0-21.3-9.6-21.3-21.3v-354.1c0-11.7,9.6-21.3,21.3-21.3h209.5c11.7,0,21.3,9.6,21.3,21.3h-2.4
						c0-10.4-8.5-18.9-18.9-18.9H583.2c-10.4,0-18.9,8.5-18.9,18.9v354.1c0,10.4,8.5,18.9,18.9,18.9V1679.6z"/>
				</g>
				<g>
					<path d="M759.3,1427.5H616.6c-11.7,0-21.3-9.6-21.3-21.3v-71.1c0-11.7,9.6-21.3,21.3-21.3h142.8c11.7,0,21.3,9.6,21.3,21.3
						v71.1C780.7,1417.9,771.1,1427.5,759.3,1427.5z M616.6,1316.2c-10.4,0-18.9,8.5-18.9,18.9v71.1c0,10.4,8.5,18.9,18.9,18.9
						h142.8c10.4,0,18.9-8.5,18.9-18.9v-71.1c0-10.4-8.5-18.9-18.9-18.9H616.6z"/>
				</g>
				<g>
					<path fill="#FFFFFF" d="M615.2,1486.3h-5.3c-8.1,0-14.7-6.6-14.7-14.7c0-8.1,6.6-14.7,14.7-14.7h5.3c8.1,0,14.7,6.6,14.7,14.7
						C629.9,1479.7,623.3,1486.3,615.2,1486.3z M609.9,1459.4c-6.7,0-12.2,5.5-12.2,12.2c0,6.7,5.5,12.2,12.2,12.2h5.3
						c6.7,0,12.2-5.5,12.2-12.2c0-6.7-5.5-12.2-12.2-12.2H609.9z"/>
				</g>
				<g>
					<path fill="#FFFFFF" d="M766,1486.3h-5.3c-8.1,0-14.7-6.6-14.7-14.7c0-8.1,6.6-14.7,14.7-14.7h5.3c8.1,0,14.7,6.6,14.7,14.7
						C780.7,1479.7,774.1,1486.3,766,1486.3z M760.7,1459.4c-6.7,0-12.2,5.5-12.2,12.2c0,6.7,5.5,12.2,12.2,12.2h5.3
						c6.7,0,12.2-5.5,12.2-12.2c0-6.7-5.5-12.2-12.2-12.2H760.7z"/>
				</g>
				<g>
					<path fill="#FFFFFF" d="M717.2,1486.3h-5.3c-8.1,0-14.7-6.6-14.7-14.7c0-8.1,6.6-14.7,14.7-14.7h5.3c8.1,0,14.7,6.6,14.7,14.7
						C731.9,1479.7,725.3,1486.3,717.2,1486.3z M711.9,1459.4c-6.7,0-12.2,5.5-12.2,12.2c0,6.7,5.5,12.2,12.2,12.2h5.3
						c6.7,0,12.2-5.5,12.2-12.2c0-6.7-5.5-12.2-12.2-12.2H711.9z"/>
				</g>
				<g>
					<path fill="#FFFFFF" d="M665.7,1486.3h-5.3c-8.1,0-14.7-6.6-14.7-14.7c0-8.1,6.6-14.7,14.7-14.7h5.3c8.1,0,14.7,6.6,14.7,14.7
						C680.3,1479.7,673.7,1486.3,665.7,1486.3z M660.4,1459.4c-6.7,0-12.2,5.5-12.2,12.2c0,6.7,5.5,12.2,12.2,12.2h5.3
						c6.7,0,12.2-5.5,12.2-12.2c0-6.7-5.5-12.2-12.2-12.2H660.4z"/>
				</g>
				<g>
					<path d="M615.2,1536.3h-5.3c-8.1,0-14.7-6.6-14.7-14.7s6.6-14.7,14.7-14.7h5.3c8.1,0,14.7,6.6,14.7,14.7
						S623.3,1536.3,615.2,1536.3z M609.9,1509.5c-6.7,0-12.2,5.5-12.2,12.2c0,6.7,5.5,12.2,12.2,12.2h5.3c6.7,0,12.2-5.5,12.2-12.2
						c0-6.7-5.5-12.2-12.2-12.2H609.9z"/>
				</g>
				<g>
					<path d="M766,1536.3h-5.3c-8.1,0-14.7-6.6-14.7-14.7s6.6-14.7,14.7-14.7h5.3c8.1,0,14.7,6.6,14.7,14.7S774.1,1536.3,766,1536.3
						z M760.7,1509.5c-6.7,0-12.2,5.5-12.2,12.2c0,6.7,5.5,12.2,12.2,12.2h5.3c6.7,0,12.2-5.5,12.2-12.2c0-6.7-5.5-12.2-12.2-12.2
						H760.7z"/>
				</g>
				<g>
					<path d="M717.2,1536.3h-5.3c-8.1,0-14.7-6.6-14.7-14.7s6.6-14.7,14.7-14.7h5.3c8.1,0,14.7,6.6,14.7,14.7
						S725.3,1536.3,717.2,1536.3z M711.9,1509.5c-6.7,0-12.2,5.5-12.2,12.2c0,6.7,5.5,12.2,12.2,12.2h5.3c6.7,0,12.2-5.5,12.2-12.2
						c0-6.7-5.5-12.2-12.2-12.2H711.9z"/>
				</g>
				<g>
					<path d="M665.7,1536.3h-5.3c-8.1,0-14.7-6.6-14.7-14.7s6.6-14.7,14.7-14.7h5.3c8.1,0,14.7,6.6,14.7,14.7
						S673.7,1536.3,665.7,1536.3z M660.4,1509.5c-6.7,0-12.2,5.5-12.2,12.2c0,6.7,5.5,12.2,12.2,12.2h5.3c6.7,0,12.2-5.5,12.2-12.2
						c0-6.7-5.5-12.2-12.2-12.2H660.4z"/>
				</g>
				<g>
					<path d="M615.2,1586.4h-5.3c-8.1,0-14.7-6.6-14.7-14.7c0-8.1,6.6-14.7,14.7-14.7h5.3c8.1,0,14.7,6.6,14.7,14.7
						C629.9,1579.8,623.3,1586.4,615.2,1586.4z M609.9,1559.5c-6.7,0-12.2,5.5-12.2,12.2c0,6.7,5.5,12.2,12.2,12.2h5.3
						c6.7,0,12.2-5.5,12.2-12.2c0-6.7-5.5-12.2-12.2-12.2H609.9z"/>
				</g>
				<g>
					<path d="M766,1586.4h-5.3c-8.1,0-14.7-6.6-14.7-14.7c0-8.1,6.6-14.7,14.7-14.7h5.3c8.1,0,14.7,6.6,14.7,14.7
						C780.7,1579.8,774.1,1586.4,766,1586.4z M760.7,1559.5c-6.7,0-12.2,5.5-12.2,12.2c0,6.7,5.5,12.2,12.2,12.2h5.3
						c6.7,0,12.2-5.5,12.2-12.2c0-6.7-5.5-12.2-12.2-12.2H760.7z"/>
				</g>
				<g>
					<path d="M717.2,1586.4h-5.3c-8.1,0-14.7-6.6-14.7-14.7c0-8.1,6.6-14.7,14.7-14.7h5.3c8.1,0,14.7,6.6,14.7,14.7
						C731.9,1579.8,725.3,1586.4,717.2,1586.4z M711.9,1559.5c-6.7,0-12.2,5.5-12.2,12.2c0,6.7,5.5,12.2,12.2,12.2h5.3
						c6.7,0,12.2-5.5,12.2-12.2c0-6.7-5.5-12.2-12.2-12.2H711.9z"/>
				</g>
				<g>
					<path d="M665.7,1586.4h-5.3c-8.1,0-14.7-6.6-14.7-14.7c0-8.1,6.6-14.7,14.7-14.7h5.3c8.1,0,14.7,6.6,14.7,14.7
						C680.3,1579.8,673.7,1586.4,665.7,1586.4z M660.4,1559.5c-6.7,0-12.2,5.5-12.2,12.2c0,6.7,5.5,12.2,12.2,12.2h5.3
						c6.7,0,12.2-5.5,12.2-12.2c0-6.7-5.5-12.2-12.2-12.2H660.4z"/>
				</g>
				<g>
					<path d="M615.2,1636.4h-5.3c-8.1,0-14.7-6.6-14.7-14.7c0-8.1,6.6-14.7,14.7-14.7h5.3c8.1,0,14.7,6.6,14.7,14.7
						C629.9,1629.9,623.3,1636.4,615.2,1636.4z M609.9,1609.5c-6.7,0-12.2,5.5-12.2,12.2c0,6.7,5.5,12.2,12.2,12.2h5.3
						c6.7,0,12.2-5.5,12.2-12.2c0-6.7-5.5-12.2-12.2-12.2H609.9z"/>
				</g>
				<g>
					<path d="M766,1636.4h-5.3c-8.1,0-14.7-6.6-14.7-14.7c0-8.1,6.6-14.7,14.7-14.7h5.3c8.1,0,14.7,6.6,14.7,14.7
						C780.7,1629.9,774.1,1636.4,766,1636.4z M760.7,1609.5c-6.7,0-12.2,5.5-12.2,12.2c0,6.7,5.5,12.2,12.2,12.2h5.3
						c6.7,0,12.2-5.5,12.2-12.2c0-6.7-5.5-12.2-12.2-12.2H760.7z"/>
				</g>
				<g>
					<path d="M717.2,1636.4h-5.3c-8.1,0-14.7-6.6-14.7-14.7c0-8.1,6.6-14.7,14.7-14.7h5.3c8.1,0,14.7,6.6,14.7,14.7
						C731.9,1629.9,725.3,1636.4,717.2,1636.4z M711.9,1609.5c-6.7,0-12.2,5.5-12.2,12.2c0,6.7,5.5,12.2,12.2,12.2h5.3
						c6.7,0,12.2-5.5,12.2-12.2c0-6.7-5.5-12.2-12.2-12.2H711.9z"/>
				</g>
				<g>
					<path d="M665.7,1636.4h-5.3c-8.1,0-14.7-6.6-14.7-14.7c0-8.1,6.6-14.7,14.7-14.7h5.3c8.1,0,14.7,6.6,14.7,14.7
						C680.3,1629.9,673.7,1636.4,665.7,1636.4z M660.4,1609.5c-6.7,0-12.2,5.5-12.2,12.2c0,6.7,5.5,12.2,12.2,12.2h5.3
						c6.7,0,12.2-5.5,12.2-12.2c0-6.7-5.5-12.2-12.2-12.2H660.4z"/>
				</g>
			</g>
			<g>
				<path fill="#FFFFFF" d="M563.1,1334.5l-1.4-1.4l1.1-1.1l-0.8-0.8l9.4-9.4l2.3,2.3L563.1,1334.5z M552,1323.4l-9.7-9.7l2.3-2.3
					l9.7,9.7L552,1323.4z M583.3,1314.3l-2.3-2.3l9.7-9.7l2.3,2.3L583.3,1314.3z M532.6,1304l-9.7-9.7l2.3-2.3l9.7,9.7L532.6,1304z
					 M602.7,1294.9l-2.3-2.3l9.7-9.7l2.3,2.3L602.7,1294.9z M516.7,1284.6l-2.3-2.3l9.7-9.7l2.3,2.3L516.7,1284.6z M601.6,1276.8
					l-9.7-9.7l2.3-2.3l9.7,9.7L601.6,1276.8z M536.1,1265.3l-2.3-2.3l9.7-9.7l2.3,2.3L536.1,1265.3z M582.2,1257.4l-9.7-9.7l2.3-2.3
					l9.7,9.7L582.2,1257.4z M555.5,1245.9l-2.3-2.3l9.9-9.9l2,2l-1.1,1.1l0.2,0.2L555.5,1245.9z"/>
			</g>
		</g>
		<g>
			<g>
				<rect x="293.9" y="1678.4" width="2212.2" height="3.2"/>
			</g>
			<g>
				<g>
					<g>
						<circle fill="#F8C44E" cx="294.6" cy="1680" r="12.2"/>
					</g>
				</g>
				<g>
					<path d="M294.6,1693.8c7.6,0,13.8-6.2,13.8-13.8c0-7.6-6.2-13.8-13.8-13.8c-7.6,0-13.8,6.2-13.8,13.8
						C280.8,1687.6,287,1693.8,294.6,1693.8C302.2,1693.8,287,1693.8,294.6,1693.8z M294.6,1669.5c5.8,0,10.5,4.7,10.5,10.5
						c0,5.8-4.7,10.5-10.5,10.5c-5.8,0-10.5-4.7-10.5-10.5C284,1674.2,288.8,1669.5,294.6,1669.5
						C300.4,1669.5,288.8,1669.5,294.6,1669.5z"/>
				</g>
			</g>
			<g>
				<g>
					<path fill="#F8C44E" d="M2505.4,1692.2c6.7,0,12.2-5.4,12.2-12.2s-5.4-12.2-12.2-12.2c-6.7,0-12.2,5.4-12.2,12.2
						S2498.7,1692.2,2505.4,1692.2z"/>
				</g>
				<g>
					<path d="M2505.4,1693.8c-7.6,0-13.8-6.2-13.8-13.8c0-7.6,6.2-13.8,13.8-13.8c7.6,0,13.8,6.2,13.8,13.8
						C2519.2,1687.6,2513,1693.8,2505.4,1693.8C2497.8,1693.8,2513,1693.8,2505.4,1693.8z M2505.4,1669.5c-5.8,0-10.5,4.7-10.5,10.5
						c0,5.8,4.7,10.5,10.5,10.5c5.8,0,10.5-4.7,10.5-10.5C2516,1674.2,2511.3,1669.5,2505.4,1669.5
						C2499.6,1669.5,2511.3,1669.5,2505.4,1669.5z"/>
				</g>
			</g>
		</g>
		<g>
			<g>
				<g>
					<path fill="#F8C44E" d="M2258.9,1063c0,4.3-0.8,8.2-2.3,11.6c-1.5,3.5-3.7,6.4-6.5,8.9c-2.8,2.5-6.2,4.5-10.1,6
						c-3.9,1.5-8.3,2.4-13.1,2.9l-1.6,16c0,0.4-0.2,0.8-0.3,1c-0.2,0.3-0.5,0.6-1,0.8c-0.5,0.2-1.1,0.4-2,0.5
						c-0.8,0.1-1.9,0.2-3.1,0.2c-1.6,0-2.9-0.1-3.9-0.2c-1-0.2-1.7-0.4-2.3-0.6c-0.5-0.3-0.9-0.6-1.1-1.1c-0.2-0.5-0.2-1-0.1-1.5
						l1.6-15.2c-2.1-0.3-4.2-0.7-6.1-1.2c-1.9-0.5-3.6-1-5.2-1.6c-1.5-0.6-2.9-1.2-4-1.8c-1.1-0.6-2-1.2-2.5-1.8
						c-0.6-0.6-1-1.4-1.2-2.6c-0.3-1.1-0.4-2.8-0.4-5c0-1.7,0-3.1,0.1-4.2c0.1-1.1,0.3-1.9,0.5-2.6c0.2-0.6,0.6-1,0.9-1.2
						c0.4-0.2,0.8-0.3,1.3-0.3c0.6,0,1.6,0.4,2.8,1.1c1.3,0.7,2.9,1.6,4.8,2.5c1.9,0.9,4.3,1.7,7.1,2.5c2.8,0.8,6,1.1,9.8,1.1
						c5.8,0,10.2-1.1,13-3.3c2.9-2.2,4.3-5.1,4.3-8.7c0-2.4-0.6-4.4-1.8-5.9c-1.2-1.5-2.9-2.9-4.9-4.1c-2-1.2-4.4-2.2-6.9-3.1
						c-2.6-0.9-5.2-1.9-7.9-3c-2.7-1.1-5.3-2.3-7.9-3.7c-2.6-1.4-4.9-3.1-6.9-5.2c-2-2.1-3.7-4.5-4.9-7.5c-1.2-2.9-1.8-6.5-1.8-10.6
						c0-3.7,0.6-7.2,1.9-10.2c1.2-3.1,3-5.8,5.4-8.1c2.3-2.3,5.2-4.2,8.7-5.6c3.4-1.4,7.3-2.4,11.7-2.9l1.5-15.1
						c0-0.4,0.2-0.7,0.3-1c0.2-0.3,0.5-0.5,1-0.8c0.5-0.2,1.1-0.4,1.9-0.5c0.8-0.1,1.8-0.1,3.1-0.1c1.6,0,2.8,0.1,3.9,0.2
						c1,0.2,1.8,0.4,2.4,0.6c0.6,0.3,0.9,0.6,1.1,1.1c0.1,0.5,0.2,1,0.2,1.5l-1.5,14.2c1.4,0.2,2.9,0.5,4.4,0.8
						c1.5,0.4,3,0.8,4.3,1.2c1.3,0.5,2.6,1,3.7,1.5c1.1,0.5,1.9,1,2.3,1.4c0.4,0.4,0.7,0.8,1,1.3c0.2,0.4,0.4,0.9,0.5,1.6
						c0.1,0.6,0.2,1.4,0.3,2.3c0,0.9,0.1,1.9,0.1,3c0,1.5,0,2.8-0.1,3.8c-0.1,1-0.2,1.8-0.4,2.3c-0.2,0.5-0.4,0.9-0.7,1
						c-0.2,0.2-0.5,0.3-0.9,0.3c-0.7,0-1.6-0.3-2.9-1c-1.2-0.7-2.8-1.4-4.6-2.1c-1.8-0.8-3.9-1.5-6.3-2.1c-2.4-0.7-5-1-7.8-1
						c-2.6,0-4.8,0.2-6.7,0.8c-1.9,0.5-3.4,1.2-4.5,2.1c-1.2,0.9-2,2-2.5,3.2c-0.5,1.3-0.8,2.6-0.8,4.1c0,2.3,0.6,4.3,1.9,5.9
						c1.3,1.6,2.9,3,5,4.1c2.1,1.1,4.4,2.2,7,3.1c2.6,0.9,5.3,2,8,3c2.7,1,5.4,2.3,8,3.6c2.6,1.4,5,3.1,7,5.1c2.1,2,3.7,4.5,4.9,7.3
						C2258.3,1055.5,2258.9,1058.9,2258.9,1063z"/>
				</g>
			</g>
			<g>
				
					<line fill="none" stroke="#000000" stroke-width="2.8347" stroke-miterlimit="10" x1="2226.4" y1="1485.9" x2="2226.4" y2="1479"/>
				
					<line fill="none" stroke="#000000" stroke-width="2.8347" stroke-miterlimit="10" stroke-dasharray="11.6888,11.6888" x1="2226.4" y1="1465.7" x2="2226.4" y2="1152.2"/>
				
					<line fill="none" stroke="#000000" stroke-width="2.8347" stroke-miterlimit="10" x1="2226.4" y1="1145.5" x2="2226.4" y2="1138.6"/>
			</g>
		</g>
		<g>
			<path fill="#F8C44E" d="M915.5,1550.1L915.5,1550.1c-0.2-0.4-0.4-0.7-0.6-1.1c-0.1-0.2-0.2-0.4-0.4-0.5c-0.2-0.2-0.3-0.4-0.5-0.7
				c-0.1-0.2-0.3-0.3-0.4-0.5c-0.3-0.3-0.6-0.6-0.8-0.9c-0.1-0.1-0.3-0.3-0.4-0.4c-0.2-0.2-0.4-0.4-0.6-0.6
				c-0.1-0.1-0.3-0.3-0.4-0.4c-0.3-0.3-0.7-0.5-1.1-0.8c-0.1-0.1-0.3-0.2-0.4-0.3c-0.3-0.2-0.6-0.4-0.9-0.5
				c-0.1-0.1-0.3-0.2-0.4-0.2c-0.4-0.2-0.8-0.4-1.3-0.6c-0.1,0-0.2-0.1-0.3-0.1c-0.4-0.2-0.7-0.3-1.1-0.4c-0.1,0-0.3-0.1-0.4-0.1
				c-0.5-0.1-1-0.3-1.4-0.4c-0.1,0-0.1,0-0.2,0c-0.4-0.1-0.9-0.2-1.4-0.2c-0.1,0-0.3,0-0.4,0c-0.5,0-1-0.1-1.6-0.1H727.3
				c-0.5,0-1.1,0-1.6,0.1c-0.1,0-0.3,0-0.4,0c-0.5,0.1-0.9,0.1-1.4,0.2c-0.1,0-0.1,0-0.2,0c-0.5,0.1-1,0.2-1.4,0.4
				c-0.1,0-0.3,0.1-0.4,0.1c-0.4,0.1-0.8,0.3-1.1,0.4c-0.1,0-0.2,0.1-0.3,0.1c-0.4,0.2-0.8,0.4-1.3,0.6c-0.1,0.1-0.3,0.2-0.4,0.2
				c-0.3,0.2-0.6,0.3-0.9,0.5c-0.1,0.1-0.3,0.2-0.4,0.3c-0.4,0.2-0.7,0.5-1.1,0.8c-0.2,0.1-0.3,0.3-0.4,0.4
				c-0.2,0.2-0.4,0.4-0.6,0.6c-0.1,0.1-0.3,0.3-0.4,0.4c-0.3,0.3-0.6,0.6-0.8,0.9c-0.1,0.2-0.3,0.3-0.4,0.5
				c-0.2,0.2-0.3,0.4-0.5,0.6c-0.1,0.2-0.3,0.4-0.4,0.5c-0.2,0.3-0.4,0.7-0.6,1.1h0c-1.4,2.5-2.2,5.3-2.2,8.4v103.1
				c0,3,0.8,5.9,2.2,8.4c2.9,5.3,8.6,8.9,15.1,8.9h173.2c6.5,0,12.1-3.6,15.1-8.9c1.4-2.5,2.2-5.3,2.2-8.4v-103.1
				C917.7,1555.5,916.9,1552.6,915.5,1550.1z"/>
			<path d="M836.1,1610l80.1-58.9c0.5-0.4,0.6-1,0.3-1.6c-3.3-5.9-9.4-9.5-16.1-9.5H727.3c-6.7,0-12.9,3.6-16.1,9.5
				c-0.3,0.5-0.2,1.2,0.3,1.6l80.1,58.9l-80.1,58.9c-0.5,0.4-0.6,1-0.3,1.6c3.3,5.9,9.4,9.5,16.1,9.5h173.2c6.7,0,12.9-3.6,16.1-9.5
				c0.3-0.5,0.2-1.2-0.3-1.6L836.1,1610z M727.3,1542.5h173.2c5.5,0,10.5,2.8,13.5,7.3l-91.4,67.3l-8.6,6.3l-100-73.6
				C716.7,1545.2,721.8,1542.5,727.3,1542.5z M900.4,1677.6H727.2c-5.5,0-10.5-2.8-13.5-7.3l79.6-58.6l19.7,14.2l0,0c0,0,0,0,0,0
				l0,0c0.1,0,0.1,0.1,0.2,0.1c0.1,0,0.1,0.1,0.2,0.1c0.1,0,0.2,0.1,0.4,0.1c0,0,0,0,0,0l0,0c0.3,0,0.5-0.1,0.7-0.2l19.5-14.4
				l79.8,58.7C910.9,1674.8,905.9,1677.6,900.4,1677.6z"/>
		</g>
		<g>
			<path fill="#F8C44E" d="M2291.9,1666.3c0,7.6-6.1,13.7-13.7,13.7h-265.7c-7.6,0-13.7-6.1-13.7-13.7v-168.9
				c0-7.6,6.1-13.7,13.7-13.7h265.7c7.6,0,13.7,6.1,13.7,13.7V1666.3z"/>
			<g>
				<path d="M2278.2,1681.2h-265.7c-8.2,0-14.9-6.7-14.9-14.9v-168.9c0-8.2,6.7-14.9,14.9-14.9h265.7c8.2,0,14.9,6.7,14.9,14.9
					v168.9C2293.1,1674.5,2286.4,1681.2,2278.2,1681.2z M2012.5,1484.9c-6.9,0-12.5,5.6-12.5,12.5v168.9c0,6.9,5.6,12.5,12.5,12.5
					h265.7c6.9,0,12.5-5.6,12.5-12.5v-168.9c0-6.9-5.6-12.5-12.5-12.5H2012.5z"/>
			</g>
			<path fill="#6598B2" d="M2272.4,1501.6c0,5.8-4.7,10.5-10.5,10.5l0,0c-5.8,0-10.5-4.7-10.5-10.5v-31.3c0-5.8,4.7-10.5,10.5-10.5
				l0,0c5.8,0,10.5,4.7,10.5,10.5V1501.6z"/>
			<path fill="#6598B2" d="M2039.3,1501.6c0,5.8-4.7,10.5-10.5,10.5l0,0c-5.8,0-10.5-4.7-10.5-10.5v-31.3c0-5.8,4.7-10.5,10.5-10.5
				l0,0c5.8,0,10.5,4.7,10.5,10.5V1501.6z"/>
			<path fill="#B6DFF4" d="M2208.9,1532.6c0,5.4-4.4,9.8-9.8,9.8H2028c-5.4,0-9.8-4.4-9.8-9.8l0,0c0-5.4,4.4-9.8,9.8-9.8h171.1
				C2204.5,1522.9,2208.9,1527.3,2208.9,1532.6L2208.9,1532.6z"/>
			<g>
				
					<circle fill="none" stroke="#FFFFFF" stroke-width="2.126" stroke-linecap="round" stroke-linejoin="round" stroke-miterlimit="10" cx="2030.3" cy="1569.8" r="12"/>
				
					<circle fill="none" stroke="#FFFFFF" stroke-width="2.126" stroke-linecap="round" stroke-linejoin="round" stroke-miterlimit="10" cx="2076.3" cy="1569.8" r="12"/>
				
					<circle fill="none" stroke="#FFFFFF" stroke-width="2.126" stroke-linecap="round" stroke-linejoin="round" stroke-miterlimit="10" cx="2122.3" cy="1569.8" r="12"/>
				
					<circle fill="none" stroke="#FFFFFF" stroke-width="2.126" stroke-linecap="round" stroke-linejoin="round" stroke-miterlimit="10" cx="2168.3" cy="1569.8" r="12"/>
				
					<circle fill="none" stroke="#FFFFFF" stroke-width="2.126" stroke-linecap="round" stroke-linejoin="round" stroke-miterlimit="10" cx="2214.3" cy="1569.8" r="12"/>
				
					<circle fill="none" stroke="#FFFFFF" stroke-width="2.126" stroke-linecap="round" stroke-linejoin="round" stroke-miterlimit="10" cx="2260.3" cy="1569.8" r="12"/>
				
					<circle fill="none" stroke="#FFFFFF" stroke-width="2.126" stroke-linecap="round" stroke-linejoin="round" stroke-miterlimit="10" cx="2030.3" cy="1607.1" r="12"/>
				
					<circle fill="none" stroke="#FFFFFF" stroke-width="2.126" stroke-linecap="round" stroke-linejoin="round" stroke-miterlimit="10" cx="2076.3" cy="1607.1" r="12"/>
				
					<circle fill="none" stroke="#FFFFFF" stroke-width="2.126" stroke-linecap="round" stroke-linejoin="round" stroke-miterlimit="10" cx="2122.3" cy="1607.1" r="12"/>
				
					<circle fill="none" stroke="#FFFFFF" stroke-width="2.126" stroke-linecap="round" stroke-linejoin="round" stroke-miterlimit="10" cx="2168.3" cy="1607.1" r="12"/>
				
					<circle fill="none" stroke="#FFFFFF" stroke-width="2.126" stroke-linecap="round" stroke-linejoin="round" stroke-miterlimit="10" cx="2214.3" cy="1607.1" r="12"/>
				
					<circle fill="none" stroke="#FFFFFF" stroke-width="2.126" stroke-linecap="round" stroke-linejoin="round" stroke-miterlimit="10" cx="2260.3" cy="1607.1" r="12"/>
				
					<circle fill="none" stroke="#FFFFFF" stroke-width="2.126" stroke-linecap="round" stroke-linejoin="round" stroke-miterlimit="10" cx="2030.3" cy="1644.4" r="12"/>
				
					<circle fill="none" stroke="#FFFFFF" stroke-width="2.126" stroke-linecap="round" stroke-linejoin="round" stroke-miterlimit="10" cx="2076.3" cy="1644.4" r="12"/>
				
					<circle fill="none" stroke="#FFFFFF" stroke-width="2.126" stroke-linecap="round" stroke-linejoin="round" stroke-miterlimit="10" cx="2122.3" cy="1644.4" r="12"/>
				
					<circle fill="none" stroke="#FFFFFF" stroke-width="2.126" stroke-linecap="round" stroke-linejoin="round" stroke-miterlimit="10" cx="2168.3" cy="1644.4" r="12"/>
				
					<circle fill="none" stroke="#FFFFFF" stroke-width="2.126" stroke-linecap="round" stroke-linejoin="round" stroke-miterlimit="10" cx="2214.3" cy="1644.4" r="12"/>
				
					<circle fill="none" stroke="#FFFFFF" stroke-width="2.126" stroke-linecap="round" stroke-linejoin="round" stroke-miterlimit="10" cx="2260.3" cy="1644.4" r="12"/>
			</g>
			<g>
				<path fill="#FFFFFF" d="M2267.7,1534.5c-4.7-0.4-9.3-1.5-13.7-3.2l1.2-3c4.1,1.6,8.4,2.6,12.9,3L2267.7,1534.5z M2281.7,1533.9
					l-0.6-3.2c4.3-0.8,8.6-2.2,12.5-4.2l1.4,2.9C2290.9,1531.5,2286.4,1533,2281.7,1533.9z M2241.6,1524.4c-3.8-2.8-7.1-6.2-10-10
					l2.6-2c2.7,3.5,5.8,6.7,9.3,9.3L2241.6,1524.4z M2306.7,1521.4l-2.2-2.4c3.3-3,6.1-6.4,8.4-10.2l2.7,1.7
					C2313.3,1514.6,2310.2,1518.2,2306.7,1521.4z M2224.8,1502.2c-1.7-4.4-2.8-9-3.2-13.7l3.2-0.3c0.4,4.4,1.4,8.7,3,12.8
					L2224.8,1502.2z M2321.4,1497.7l-3.1-0.9c1.2-4.2,1.8-8.6,1.8-13.1c0-3-0.3-5.9-0.8-8.8l3.2-0.6c0.6,3.1,0.9,6.2,0.9,9.4
					C2323.4,1488.5,2322.7,1493.2,2321.4,1497.7z M2225.4,1474.9l-3.2-0.6c0.9-4.6,2.4-9.1,4.5-13.4l2.9,1.4
					C2227.6,1466.4,2226.2,1470.6,2225.4,1474.9z M2315.1,1462.4c-2-4-4.5-7.6-7.5-10.9l2.4-2.2c3.2,3.5,5.9,7.4,8,11.6
					L2315.1,1462.4z M2237.1,1451.5l-2.4-2.2c3.2-3.5,6.8-6.5,10.8-9l1.7,2.7C2243.5,1445.4,2240,1448.3,2237.1,1451.5z
					 M2297.5,1443.1c-3.8-2.3-7.8-4.1-12.1-5.3l0.9-3.1c4.5,1.3,8.9,3.2,12.9,5.7L2297.5,1443.1z M2259.3,1437.8l-0.9-3.1
					c4.5-1.3,9.2-1.9,14-1.9v3.2C2267.9,1435.9,2263.5,1436.6,2259.3,1437.8z"/>
			</g>
		</g>
		<g>
			<g>
				<path fill="#6598B2" d="M1354.4,543.8v10.9v19c0,6.5,5.2,11.7,11.7,11.7h6.2v11.5c0,3.9,3.2,7.1,7.1,7.1h20.6h20.6
					c3.9,0,7.1-3.2,7.1-7.1v-11.5h6.2c6.4,0,11.7-5.2,11.7-11.7v-19v-10.9H1354.4z"/>
				<path fill="#F8C44E" d="M1400,379.4c-41.5,0-75.1,33.6-75.1,75.1c0,19.8,7.7,37.8,20.2,51.3c4.7,5,9.2,13.9,9.2,20.8v17.4h91.3
					v-17.4c0-6.9,4.5-15.7,9.2-20.8c12.6-13.4,20.2-31.4,20.2-51.3C1475.1,413,1441.5,379.4,1400,379.4z"/>
				<circle fill="#FFFFFF" cx="1400" cy="471.7" r="6.8"/>
				<g>
					<rect x="1398.4" y="482.4" fill="#FFFFFF" width="3.2" height="61.4"/>
				</g>
				<g>
					<rect x="1366.8" y="470.8" fill="#FFFFFF" width="19.1" height="3.2"/>
				</g>
				<g>
					<rect x="1414.1" y="470.8" fill="#FFFFFF" width="19.1" height="3.2"/>
				</g>
				<g>
					
						<rect x="1381.6" y="479.6" transform="matrix(0.7072 0.707 -0.707 0.7072 750.9084 -834.7728)" fill="#FFFFFF" width="3.2" height="19.1"/>
				</g>
				<g>
					
						<rect x="1415.1" y="446.2" transform="matrix(0.7071 0.7071 -0.7071 0.7071 737.1899 -868.3007)" fill="#FFFFFF" width="3.2" height="19.1"/>
				</g>
				<g>
					<rect x="1398.4" y="439.2" fill="#FFFFFF" width="3.2" height="19.1"/>
				</g>
				<g>
					
						<rect x="1407.2" y="487.6" transform="matrix(0.7071 0.7071 -0.7071 0.7071 760.8995 -858.5247)" fill="#FFFFFF" width="19.1" height="3.2"/>
				</g>
				<g>
					
						<rect x="1373.7" y="454.1" transform="matrix(0.7071 0.7071 -0.7071 0.7071 727.3427 -844.6166)" fill="#FFFFFF" width="19.1" height="3.2"/>
				</g>
				<path d="M1353.1,542.6v10.9v2.4v17.8c0,7.1,5.8,12.9,12.9,12.9h5v10.3c0,4.6,3.7,8.3,8.3,8.3h41.3c4.6,0,8.3-3.7,8.3-8.3v-10.3
					h5c7.1,0,12.9-5.8,12.9-12.9v-17.8v-2.4v-10.9H1353.1z M1426.5,596.9c0,3.2-2.6,5.9-5.9,5.9h-41.3c-3.2,0-5.9-2.6-5.9-5.9v-10.3
					h53V596.9z M1444.4,573.7c0,5.8-4.7,10.5-10.5,10.5h-5h-57.9h-5c-5.8,0-10.5-4.7-10.5-10.5v-17.8h88.8V573.7z M1355.6,553.5
					v-8.4h88.8v8.4H1355.6z"/>
			</g>
			<g>
				<g>
					<rect x="1398.4" y="827" width="3.2" height="6.8"/>
				</g>
				<g>
					<path d="M1401.6,814.2h-3.2v-12.8h3.2V814.2z M1401.6,788.6h-3.2v-12.8h3.2V788.6z M1401.6,763h-3.2v-12.8h3.2V763z
						 M1401.6,737.5h-3.2v-12.8h3.2V737.5z M1401.6,711.9h-3.2v-12.8h3.2V711.9z M1401.6,686.3h-3.2v-12.8h3.2V686.3z M1401.6,660.7
						h-3.2V648h3.2V660.7z"/>
				</g>
				<g>
					<rect x="1398.4" y="628.3" width="3.2" height="6.8"/>
				</g>
			</g>
			<g>
				<rect x="1513" y="455.4" fill="#FFFFFF" width="77.9" height="3.2"/>
			</g>
			<g>
				<rect x="1209.1" y="455.4" fill="#FFFFFF" width="77.9" height="3.2"/>
			</g>
			<g>
				
					<rect x="1505.8" y="310.7" transform="matrix(0.707 0.7072 -0.7072 0.707 688.8768 -963.5957)" fill="#FFFFFF" width="3.2" height="77.9"/>
			</g>
			<g>
				
					<rect x="1291" y="525.5" transform="matrix(0.7073 0.707 -0.707 0.7073 777.4503 -748.5476)" fill="#FFFFFF" width="3.2" height="77.9"/>
			</g>
			<g>
				<rect x="1398.4" y="266.2" fill="#FFFFFF" width="3.2" height="77.9"/>
			</g>
			<g>
				
					<rect x="1253.6" y="348" transform="matrix(0.7071 0.7071 -0.7071 0.7071 625.7925 -811.5771)" fill="#FFFFFF" width="77.9" height="3.2"/>
			</g>
			<g>
				
					<rect x="1468.5" y="562.9" transform="matrix(0.7071 0.7071 -0.7071 0.7071 840.6455 -900.5743)" fill="#FFFFFF" width="77.9" height="3.2"/>
			</g>
		</g>
		<g>
			<g>
				<path fill="#F8C44E" d="M1073.7,1139.2v-28.5h56.1c8.7,0,15.7,7,15.7,15.7v28.5h-56.1
					C1080.7,1154.9,1073.7,1147.8,1073.7,1139.2z"/>
				<path fill="#F8C44E" d="M820.2,1110.7h253.5v28.5c0,8.7,7,15.7,15.7,15.7h56.1v87.8c0,8.7-7,15.7-15.7,15.7h-43.9v58.4l-52-58.4
					H820.2c-8.7,0-15.7-7-15.7-15.7v-116.3C804.5,1117.7,811.6,1110.7,820.2,1110.7z"/>
				<path fill="#FFFFFF" d="M871.2,1167.7c0,3.4,2.7,6.1,6.1,6.1h164.1c3.4,0,6.1-2.7,6.1-6.1l0,0c0-3.4-2.7-6.1-6.1-6.1H877.3
					C873.9,1161.6,871.2,1164.3,871.2,1167.7L871.2,1167.7z"/>
				<path fill="#FFFFFF" d="M871.2,1192.9c0,3.4,2.7,6.1,6.1,6.1h164.1c3.4,0,6.1-2.7,6.1-6.1l0,0c0-3.4-2.7-6.1-6.1-6.1H877.3
					C873.9,1186.8,871.2,1189.6,871.2,1192.9L871.2,1192.9z"/>
				<path fill="#FFFFFF" d="M871.2,1221.7c0,3.4,2.7,6.1,6.1,6.1h164.1c3.4,0,6.1-2.7,6.1-6.1l0,0c0-3.4-2.7-6.1-6.1-6.1H877.3
					C873.9,1215.6,871.2,1218.4,871.2,1221.7L871.2,1221.7z"/>
				<path d="M1129.8,1109.5h-57.3v29.7c0,9.3,7.6,16.9,16.9,16.9h54.9v86.6c0,8-6.5,14.5-14.5,14.5h-45.1v56.4l-50.3-56.4H820.2
					c-8,0-14.5-6.5-14.5-14.5h-2.4c0,9.3,7.6,16.9,16.9,16.9h213l53.8,60.4v-60.4h42.7c9.3,0,16.9-7.6,16.9-16.9v-86.6v-1.2v-28.5
					C1146.7,1117.1,1139.1,1109.5,1129.8,1109.5z M1074.9,1139.2v-27.2h54.9c8,0,14.5,6.5,14.5,14.5v27.2h-54.9
					C1081.4,1153.7,1074.9,1147.2,1074.9,1139.2z"/>
			</g>
			<g>
				<path fill="#FFFFFF" d="M799.8,1164.6c-4.7-0.4-9.3-1.5-13.7-3.2l1.2-3c4.1,1.6,8.4,2.6,12.9,3L799.8,1164.6z M813.9,1163.9
					l-0.6-3.2c4.3-0.8,8.6-2.2,12.5-4.2l1.4,2.9C823,1161.6,818.5,1163.1,813.9,1163.9z M773.8,1154.5c-3.8-2.8-7.1-6.2-10-10l2.6-2
					c2.7,3.5,5.8,6.7,9.3,9.3L773.8,1154.5z M838.9,1151.5l-2.2-2.4c3.3-3,6.1-6.4,8.4-10.2l2.8,1.7
					C845.4,1144.7,842.4,1148.3,838.9,1151.5z M756.9,1132.2c-1.7-4.4-2.8-9-3.2-13.7l3.2-0.3c0.4,4.4,1.4,8.7,3,12.8L756.9,1132.2z
					 M853.6,1127.8l-3.1-0.9c1.2-4.2,1.8-8.6,1.8-13.1c0-3-0.3-5.9-0.8-8.8l3.2-0.6c0.6,3.1,0.9,6.2,0.9,9.4
					C855.5,1118.5,854.9,1123.2,853.6,1127.8z M757.6,1105l-3.2-0.6c0.9-4.6,2.4-9.1,4.5-13.4l2.9,1.4
					C759.8,1096.5,758.4,1100.7,757.6,1105z M847.3,1092.5c-2-4-4.5-7.6-7.5-10.9l2.4-2.2c3.2,3.5,5.9,7.4,8,11.6L847.3,1092.5z
					 M769.2,1081.6l-2.4-2.2c3.2-3.5,6.8-6.5,10.8-9l1.7,2.7C775.6,1075.5,772.2,1078.3,769.2,1081.6z M829.7,1073.2
					c-3.8-2.3-7.8-4.1-12.1-5.3l0.9-3.1c4.5,1.3,8.9,3.2,12.9,5.7L829.7,1073.2z M791.4,1067.8l-0.9-3.1c4.5-1.3,9.2-1.9,14-1.9v3.2
					C800.1,1066,795.7,1066.6,791.4,1067.8z"/>
			</g>
		</g>
		<g>
			<g>
				<g>
					<path fill="#6598B2" d="M938.8,1299.9h-67.6c-0.7,0-1.2-0.5-1.2-1.2s0.5-1.2,1.2-1.2h67.6c0.7,0,1.2,0.5,1.2,1.2
						S939.5,1299.9,938.8,1299.9z"/>
				</g>
				<g>
					<path fill="#6598B2" d="M1039.3,1335.7H905c-0.7,0-1.2-0.5-1.2-1.2s0.5-1.2,1.2-1.2h134.2c0.7,0,1.2,0.5,1.2,1.2
						S1039.9,1335.7,1039.3,1335.7z"/>
				</g>
				<g>
					<path fill="#6598B2" d="M849.4,1428.7c-0.7,0-1.2-0.5-1.2-1.2v-65.8c0-0.7,0.5-1.2,1.2-1.2s1.2,0.5,1.2,1.2v65.8
						C850.6,1428.1,850,1428.7,849.4,1428.7z"/>
				</g>
				<g>
					<path fill="#6598B2" d="M1182.6,1079.5H984c-0.7,0-1.2-0.5-1.2-1.2s0.5-1.2,1.2-1.2h198.5c0.7,0,1.2,0.5,1.2,1.2
						S1183.2,1079.5,1182.6,1079.5z"/>
				</g>
				<g>
					<path fill="#6598B2" d="M1308.6,1194.2h-109.7c-0.7,0-1.2-0.5-1.2-1.2s0.5-1.2,1.2-1.2h109.7c0.7,0,1.2,0.5,1.2,1.2
						S1309.3,1194.2,1308.6,1194.2z"/>
				</g>
				<g>
					<path fill="#6598B2" d="M1234.7,1139.9h-69.6c-0.7,0-1.2-0.5-1.2-1.2s0.5-1.2,1.2-1.2h69.6c0.7,0,1.2,0.5,1.2,1.2
						S1235.4,1139.9,1234.7,1139.9z"/>
				</g>
				<g>
					<path fill="#6598B2" d="M768.3,1210.6H625.4c-0.7,0-1.2-0.5-1.2-1.2c0-0.7,0.5-1.2,1.2-1.2h142.9c0.7,0,1.2,0.5,1.2,1.2
						C769.6,1210,769,1210.6,768.3,1210.6z"/>
				</g>
				<g>
					<path fill="#6598B2" d="M768.3,1235.3h-75.4c-0.7,0-1.2-0.5-1.2-1.2c0-0.7,0.5-1.2,1.2-1.2h75.4c0.7,0,1.2,0.5,1.2,1.2
						C769.6,1234.8,769,1235.3,768.3,1235.3z"/>
				</g>
				<g>
					<path fill="#6598B2" d="M2064.3,1121.7h-200.1c-0.7,0-1.2-0.5-1.2-1.2s0.5-1.2,1.2-1.2h200.1c0.7,0,1.2,0.5,1.2,1.2
						S2064.9,1121.7,2064.3,1121.7z"/>
				</g>
				<g>
					<path fill="#6598B2" d="M2142.7,1079.5h-203.5c-0.7,0-1.2-0.5-1.2-1.2s0.5-1.2,1.2-1.2h203.5c0.7,0,1.2,0.5,1.2,1.2
						S2143.4,1079.5,2142.7,1079.5z"/>
				</g>
				<g>
					<path fill="#6598B2" d="M2293.1,1361.7c-0.7,0-1.2-0.5-1.2-1.2v-98.4c0-0.7,0.5-1.2,1.2-1.2s1.2,0.5,1.2,1.2v98.4
						C2294.3,1361.2,2293.7,1361.7,2293.1,1361.7z"/>
				</g>
			</g>
		</g>
		
			<line fill="none" stroke="#000000" stroke-width="2.126" stroke-linecap="round" stroke-linejoin="round" stroke-miterlimit="10" x1="1512.5" y1="809.3" x2="1512.5" y2="724.9"/>
	</g>
</g>
</svg>
