<?xml version="1.0" encoding="utf-8"?>
<!-- Generator: Adobe Illustrator 14.0.0, SVG Export Plug-In . SVG Version: 6.00 Build 43363)  -->
<!DOCTYPE svg PUBLIC "-//W3C//DTD SVG 1.1//EN" "http://www.w3.org/Graphics/SVG/1.1/DTD/svg11.dtd">
<svg version="1.1" xmlns="http://www.w3.org/2000/svg" xmlns:xlink="http://www.w3.org/1999/xlink" x="0px" y="0px" width="2272px"
	 height="1872px" viewBox="0 0 2272 1872" enable-background="new 0 0 2272 1872" xml:space="preserve">
<g id="Background">
	<radialGradient id="SVGID_1_" cx="1136" cy="936" r="1040.8151" gradientUnits="userSpaceOnUse">
		<stop  offset="0.7961" style="stop-color:#FEFEFE"/>
		<stop  offset="1" style="stop-color:#F4FEF4"/>
	</radialGradient>
	<rect fill="url(#SVGID_1_)" width="2272" height="1872"/>
</g>
<g id="The_Bookworm">
	<g>
		<g>
			<g>
				<path fill="#327F97" d="M1914.053,977.477v14.538h-624.828v89.044h624.828v12.72h-627.479
					c-24.447,0-44.266-16.888-44.266-37.721v-40.86c0-20.832,19.818-37.721,44.266-37.721H1914.053z"/>
				<path fill="#2A6977" d="M1276.136,1081.059h609.387c1.624,0,2.94-1.317,2.94-2.941v-83.162c0-1.624-1.316-2.94-2.94-2.94
					h-609.387c-9.26,0-16.767,7.507-16.767,16.767v55.51C1259.369,1073.551,1266.876,1081.059,1276.136,1081.059z"/>
				<g>
					<rect x="1293.372" y="992.015" fill="#F2F5EA" width="603.05" height="89.044"/>
					<g>
						<rect x="1293.372" y="997.466" fill="#E0E0E0" width="603.05" height="5.452"/>
						<rect x="1293.372" y="1012.004" fill="#E0E0E0" width="603.05" height="5.451"/>
						<rect x="1293.372" y="1026.542" fill="#E0E0E0" width="603.05" height="5.451"/>
						<rect x="1293.372" y="1041.079" fill="#E0E0E0" width="603.05" height="5.452"/>
						<rect x="1293.372" y="1055.617" fill="#E0E0E0" width="603.05" height="5.451"/>
						<rect x="1293.372" y="1070.154" fill="#E0E0E0" width="603.05" height="5.452"/>
					</g>
				</g>
			</g>
			<g>
				<g>
					<rect x="1808.492" y="1109.82" fill="#F2F5EA" width="140.798" height="98.255"/>
					<g>
						<rect x="1808.492" y="1115.836" fill="#E0E0E0" width="140.798" height="6.016"/>
						<rect x="1808.492" y="1131.878" fill="#E0E0E0" width="140.798" height="6.016"/>
						<rect x="1808.492" y="1147.919" fill="#E0E0E0" width="140.798" height="6.016"/>
						<rect x="1808.492" y="1163.961" fill="#E0E0E0" width="140.798" height="6.016"/>
						<rect x="1808.492" y="1180.003" fill="#E0E0E0" width="140.798" height="6.016"/>
						<rect x="1808.492" y="1196.044" fill="#E0E0E0" width="140.798" height="6.016"/>
					</g>
				</g>
				<path fill="#2D2D2A" d="M1351.686,1093.778h477.666h73.358h57.01v16.042h-82.145c-1.266,0-2.432,0.764-3.106,1.999
					c-3.243,5.93-5.138,12.936-5.138,20.465v53.327c0,4.358,0.657,8.532,1.814,12.438c0.816,2.759,1.903,5.373,3.212,7.811
					c0.056,0.104,0.108,0.211,0.165,0.314c0.004,0.006,0.008,0.013,0.011,0.02c0.654,1.189,1.813,1.881,3.034,1.881h82.152v16.042
					h-57.01h-73.358h-477.666c-18.436,0-33.38-17.24-33.38-38.506v-26.068v-27.259
					C1318.306,1111.019,1333.25,1093.778,1351.686,1093.778z"/>
				<g>
					<path fill="#474743" d="M1334.303,1093.778h551.025c-18.436,0-33.38,17.24-33.38,38.506v53.327
						c0,21.266,14.944,38.506,33.38,38.506h-551.025c-18.435,0-33.379-17.24-33.379-38.506v-53.327
						C1300.924,1111.019,1315.868,1093.778,1334.303,1093.778z"/>
					<path fill="#2D2D2A" d="M1334.303,1198.05h519.459c4.488,15.154,16.909,26.067,31.566,26.067h-551.025
						c-18.435,0-33.379-17.24-33.379-38.506v-26.068C1300.924,1180.81,1315.868,1198.05,1334.303,1198.05z"/>
				</g>
				<rect x="1592.304" y="1093.778" fill="#B8CCCA" width="61.484" height="130.339"/>
			</g>
			<g>
				<g>
					<rect x="1280.703" y="1243.57" fill="#F2F5EA" width="149.564" height="114.883"/>
					<g>
						<rect x="1280.703" y="1250.604" fill="#E0E0E0" width="149.564" height="7.033"/>
						<rect x="1280.703" y="1269.359" fill="#E0E0E0" width="149.564" height="7.034"/>
						<rect x="1280.703" y="1288.116" fill="#E0E0E0" width="149.564" height="7.034"/>
						<rect x="1280.703" y="1306.873" fill="#E0E0E0" width="149.564" height="7.033"/>
						<rect x="1280.703" y="1325.629" fill="#E0E0E0" width="149.564" height="7.034"/>
						<rect x="1280.703" y="1344.386" fill="#E0E0E0" width="149.564" height="7.033"/>
					</g>
				</g>
				<path fill="#5FA098" d="M1915.519,1224.813H1408.11h-77.927h-60.56v18.757h87.259c1.344,0,2.583,0.893,3.301,2.337
					c3.445,6.933,5.457,15.124,5.457,23.929v62.351c0,5.097-0.698,9.977-1.927,14.544c-0.868,3.227-2.022,6.282-3.412,9.132
					c-0.06,0.122-0.116,0.247-0.177,0.368c-0.003,0.008-0.007,0.015-0.011,0.022c-0.694,1.391-1.926,2.2-3.223,2.2h-87.268v18.756
					h60.56h77.927h507.408c19.583,0,35.458-20.157,35.458-45.021v-30.479v-31.872
					C1950.977,1244.971,1935.102,1224.813,1915.519,1224.813z"/>
				<path fill="#01A99C" d="M1933.983,1224.813h-585.336c19.583,0,35.458,20.157,35.458,45.022v62.351
					c0,24.865-15.875,45.022-35.458,45.022h585.336c19.583,0,35.458-20.157,35.458-45.022v-62.351
					C1969.441,1244.971,1953.566,1224.813,1933.983,1224.813z"/>
				<path fill="#3A7D76" d="M1933.983,1346.73h-551.805c-4.768,17.719-17.962,30.479-33.531,30.479h585.336
					c19.583,0,35.458-20.157,35.458-45.022v-30.479C1969.441,1326.573,1953.566,1346.73,1933.983,1346.73z"/>
				<path fill="#3A7D76" d="M1933.983,1255.293h-551.805c-4.768-17.719-17.962-30.479-33.531-30.479h585.336
					c19.583,0,35.458,20.157,35.458,45.022v30.479C1969.441,1275.45,1953.566,1255.293,1933.983,1255.293z"/>
				<path fill="#B8CCCA" d="M1811.945,1330.318h-257.418c-4.38,0-7.931-3.551-7.931-7.931v-45.097c0-4.381,3.551-7.932,7.931-7.932
					h257.418c4.38,0,7.931,3.551,7.931,7.932v45.097C1819.876,1326.768,1816.325,1330.318,1811.945,1330.318z"/>
			</g>
		</g>
		<g>
			<g>
				<path fill="#FCB13C" d="M1210.838,654.189l-18.177,1.41l51.63,665.729l-111.333,8.635l-51.631-665.729l-15.905,1.233
					l51.85,668.552c2.02,26.048,24.773,45.525,50.82,43.506l51.089-3.963c26.048-2.02,45.525-24.773,43.506-50.82L1210.838,654.189z
					"/>
				<path fill="#D18D33" d="M1134.128,1345.055l-50.459-650.625c-0.125-1.619,1.085-3.034,2.705-3.159l105.47-8.18
					c1.619-0.125,3.033,1.085,3.159,2.705l50.459,650.624c0.716,9.232-6.188,17.298-15.421,18.014l-77.898,6.041
					C1142.909,1361.191,1134.845,1354.287,1134.128,1345.055z"/>
				<g>
					
						<rect x="853.132" y="925.586" transform="matrix(0.0773 0.997 -0.997 0.0773 2050.5664 -252.9158)" fill="#F2F5EA" width="617.592" height="111.667"/>
					<g>
						
							<rect x="898.575" y="974.477" transform="matrix(0.0773 0.997 -0.997 0.0773 2088.9792 -301.4753)" fill="#E0E0E0" width="617.592" height="6.837"/>
						
							<rect x="880.398" y="975.887" transform="matrix(0.0773 0.997 -0.997 0.0773 2073.6147 -282.0505)" fill="#E0E0E0" width="617.591" height="6.837"/>
						
							<rect x="862.221" y="977.297" transform="matrix(0.0773 0.997 -0.997 0.0773 2058.2493 -262.6272)" fill="#E0E0E0" width="617.592" height="6.837"/>
						
							<rect x="844.044" y="978.706" transform="matrix(0.0773 0.997 -0.997 0.0773 2042.8832 -243.2045)" fill="#E0E0E0" width="617.591" height="6.837"/>
						
							<rect x="825.867" y="980.116" transform="matrix(0.0773 0.997 -0.997 0.0773 2027.5176 -223.7813)" fill="#E0E0E0" width="617.591" height="6.837"/>
						
							<rect x="807.69" y="981.526" transform="matrix(0.0773 0.997 -0.997 0.0773 2012.1514 -204.3582)" fill="#E0E0E0" width="617.591" height="6.836"/>
					</g>
				</g>
			</g>
			<g>
				<g>
					<path fill="#48BCD5" d="M1015.895,949.418v18.231H450.751v111.668h565.144v15.952H448.354
						c-22.112,0-40.037-21.179-40.037-47.305v-51.242c0-26.126,17.925-47.305,40.037-47.305H1015.895z"/>
					<path fill="#3895A5" d="M440.515,1079.317h549.293c1.624,0,2.94-1.317,2.94-2.94V970.59c0-1.624-1.316-2.94-2.94-2.94H440.515
						c-9.26,0-16.767,7.507-16.767,16.768v78.133C423.748,1071.811,431.255,1079.317,440.515,1079.317z"/>
					<g>
						<rect x="481.612" y="967.649" fill="#F2F5EA" width="522.71" height="111.668"/>
						<g>
							<rect x="481.612" y="974.486" fill="#E0E0E0" width="522.71" height="6.837"/>
							<rect x="481.612" y="992.718" fill="#E0E0E0" width="522.71" height="6.837"/>
							<rect x="481.612" y="1010.949" fill="#E0E0E0" width="522.71" height="6.837"/>
							<rect x="481.612" y="1029.181" fill="#E0E0E0" width="522.71" height="6.837"/>
							<rect x="481.612" y="1047.412" fill="#E0E0E0" width="522.71" height="6.837"/>
							<rect x="481.612" y="1065.644" fill="#E0E0E0" width="522.71" height="6.837"/>
						</g>
					</g>
				</g>
				<g>
					<path fill="#0E0D10" d="M1089.103,838.395v14.538H464.274v89.044h624.829v12.721H461.624
						c-24.447,0-44.266-16.889-44.266-37.721v-40.86c0-20.833,19.818-37.721,44.266-37.721H1089.103z"/>
					<path fill="#0E0D10" d="M451.186,941.977h609.386c1.624,0,2.94-1.316,2.94-2.94v-83.163c0-1.624-1.316-2.941-2.94-2.941
						H451.186c-9.26,0-16.767,7.507-16.767,16.768v55.509C434.419,934.47,441.926,941.977,451.186,941.977z"/>
					<g>
						<rect x="468.421" y="852.933" fill="#F2F5EA" width="603.05" height="89.044"/>
						<g>
							<rect x="468.421" y="858.384" fill="#E0E0E0" width="603.05" height="5.452"/>
							<rect x="468.421" y="872.922" fill="#E0E0E0" width="603.05" height="5.452"/>
							<rect x="468.421" y="887.46" fill="#E0E0E0" width="603.05" height="5.452"/>
							<rect x="468.421" y="901.998" fill="#E0E0E0" width="603.05" height="5.451"/>
							<rect x="468.421" y="916.536" fill="#E0E0E0" width="603.05" height="5.452"/>
							<rect x="468.421" y="931.073" fill="#E0E0E0" width="603.05" height="5.452"/>
						</g>
					</g>
				</g>
				<g>
					<g>
						<rect x="339.948" y="1111.312" fill="#F2F5EA" width="162.422" height="98.255"/>
						<g>
							<rect x="339.948" y="1117.327" fill="#E0E0E0" width="162.422" height="6.016"/>
							<rect x="339.948" y="1133.369" fill="#E0E0E0" width="162.422" height="6.015"/>
							<rect x="339.948" y="1149.41" fill="#E0E0E0" width="162.422" height="6.016"/>
							<rect x="339.948" y="1165.452" fill="#E0E0E0" width="162.422" height="6.016"/>
							<rect x="339.948" y="1181.493" fill="#E0E0E0" width="162.422" height="6.016"/>
							<rect x="339.948" y="1197.535" fill="#E0E0E0" width="162.422" height="6.016"/>
						</g>
					</g>
					<path fill="#D7796E" d="M1029.333,1095.27H478.308h-84.625h-65.765v16.042h94.76c1.459,0,2.805,0.764,3.584,1.998
						c3.741,5.931,5.927,12.937,5.927,20.466v53.326c0,4.359-0.758,8.533-2.093,12.439c-0.943,2.759-2.196,5.373-3.706,7.811
						c-0.065,0.104-0.125,0.211-0.191,0.314c-0.004,0.006-0.008,0.013-0.012,0.02c-0.754,1.189-2.091,1.881-3.5,1.881h-94.769
						v16.042h65.765h84.625h551.025c21.266,0,38.506-17.24,38.506-38.506v-26.068v-27.259
						C1067.839,1112.51,1050.599,1095.27,1029.333,1095.27z"/>
					<g>
						<path fill="#D6145B" d="M1049.385,1095.27H413.734c21.266,0,38.506,17.24,38.506,38.506v53.326
							c0,21.267-17.24,38.507-38.506,38.507h635.651c21.266,0,38.506-17.24,38.506-38.507v-53.326
							C1087.891,1112.51,1070.651,1095.27,1049.385,1095.27z"/>
						<path fill="#AA1352" d="M1049.385,1199.54H450.147c-5.177,15.155-19.505,26.068-36.413,26.068h635.651
							c21.266,0,38.506-17.24,38.506-38.507v-26.067C1087.891,1182.301,1070.651,1199.54,1049.385,1199.54z"/>
					</g>
					<rect x="680.834" y="1095.27" fill="#FCB13C" width="38.099" height="130.339"/>
					<rect x="738.985" y="1095.27" fill="#FCB13C" width="38.099" height="130.339"/>
				</g>
				<g>
					<g>
						<rect x="481.433" y="1244.267" fill="#F2F5EA" width="201.473" height="114.883"/>
						<g>
							<rect x="481.433" y="1251.3" fill="#E0E0E0" width="201.473" height="7.034"/>
							<rect x="481.433" y="1270.057" fill="#E0E0E0" width="201.473" height="7.033"/>
							<rect x="481.433" y="1288.813" fill="#E0E0E0" width="201.473" height="7.034"/>
							<rect x="481.433" y="1307.569" fill="#E0E0E0" width="201.473" height="7.033"/>
							<rect x="481.433" y="1326.325" fill="#E0E0E0" width="201.473" height="7.034"/>
							<rect x="481.433" y="1345.082" fill="#E0E0E0" width="201.473" height="7.033"/>
						</g>
					</g>
					<path fill="#889D9E" d="M1044.072,1225.51H593.365h-69.219h-53.792v18.047h150.638c10.256,0,18.569,9.359,18.569,20.906v74.49
						c0,11.546-8.313,20.905-18.569,20.905H470.354v18.047h53.792h69.219h450.707c17.395,0,31.496-20.157,31.496-45.021v-30.479
						v-31.872C1075.567,1245.667,1061.466,1225.51,1044.072,1225.51z"/>
					<path fill="#BFDBDE" d="M1065.722,1225.51H632.437c14.496,0,26.247,20.157,26.247,45.022v62.351
						c0,24.865-11.751,45.022-26.247,45.022h433.285c14.496,0,26.247-20.157,26.247-45.022v-62.351
						C1091.969,1245.667,1080.218,1225.51,1065.722,1225.51z"/>
					<g>
						<path fill="#A9C2C4" d="M1065.722,1347.427H657.258c-3.529,17.719-13.296,30.479-24.821,30.479h433.285
							c14.496,0,26.247-20.157,26.247-45.022v-30.479C1091.969,1327.27,1080.218,1347.427,1065.722,1347.427z"/>
						<path fill="#A9C2C4" d="M1065.722,1255.989H657.258c-3.529-17.72-13.296-30.479-24.821-30.479h433.285
							c14.496,0,26.247,20.157,26.247,45.022v30.479C1091.969,1276.146,1080.218,1255.989,1065.722,1255.989z"/>
					</g>
					<path fill="#686868" d="M865.301,1225.51h-56.066v0.004c12.189,0.044,22.058,9.934,22.058,22.133v108.122
						c0,12.199-9.869,22.09-22.058,22.133v0.004h56.066c12.226,0,22.137-9.911,22.137-22.137v-108.122
						C887.438,1235.421,877.526,1225.51,865.301,1225.51z"/>
				</g>
			</g>
		</g>
		<g>
			<g>
				<g>
					<g>
						
							<rect x="344.267" y="295.357" transform="matrix(0.3955 0.9185 -0.9185 0.3955 563.1457 -166.6861)" fill="#F2F5EA" width="127.865" height="98.215"/>
						<g>
							
								<rect x="381.087" y="325.604" transform="matrix(0.3955 0.9185 -0.9185 0.3955 570.8404 -210.0884)" fill="#E0E0E0" width="127.865" height="6.013"/>
							
								<rect x="366.359" y="331.945" transform="matrix(0.3955 0.9185 -0.9185 0.3955 567.7637 -192.7273)" fill="#E0E0E0" width="127.865" height="6.013"/>
							
								<rect x="351.631" y="338.287" transform="matrix(0.3955 0.9185 -0.9185 0.3955 564.6832 -175.3672)" fill="#E0E0E0" width="127.865" height="6.013"/>
							
								<rect x="336.904" y="344.628" transform="matrix(0.3955 0.9185 -0.9185 0.3955 561.6066 -158.0058)" fill="#E0E0E0" width="127.865" height="6.013"/>
							
								<rect x="322.176" y="350.97" transform="matrix(0.3955 0.9185 -0.9185 0.3955 558.5261 -140.6458)" fill="#E0E0E0" width="127.865" height="6.013"/>
							
								<rect x="307.448" y="357.312" transform="matrix(0.3955 0.9185 -0.9185 0.3955 555.4492 -123.2845)" fill="#E0E0E0" width="127.865" height="6.013"/>
						</g>
					</g>
					<path fill="#5FA098" d="M657.381,758.448L485.825,360.023l-26.348-61.189l-20.476-47.552l-14.728,6.342l29.502,68.517
						c0.455,1.056,0.172,2.331-0.719,3.382c-4.279,5.049-10.031,9.399-16.944,12.376l-48.959,21.081
						c-4.002,1.723-8.069,2.825-12.072,3.404c-2.827,0.409-5.616,0.536-8.324,0.408c-0.116-0.006-0.232-0.008-0.348-0.014
						c-0.007,0-0.014-0.001-0.021-0.001c-1.327-0.075-2.378-0.769-2.817-1.787l-29.506-68.523l-14.728,6.341l20.475,47.552
						l26.348,61.189l171.557,398.425c6.621,15.377,27.816,21.027,47.341,12.62l23.933-10.306l25.026-10.776
						C653.542,793.105,664.002,773.825,657.381,758.448z"/>
					<path fill="#01A99C" d="M663.625,772.947L465.72,313.333c6.621,15.376-3.839,34.657-23.364,43.064l-48.959,21.081
						c-19.524,8.407-40.72,2.757-47.341-12.62l197.904,459.615c6.621,15.376,27.816,21.026,47.341,12.62l48.959-21.081
						C659.785,807.604,670.246,788.324,663.625,772.947z"/>
					<path fill="#3A7D76" d="M567.894,814.167L381.326,380.882c-15.525,2.248-30.005-3.798-35.27-16.024l197.904,459.615
						c6.621,15.376,27.816,21.026,47.341,12.62l23.933-10.305C595.71,835.194,574.515,829.544,567.894,814.167z"/>
					<path fill="#3A7D76" d="M639.692,783.252L453.125,349.966c12.301-9.734,17.859-24.409,12.596-36.634l197.904,459.614
						c6.621,15.377-3.839,34.657-23.364,43.064l-23.933,10.305C635.853,817.909,646.313,798.629,639.692,783.252z"/>
					<path fill="#B8CCCA" d="M539.064,711.735L452.94,511.72c-1.732-4.023,0.125-8.688,4.147-10.42l33.297-14.337
						c4.023-1.732,8.688,0.125,10.42,4.147l86.124,200.015c1.732,4.023-0.125,8.688-4.147,10.421l-33.297,14.337
						C545.461,717.615,540.796,715.758,539.064,711.735z"/>
				</g>
				<g>
					
						<radialGradient id="SVGID_2_" cx="1007.9131" cy="768.001" r="62.5605" gradientTransform="matrix(0.9998 0.0211 -0.0211 0.9998 11.3535 -12.9858)" gradientUnits="userSpaceOnUse">
						<stop  offset="0.5559" style="stop-color:#D6E021"/>
						<stop  offset="0.9134" style="stop-color:#B8CD2E"/>
					</radialGradient>
					<circle fill="url(#SVGID_2_)" cx="1002.86" cy="776.129" r="62.562"/>
					
						<radialGradient id="SVGID_3_" cx="910.0352" cy="744.7949" r="86.7781" gradientTransform="matrix(0.9998 0.0211 -0.0211 0.9998 11.3535 -12.9858)" gradientUnits="userSpaceOnUse">
						<stop  offset="0.5559" style="stop-color:#D6E021"/>
						<stop  offset="0.9134" style="stop-color:#B8CD2E"/>
					</radialGradient>
					<circle fill="url(#SVGID_3_)" cx="905.491" cy="750.863" r="86.78"/>
					
						<radialGradient id="SVGID_4_" cx="810.2383" cy="735.3589" r="99.8955" gradientTransform="matrix(0.9998 0.0211 -0.0211 0.9998 11.3535 -12.9858)" gradientUnits="userSpaceOnUse">
						<stop  offset="0.5559" style="stop-color:#D6E021"/>
						<stop  offset="0.9134" style="stop-color:#B8CD2E"/>
					</radialGradient>
					<circle fill="url(#SVGID_4_)" cx="805.913" cy="739.322" r="99.898"/>
					
						<radialGradient id="SVGID_5_" cx="733.4512" cy="717.5552" r="103.9316" gradientTransform="matrix(0.9998 0.0211 -0.0211 0.9998 11.3535 -12.9858)" gradientUnits="userSpaceOnUse">
						<stop  offset="0.5559" style="stop-color:#D6E021"/>
						<stop  offset="0.9134" style="stop-color:#B8CD2E"/>
					</radialGradient>
					<circle fill="url(#SVGID_5_)" cx="729.518" cy="719.902" r="103.934"/>
					
						<radialGradient id="SVGID_6_" cx="696.1143" cy="623.7148" r="121.0854" gradientTransform="matrix(0.9998 0.0211 -0.0211 0.9998 11.3535 -12.9858)" gradientUnits="userSpaceOnUse">
						<stop  offset="0.5559" style="stop-color:#D6E021"/>
						<stop  offset="0.9134" style="stop-color:#B8CD2E"/>
					</radialGradient>
					<circle fill="url(#SVGID_6_)" cx="694.168" cy="625.293" r="121.088"/>
				</g>
				<g>
					<g>
						
							<radialGradient id="SVGID_7_" cx="670.8848" cy="506.8511" r="155.2083" gradientTransform="matrix(0.9998 0.0211 -0.0211 0.9998 11.3535 -12.9858)" gradientUnits="userSpaceOnUse">
							<stop  offset="0.5559" style="stop-color:#D6E021"/>
							<stop  offset="0.9134" style="stop-color:#B8CD2E"/>
						</radialGradient>
						<circle fill="url(#SVGID_7_)" cx="671.41" cy="507.92" r="155.212"/>
						<g>
							<g>
								<g>
									<path fill="#535357" d="M755.679,564.827c-39.006-0.822-70.07-33.225-69.248-72.23
										c0.822-39.006,33.225-70.071,72.23-69.249c39.006,0.822,70.071,33.225,69.249,72.23
										C827.087,534.583,794.685,565.649,755.679,564.827z M758.442,433.718c-33.288-0.702-60.94,25.809-61.642,59.097
										c-0.702,33.288,25.809,60.94,59.097,61.642s60.94-25.809,61.642-59.097C818.241,462.072,791.73,434.419,758.442,433.718z"
										/>
								</g>
								<g>
									<path fill="#535357" d="M585.126,561.231c-38.904-0.82-69.887-33.138-69.067-72.042
										c0.82-38.904,33.138-69.887,72.042-69.067c38.904,0.82,69.887,33.138,69.067,72.042
										C656.348,531.068,624.03,562.052,585.126,561.231z M587.883,430.466c-33.201-0.7-60.781,25.741-61.48,58.942
										c-0.7,33.201,25.741,60.781,58.942,61.48s60.781-25.741,61.48-58.942C647.524,458.746,621.083,431.166,587.883,430.466z"/>
								</g>
							</g>
							<path fill="#535357" d="M524.778,503.269l-12.103-0.255c-3.134-0.066-5.621-2.66-5.555-5.794l0.323-15.317
								c0.066-3.134,2.661-5.621,5.794-5.555l12.103,0.255L524.778,503.269z"/>
							<path fill="#535357" d="M818.107,509.452l12.103,0.255c3.134,0.066,5.728-2.421,5.794-5.555l0.323-15.317
								c0.066-3.134-2.421-5.728-5.555-5.794l-12.103-0.255L818.107,509.452z"/>
							
								<rect x="651.01" y="487.085" transform="matrix(0.9998 0.0211 -0.0211 0.9998 10.5091 -14.0338)" fill="#535357" width="40.008" height="8.891"/>
						</g>
						<circle fill="#565759" cx="586.411" cy="494.336" r="15.64"/>
						<circle fill="#565759" cx="753.879" cy="497.867" r="15.64"/>
						<path fill="#565759" d="M649.059,562.775c0,0,4.768,13.222,19.9,13.541c15.132,0.319,20.453-12.69,20.453-12.69
							L649.059,562.775z"/>
					</g>
					<g>
						<g>
							<polygon fill="#363738" points="851.505,372.302 848.693,299.069 850.965,299.011 853.777,372.244 							"/>
						</g>
						<polygon fill="#363738" points="572.576,387.672 682.386,415.112 772.818,391.893 766.247,318.978 578.793,315.026 						"/>
						<polygon fill="#565759" points="495.965,308.234 682.717,345.478 874.601,301.076 662.96,258.262 						"/>
						<path fill="#FCC015" d="M852.705,369.247c0,0-11.467,4.805-10.629,18.952c0.838,14.148,20.13,15.564,20.99,28.703
							C863.066,416.901,867.155,384.69,852.705,369.247z"/>
					</g>
				</g>
				
					<radialGradient id="SVGID_8_" cx="468.9893" cy="716.5864" r="43.0217" gradientTransform="matrix(0.9458 -0.3247 0.3247 0.9458 -214.5774 91.0626)" gradientUnits="userSpaceOnUse">
					<stop  offset="0.5559" style="stop-color:#D6E021"/>
					<stop  offset="0.9134" style="stop-color:#B8CD2E"/>
				</radialGradient>
				<path fill="url(#SVGID_8_)" d="M485.977,650.674l-28.242,9.694c-14.483,4.972-30.254-2.739-35.226-17.222l-8.092-23.574
					c-4.972-14.483,2.739-30.254,17.222-35.226l28.242-9.694c17.641-6.055,36.85,3.336,42.905,20.977l4.167,12.14
					C513.009,625.41,503.618,644.619,485.977,650.674z"/>
				<g>
					
						<radialGradient id="SVGID_9_" cx="846.0996" cy="634.0762" r="77.244" gradientTransform="matrix(0.9998 0.0211 -0.0211 0.9998 11.3535 -12.9858)" gradientUnits="userSpaceOnUse">
						<stop  offset="0.5559" style="stop-color:#D6E021"/>
						<stop  offset="0.9134" style="stop-color:#B8CD2E"/>
					</radialGradient>
					<path fill="url(#SVGID_9_)" d="M877.3,717.278c-19.867-0.418-37.153-15.056-40.249-35.374l-2.742-17.998l-8.077,3.669
						c-20.943,9.519-45.634,0.255-55.15-20.687c-9.517-20.942-0.255-45.634,20.687-55.152l58.192-26.443
						c11.88-5.398,25.602-4.918,37.073,1.298c11.472,6.216,19.369,17.448,21.334,30.348l11.034,72.418
						c3.465,22.74-12.161,43.984-34.902,47.449C882.078,717.175,879.669,717.328,877.3,717.278z"/>
				</g>
			</g>
			<g>
				<g>
					<g>
						<path fill="#683F35" d="M1491.301,650.7c-0.467,0-0.938-0.054-1.411-0.173c-3.101-0.774-4.986-3.918-4.212-7.022
							l17.369-69.475c16.441-65.76-10.409-104.86-10.684-105.247c-1.84-2.606-1.227-6.216,1.374-8.065
							c2.606-1.843,6.2-1.249,8.06,1.352c1.244,1.741,30.297,43.521,12.484,114.771l-17.369,69.475
							C1496.254,648.944,1493.893,650.7,1491.301,650.7z"/>
					</g>
					<path fill="#D0DB24" d="M1508.664,494.382c0,0,5.789-46.317,69.475-57.896s98.423-11.579,110.002-34.737
						c0,0,18.143,58.057-34.623,87.992c-23.503,13.334-52.025,14.634-77.213,4.844
						C1561.883,488.978,1539.335,485.18,1508.664,494.382z"/>
					<path fill="#DC4A30" d="M1549.88,545.778c-24.485,9.791-51.802,8.993-75.71-2.131c-32.238-15.001-83.633-29.573-139.193-8.738
						c-92.633,34.737-121.581,173.687-69.475,295.268c52.105,121.581,127.37,167.897,225.793,138.949c0,0,23.158-11.579,46.316,0
						s121.581,23.158,179.477-75.264c57.896-98.422,138.95-335.795-63.686-370.532
						C1653.402,523.33,1627.563,514.716,1549.88,545.778z"/>
				</g>
				<g>
					<path fill="#E8D98E" d="M1578.675,702.083c0,0-49.378,17.757-67.034,13.641c0,0,2.861,22.458-8.95,47.639
						c-14.588,31.099-26.86,44.698-26.86,44.698c26.86,9.41,45.208,38.816,64.028,75.869c0,0,37.053-13.527,58.813,7.646
						c0,0,44.806-30.583,70.684-21.173l-37.547-144.68L1578.675,702.083z"/>
					<ellipse fill="#A39661" cx="1595.477" cy="794.166" rx="89.438" ry="85.539"/>
				</g>
				<g>
					<g>
						<radialGradient id="SVGID_10_" cx="1593.3828" cy="794.5469" r="78.7776" gradientUnits="userSpaceOnUse">
							<stop  offset="0.5559" style="stop-color:#D6E021"/>
							<stop  offset="0.9134" style="stop-color:#B8CD2E"/>
						</radialGradient>
						<circle fill="url(#SVGID_10_)" cx="1593.382" cy="794.546" r="78.778"/>
						<radialGradient id="SVGID_11_" cx="1678.7705" cy="794.5469" r="81.9609" gradientUnits="userSpaceOnUse">
							<stop  offset="0.5559" style="stop-color:#D6E021"/>
							<stop  offset="0.9134" style="stop-color:#B8CD2E"/>
						</radialGradient>
						<circle fill="url(#SVGID_11_)" cx="1678.771" cy="794.546" r="81.961"/>
						<g>
							<radialGradient id="SVGID_12_" cx="1758.3438" cy="581.8184" r="122.3982" gradientUnits="userSpaceOnUse">
								<stop  offset="0.5559" style="stop-color:#D6E021"/>
								<stop  offset="0.9134" style="stop-color:#B8CD2E"/>
							</radialGradient>
							<circle fill="url(#SVGID_12_)" cx="1758.344" cy="581.818" r="122.398"/>
							<g>
								<g>
									<g>
										<path fill="#535357" d="M1825.729,625.284c-30.766,0-55.796-25.031-55.796-55.796c0-30.767,25.03-55.797,55.796-55.797
											c30.768,0,55.797,25.03,55.797,55.797C1881.525,600.253,1856.496,625.284,1825.729,625.284z M1825.729,521.87
											c-26.256,0-47.616,21.361-47.616,47.617c0,26.256,21.36,47.617,47.616,47.617c26.257,0,47.617-21.361,47.617-47.617
											C1873.346,543.231,1851.985,521.87,1825.729,521.87z"/>
									</g>
									<g>
										<path fill="#535357" d="M1691.203,625.284c-30.686,0-55.65-24.965-55.65-55.65c0-30.686,24.965-55.651,55.65-55.651
											c30.687,0,55.651,24.965,55.651,55.651C1746.854,600.319,1721.89,625.284,1691.203,625.284z M1691.203,522.141
											c-26.188,0-47.492,21.305-47.492,47.493s21.305,47.492,47.492,47.492s47.493-21.305,47.493-47.492
											S1717.391,522.141,1691.203,522.141z"/>
									</g>
								</g>
								<path fill="#535357" d="M1642.661,580.588h-8.346c-3.135,0-5.676-2.541-5.676-5.676v-9.682c0-3.135,2.541-5.676,5.676-5.676
									h8.346V580.588z"/>
								<path fill="#535357" d="M1874.027,580.588h8.347c3.135,0,5.676-2.541,5.676-5.676v-9.682c0-3.135-2.541-5.676-5.676-5.676
									h-8.347V580.588z"/>
								<rect x="1741.985" y="565.397" fill="#535357" width="31.55" height="7.011"/>
							</g>
							<circle fill="#565759" cx="1691.104" cy="590.824" r="12.334"/>
							<circle fill="#565759" cx="1823.494" cy="590.824" r="12.334"/>
							<path fill="#565759" d="M1741.634,625.438c0,0,3.979,10.345,15.915,10.345c11.937,0,15.915-10.345,15.915-10.345H1741.634z"
								/>
						</g>
					</g>
					<g>
						<polygon fill="#485577" points="1617.365,629.535 1769.111,665.504 1911.865,622.79 1886.574,821.185 1769.111,850.972 
							1641.532,823.995 						"/>
						<polygon fill="#677AB5" points="1617.365,629.535 1622.143,625.53 1769.463,661.991 1908.774,620.261 1911.865,622.79 
							1769.111,665.504 						"/>
						<path fill="#FAFA98" d="M1629.287,627.298l17.092-16.1c0,0,86.201,16.65,123.294,41.098c0,0,90.627-41.941,120.344-42.362
							l11.08,12.626l-131.634,39.431L1629.287,627.298z"/>
						<polygon fill="#677AB5" points="1808.539,692.52 1808.539,740.292 1875.981,721.183 1884.412,670.601 						"/>
					</g>
					
						<radialGradient id="SVGID_13_" cx="1532.7559" cy="1204.3936" r="33.9251" gradientTransform="matrix(0.9388 -0.3445 0.3445 0.9388 -223.7741 109.935)" gradientUnits="userSpaceOnUse">
						<stop  offset="0.5559" style="stop-color:#D6E021"/>
						<stop  offset="0.9134" style="stop-color:#B8CD2E"/>
					</radialGradient>
					<path fill="url(#SVGID_13_)" d="M1645.073,740.845l-13.454,4.938c-13.49,4.951-28.439-1.972-33.39-15.461l-3.909-10.651
						c-4.951-13.49,1.972-28.439,15.462-33.39l13.454-4.938c16.431-6.03,34.64,2.401,40.67,18.833l0,0
						C1669.936,716.606,1661.504,734.815,1645.073,740.845z"/>
					
						<radialGradient id="SVGID_14_" cx="2185.1006" cy="1432.5898" r="33.9251" gradientTransform="matrix(-0.9388 -0.3445 -0.3445 0.9388 4454.0103 109.935)" gradientUnits="userSpaceOnUse">
						<stop  offset="0.5559" style="stop-color:#D6E021"/>
						<stop  offset="0.9134" style="stop-color:#B8CD2E"/>
					</radialGradient>
					<path fill="url(#SVGID_14_)" d="M1894.128,730.343l13.454,4.938c13.49,4.951,28.439-1.972,33.39-15.462l3.909-10.65
						c4.95-13.49-1.972-28.439-15.462-33.39l-13.454-4.938c-16.432-6.03-34.64,2.401-40.67,18.833l0,0
						C1869.265,706.104,1877.696,724.313,1894.128,730.343z"/>
				</g>
			</g>
		</g>
	</g>
	<g>
		<g>
			<rect x="245.336" y="1377.905" fill="#683F35" width="1815.008" height="103.789"/>
			<g>
				<g>
					<path fill="#683F35" d="M583.557,1479.252h-51.758l17.169,212.938c1.453,18.025,16.505,31.912,34.589,31.912l0,0l0,0
						c18.084,0,33.136-13.887,34.589-31.912l17.169-212.938H583.557z"/>
					<g>
						<circle fill="#383838" cx="583.457" cy="1528.882" r="19.62"/>
						<g>
							<path fill="#6D6D6D" d="M593.994,1529.82H572.92c-0.518,0-0.938-0.42-0.938-0.938s0.42-0.938,0.938-0.938h21.073
								c0.518,0,0.938,0.42,0.938,0.938S594.512,1529.82,593.994,1529.82z"/>
						</g>
						<g>
							<path fill="#6D6D6D" d="M583.457,1540.356c-0.518,0-0.938-0.42-0.938-0.938v-21.073c0-0.519,0.42-0.938,0.938-0.938
								s0.938,0.42,0.938,0.938v21.073C584.396,1539.937,583.975,1540.356,583.457,1540.356z"/>
						</g>
					</g>
					<g>
						<circle fill="#383838" cx="583.457" cy="1656.534" r="19.62"/>
						<g>
							<path fill="#6D6D6D" d="M593.994,1657.473H572.92c-0.518,0-0.938-0.42-0.938-0.938s0.42-0.938,0.938-0.938h21.073
								c0.518,0,0.938,0.42,0.938,0.938S594.512,1657.473,593.994,1657.473z"/>
						</g>
						<g>
							<path fill="#6D6D6D" d="M583.457,1668.009c-0.518,0-0.938-0.419-0.938-0.938v-21.072c0-0.519,0.42-0.938,0.938-0.938
								s0.938,0.42,0.938,0.938v21.072C584.396,1667.59,583.975,1668.009,583.457,1668.009z"/>
						</g>
					</g>
					<path fill="#492D27" d="M583.557,1479.252h-51.758l1.672,20.739h30.367h23.311c15.327,0,27.393,13.077,26.161,28.354
						l-14.882,184.582c-0.243,3.009-0.872,5.897-1.823,8.63c11.818-4.8,20.458-15.933,21.542-29.368l17.169-212.938H583.557z"/>
				</g>
				<g>
					<path fill="#683F35" d="M1722.123,1479.252h-51.759l17.17,212.938c1.453,18.025,16.505,31.912,34.589,31.912l0,0l0,0
						c18.083,0,33.136-13.887,34.589-31.912l17.169-212.938H1722.123z"/>
					<g>
						<circle fill="#383838" cx="1722.023" cy="1528.882" r="19.62"/>
						<g>
							<path fill="#6D6D6D" d="M1732.56,1529.82h-21.073c-0.519,0-0.938-0.42-0.938-0.938s0.42-0.938,0.938-0.938h21.073
								c0.519,0,0.938,0.42,0.938,0.938S1733.078,1529.82,1732.56,1529.82z"/>
						</g>
						<g>
							<path fill="#6D6D6D" d="M1722.023,1540.356c-0.519,0-0.938-0.42-0.938-0.938v-21.073c0-0.519,0.42-0.938,0.938-0.938
								c0.518,0,0.938,0.42,0.938,0.938v21.073C1722.961,1539.937,1722.541,1540.356,1722.023,1540.356z"/>
						</g>
					</g>
					<g>
						<circle fill="#383838" cx="1722.023" cy="1656.534" r="19.62"/>
						<g>
							<path fill="#6D6D6D" d="M1732.56,1657.473h-21.073c-0.519,0-0.938-0.42-0.938-0.938s0.42-0.938,0.938-0.938h21.073
								c0.519,0,0.938,0.42,0.938,0.938S1733.078,1657.473,1732.56,1657.473z"/>
						</g>
						<g>
							<path fill="#6D6D6D" d="M1722.023,1668.009c-0.519,0-0.938-0.419-0.938-0.938v-21.072c0-0.519,0.42-0.938,0.938-0.938
								c0.518,0,0.938,0.42,0.938,0.938v21.072C1722.961,1667.59,1722.541,1668.009,1722.023,1668.009z"/>
						</g>
					</g>
					<path fill="#492D27" d="M1722.123,1479.252h-51.759l1.673,20.739h30.366h23.312c15.326,0,27.393,13.077,26.16,28.354
						l-14.883,184.582c-0.242,3.009-0.871,5.897-1.822,8.63c11.818-4.8,20.459-15.933,21.542-29.368l17.169-212.938H1722.123z"/>
				</g>
			</g>
		</g>
		<polygon opacity="0.15" fill="#212121" points="1921.816,1872 63.376,1869.396 245.336,1481.694 2056.184,1481.694 		"/>
	</g>
</g>
</svg>
