<?xml version="1.0" encoding="utf-8"?>
<!-- Generator: Adobe Illustrator 14.0.0, SVG Export Plug-In . SVG Version: 6.00 Build 43363)  -->
<!DOCTYPE svg PUBLIC "-//W3C//DTD SVG 1.1//EN" "http://www.w3.org/Graphics/SVG/1.1/DTD/svg11.dtd">
<svg version="1.1" xmlns="http://www.w3.org/2000/svg" xmlns:xlink="http://www.w3.org/1999/xlink" x="0px" y="0px" width="2272px"
	 height="1872px" viewBox="0 0 2272 1872" enable-background="new 0 0 2272 1872" xml:space="preserve">
<g id="Background">
	<rect fill="#EFDF9C" width="2272" height="1872"/>
</g>
<g id="white_board">
	<g>
		<path fill="#19354D" d="M586.959,435.087L586.959,435.087c-7.044,0-12.754-5.71-12.754-12.754V161.972
			c0-7.044,5.71-12.754,12.754-12.754l0,0c7.044,0,12.754,5.71,12.754,12.754v260.361
			C599.714,429.377,594.003,435.087,586.959,435.087z"/>
		<path fill="#19354D" d="M1661.646,435.087L1661.646,435.087c-7.044,0-12.755-5.71-12.755-12.754V161.972
			c0-7.044,5.711-12.754,12.755-12.754l0,0c7.044,0,12.754,5.71,12.754,12.754v260.361
			C1674.4,429.377,1668.69,435.087,1661.646,435.087z"/>
		<g>
			<polygon fill="#345670" points="1769.866,355.383 507.569,355.383 187.493,212.538 2099.018,212.538 			"/>
			<polygon fill="#FFFFFF" points="1761.083,337.853 517.645,337.853 302.3,237.625 1983.791,237.625 			"/>
		</g>
		<polygon fill="#B79D7C" points="1159.856,318.227 909.526,318.227 867.592,264.419 1181.046,264.419 		"/>
		<polygon fill="#19354D" points="1309.526,295.97 1151.633,295.97 1135.718,257.251 1332.526,257.251 		"/>
		<rect x="187.493" y="195.464" fill="#213744" width="1911.525" height="17.074"/>
	</g>
</g>
<g id="the_teamwork_desk">
	
		<rect x="164.879" y="1044.936" transform="matrix(0.4156 0.9095 -0.9095 0.4156 1309.9036 379.2918)" fill="#663C14" width="389.789" height="328.243"/>
	<g>
		<path fill="#343532" d="M387.198,1155.166l-35.635-77.976c-2.295-5.023-0.084-10.956,4.939-13.252l168.557-77.029
			c16.828-7.69,36.703-0.283,44.393,16.545l16.099,35.228c7.69,16.828,0.283,36.703-16.545,44.394l-168.557,77.029
			C395.427,1162.4,389.494,1160.189,387.198,1155.166z"/>
		<path fill="#343532" d="M454.104,1301.568l-35.635-77.976c-2.295-5.023-0.084-10.956,4.939-13.252l168.556-77.029
			c16.828-7.69,36.703-0.283,44.394,16.545l16.099,35.228c7.69,16.828,0.283,36.703-16.545,44.394l-168.557,77.029
			C462.332,1308.803,456.399,1306.592,454.104,1301.568z"/>
		
			<rect x="306.803" y="1131.295" transform="matrix(0.4156 0.9095 -0.9095 0.4156 1323.4626 284.7208)" fill="#343532" width="266.698" height="82.061"/>
	</g>
	
		<rect x="1740.923" y="857.268" transform="matrix(0.1508 -0.9886 0.9886 0.1508 634.2617 2781.1001)" fill="#663C14" width="389.789" height="328.244"/>
	<g>
		<path fill="#343532" d="M1883.345,1051.439l-12.925,84.753c-0.832,5.46-5.934,9.211-11.394,8.378l-183.205-27.938
			c-18.29-2.79-30.856-19.878-28.066-38.168l5.839-38.289c2.789-18.29,19.877-30.856,38.167-28.067l183.206,27.939
			C1880.427,1040.879,1884.178,1045.98,1883.345,1051.439z"/>
		<path fill="#343532" d="M1907.611,892.314l-12.925,84.752c-0.832,5.46-5.934,9.211-11.394,8.378l-183.205-27.938
			c-18.29-2.789-30.855-19.878-28.066-38.167l5.839-38.29c2.789-18.29,19.878-30.856,38.167-28.066l183.206,27.939
			C1904.693,881.753,1908.444,886.854,1907.611,892.314z"/>
		
			<rect x="1715.105" y="967.037" transform="matrix(0.1508 -0.9886 0.9886 0.1508 573.2378 2683.4204)" fill="#343532" width="266.698" height="82.061"/>
	</g>
	<rect x="1001.689" y="1327.247" fill="#663C14" width="389.789" height="328.243"/>
	<g>
		<path fill="#343532" d="M1158.967,1444.026h-85.732c-5.523,0-10-4.478-10-10v-185.324c0-18.501,14.998-33.5,33.5-33.5h38.732
			c18.501,0,33.5,14.999,33.5,33.5v185.324C1168.967,1439.549,1164.49,1444.026,1158.967,1444.026z"/>
		<path fill="#343532" d="M1319.933,1444.026H1234.2c-5.522,0-10-4.478-10-10v-185.324c0-18.501,14.999-33.5,33.5-33.5h38.732
			c18.502,0,33.5,14.999,33.5,33.5v185.324C1329.933,1439.549,1325.455,1444.026,1319.933,1444.026z"/>
		<rect x="1063.235" y="1361.965" fill="#343532" width="266.697" height="82.062"/>
	</g>
	<path fill="#816951" d="M1741.798,1374.59H544.294c-18.109,0-32.789-14.681-32.789-32.789V647.403
		c0-18.109,14.68-32.79,32.789-32.79h1197.504c18.109,0,32.789,14.681,32.789,32.79v694.398
		C1774.587,1359.909,1759.907,1374.59,1741.798,1374.59z"/>
	<g>
		
			<rect x="1499.996" y="862.966" transform="matrix(0.0527 0.9986 -0.9986 0.0527 2450.1411 -654.5551)" fill="#B39B79" width="140.136" height="202.287"/>
		
			<rect x="1564.497" y="924.153" transform="matrix(0.0527 0.9986 -0.9986 0.0527 2514.2773 -599.827)" fill="#B19776" width="17.591" height="202.288"/>
		<polygon fill="#C7B199" points="1672.227,980.739 1480.595,898.663 1465.371,899.466 1471.825,1021.841 1673.832,1011.187 		"/>
		<g>
			<g>
				
					<rect x="1609.774" y="937.283" transform="matrix(0.0527 0.9986 -0.9986 0.0527 2495.9834 -748.704)" fill="#513011" width="65.67" height="7.835"/>
				
					<rect x="1488.319" y="926.685" transform="matrix(0.0527 0.9986 -0.9986 0.0527 2387.3225 -621.3481)" fill="#513011" width="65.67" height="41.842"/>
			</g>
		</g>
	</g>
	<path fill="#C25301" d="M1332.975,1434.558c-99.442-19.321-193.409-27.005-271.054,0l-38.138,153.075h358.227L1332.975,1434.558z"
		/>
	
		<rect x="663.469" y="1093.51" transform="matrix(0.4606 0.8876 -0.8876 0.4606 1441.3119 -0.9417)" fill="#D4D5D6" width="115.923" height="183.718"/>
	<g>
		<g>
			<g>
				<g>
					<path fill="#344151" d="M1270.294,1239.558l-99.789-24.849c-1.451-0.361-2.335-1.831-1.974-3.282l36.131-145.102
						c0.362-1.452,1.831-2.335,3.283-1.974l99.788,24.848c1.452,0.361,2.335,1.831,1.974,3.282l-36.131,145.103
						C1273.215,1239.035,1271.745,1239.919,1270.294,1239.558z"/>
					<path fill="#EFEFEF" d="M1268.993,1231.602l-89.747-22.348c-1.451-0.361-2.335-1.831-1.974-3.282l32.552-130.729
						c0.361-1.451,1.831-2.335,3.283-1.974l89.747,22.348c1.451,0.361,2.335,1.831,1.974,3.282l-32.552,130.729
						C1271.915,1231.079,1270.445,1231.963,1268.993,1231.602z"/>
				</g>
				<g>
					<path fill="#E3E3E3" d="M1294.082,1113.006l-81.381-20.265c-0.775-0.193-1.248-0.979-1.055-1.755l1.768-7.103
						c0.193-0.775,0.979-1.248,1.756-1.055l81.38,20.264c0.776,0.193,1.248,0.979,1.055,1.755l-1.769,7.103
						C1295.644,1112.727,1294.857,1113.199,1294.082,1113.006z"/>
					<path fill="#E3E3E3" d="M1289.658,1130.771l-81.381-20.265c-0.775-0.192-1.248-0.979-1.055-1.755l1.769-7.102
						c0.193-0.776,0.979-1.249,1.755-1.056l81.38,20.265c0.776,0.192,1.249,0.979,1.056,1.755l-1.769,7.102
						C1291.22,1130.491,1290.434,1130.964,1289.658,1130.771z"/>
					<path fill="#E3E3E3" d="M1274.224,1192.755l-81.38-20.265c-0.776-0.193-1.249-0.979-1.056-1.755l12.779-51.321
						c0.193-0.776,0.979-1.248,1.755-1.055l81.381,20.264c0.775,0.193,1.248,0.979,1.055,1.755l-12.779,51.321
						C1275.785,1192.476,1275,1192.947,1274.224,1192.755z"/>
				</g>
			</g>
			<g>
				<g>
					<path fill="#344151" d="M1277.867,1241.443l99.788,24.848c1.452,0.361,2.921-0.522,3.283-1.974l36.131-145.103
						c0.361-1.451-0.522-2.921-1.974-3.282l-99.789-24.848c-1.451-0.361-2.921,0.522-3.282,1.974l-36.131,145.102
						C1275.532,1239.612,1276.416,1241.082,1277.867,1241.443z"/>
					<path fill="#EFEFEF" d="M1282.746,1235.026l89.747,22.348c1.452,0.361,2.922-0.522,3.283-1.974l32.552-130.73
						c0.361-1.451-0.521-2.921-1.974-3.282l-89.747-22.348c-1.452-0.361-2.922,0.522-3.283,1.974l-32.552,130.73
						C1280.411,1233.195,1281.295,1234.665,1282.746,1235.026z"/>
				</g>
				<g>
					<path fill="#E3E3E3" d="M1316.201,1118.514l81.381,20.264c0.775,0.193,1.562-0.279,1.754-1.055l1.769-7.103
						c0.193-0.776-0.278-1.562-1.055-1.755l-81.38-20.264c-0.776-0.193-1.563,0.278-1.756,1.055l-1.768,7.103
						C1314.953,1117.534,1315.426,1118.32,1316.201,1118.514z"/>
					<path fill="#E3E3E3" d="M1311.777,1136.278l81.381,20.264c0.775,0.193,1.562-0.278,1.755-1.055l1.769-7.103
						c0.193-0.775-0.279-1.562-1.056-1.755l-81.38-20.264c-0.776-0.193-1.562,0.279-1.755,1.055l-1.769,7.103
						C1310.529,1135.3,1311.002,1136.085,1311.777,1136.278z"/>
					<path fill="#E3E3E3" d="M1296.344,1198.263l81.38,20.264c0.776,0.193,1.562-0.279,1.755-1.055l12.779-51.321
						c0.193-0.776-0.279-1.563-1.055-1.756l-81.381-20.264c-0.775-0.193-1.562,0.279-1.755,1.056l-12.779,51.321
						C1295.095,1197.283,1295.567,1198.069,1296.344,1198.263z"/>
				</g>
			</g>
		</g>
		<g>
			<g>
				<path fill="#C63C17" d="M1312.708,1110.739l-12.41-3.09c-0.234-0.059-0.378-0.296-0.319-0.53l0.462-1.854
					c0.059-0.234,0.296-0.377,0.53-0.318l12.41,3.09c0.234,0.059,0.377,0.296,0.318,0.53l-0.461,1.854
					C1313.18,1110.655,1312.942,1110.798,1312.708,1110.739z"/>
				<path fill="#C63C17" d="M1310.592,1119.236l-12.41-3.091c-0.234-0.059-0.377-0.296-0.318-0.53l0.462-1.854
					c0.058-0.234,0.296-0.377,0.53-0.318l12.41,3.09c0.234,0.059,0.377,0.296,0.318,0.53l-0.462,1.854
					C1311.064,1119.151,1310.826,1119.294,1310.592,1119.236z"/>
			</g>
			<g>
				<path fill="#C63C17" d="M1308.284,1128.504l-12.41-3.09c-0.234-0.059-0.377-0.296-0.319-0.53l0.463-1.854
					c0.058-0.234,0.295-0.377,0.529-0.318l12.41,3.09c0.234,0.059,0.378,0.296,0.319,0.53l-0.462,1.854
					C1308.756,1128.42,1308.519,1128.563,1308.284,1128.504z"/>
				<path fill="#C63C17" d="M1306.169,1137.001l-12.41-3.091c-0.234-0.059-0.378-0.295-0.319-0.53l0.462-1.854
					c0.059-0.234,0.296-0.377,0.53-0.318l12.41,3.09c0.234,0.059,0.377,0.296,0.318,0.531l-0.461,1.854
					C1306.641,1136.916,1306.403,1137.059,1306.169,1137.001z"/>
			</g>
			<g>
				<path fill="#C63C17" d="M1303.86,1146.27l-12.41-3.091c-0.234-0.058-0.377-0.295-0.318-0.53l0.462-1.854
					c0.058-0.234,0.295-0.378,0.529-0.319l12.411,3.091c0.234,0.058,0.377,0.295,0.318,0.529l-0.462,1.854
					C1304.332,1146.186,1304.096,1146.328,1303.86,1146.27z"/>
				<path fill="#C63C17" d="M1301.745,1154.766l-12.41-3.09c-0.234-0.059-0.377-0.296-0.319-0.53l0.462-1.854
					c0.059-0.234,0.296-0.377,0.53-0.319l12.41,3.091c0.234,0.059,0.377,0.296,0.319,0.53l-0.462,1.854
					C1302.217,1154.682,1301.979,1154.824,1301.745,1154.766z"/>
			</g>
			<g>
				<path fill="#C63C17" d="M1299.438,1164.034l-12.41-3.09c-0.234-0.059-0.378-0.296-0.319-0.53l0.462-1.854
					c0.059-0.234,0.296-0.377,0.53-0.319l12.41,3.091c0.234,0.059,0.377,0.296,0.319,0.53l-0.462,1.854
					C1299.909,1163.95,1299.672,1164.093,1299.438,1164.034z"/>
				<path fill="#C63C17" d="M1297.321,1172.53l-12.41-3.09c-0.234-0.059-0.377-0.296-0.318-0.53l0.462-1.854
					c0.058-0.234,0.295-0.377,0.529-0.318l12.41,3.09c0.235,0.059,0.378,0.296,0.319,0.53l-0.462,1.854
					C1297.793,1172.446,1297.556,1172.589,1297.321,1172.53z"/>
			</g>
			<g>
				<path fill="#C63C17" d="M1295.014,1181.799l-12.41-3.09c-0.234-0.059-0.377-0.296-0.319-0.53l0.462-1.854
					c0.059-0.234,0.296-0.377,0.53-0.318l12.41,3.09c0.234,0.059,0.378,0.296,0.319,0.53l-0.462,1.854
					C1295.485,1181.715,1295.248,1181.857,1295.014,1181.799z"/>
				<path fill="#C63C17" d="M1292.898,1190.296l-12.41-3.091c-0.235-0.059-0.378-0.296-0.319-0.53l0.462-1.854
					c0.059-0.234,0.296-0.377,0.53-0.318l12.41,3.09c0.234,0.059,0.377,0.296,0.318,0.53l-0.462,1.854
					C1293.37,1190.211,1293.133,1190.354,1292.898,1190.296z"/>
			</g>
			<g>
				<path fill="#C63C17" d="M1290.59,1199.564l-12.41-3.091c-0.234-0.058-0.377-0.296-0.318-0.53l0.461-1.854
					c0.059-0.235,0.296-0.378,0.531-0.319l12.41,3.091c0.234,0.058,0.377,0.295,0.318,0.529l-0.462,1.854
					C1291.063,1199.479,1290.824,1199.623,1290.59,1199.564z"/>
				<path fill="#C63C17" d="M1288.475,1208.061l-12.41-3.09c-0.234-0.059-0.377-0.296-0.319-0.531l0.462-1.854
					c0.059-0.234,0.296-0.378,0.53-0.319l12.41,3.091c0.234,0.058,0.377,0.295,0.319,0.53l-0.462,1.854
					C1288.946,1207.977,1288.709,1208.119,1288.475,1208.061z"/>
			</g>
			<g>
				<path fill="#C63C17" d="M1286.166,1217.329l-12.41-3.091c-0.234-0.058-0.377-0.295-0.318-0.529l0.462-1.854
					c0.058-0.234,0.296-0.378,0.53-0.319l12.41,3.091c0.234,0.058,0.377,0.296,0.318,0.53l-0.461,1.854
					C1286.639,1217.245,1286.401,1217.388,1286.166,1217.329z"/>
				<path fill="#C63C17" d="M1284.051,1225.825l-12.41-3.09c-0.234-0.059-0.377-0.296-0.318-0.53l0.461-1.854
					c0.059-0.234,0.296-0.377,0.53-0.318l12.411,3.09c0.234,0.059,0.377,0.296,0.318,0.53l-0.462,1.854
					C1284.522,1225.741,1284.285,1225.884,1284.051,1225.825z"/>
			</g>
		</g>
		<polygon fill="#C63C17" points="1350.012,1238.08 1348.955,1234.639 1346.407,1237.183 1377.058,1114.093 1380.662,1114.99 		"/>
	</g>
	<path fill="#E1740D" d="M1382.799,1655.49h-366.118c-31.812,0-57.601-25.788-57.601-57.6l0,0c0-31.813,25.789-57.601,57.601-57.601
		c121.689-25.322,243.73-25.177,366.118,0c31.812,0,57.601,25.788,57.601,57.601l0,0
		C1440.399,1629.702,1414.61,1655.49,1382.799,1655.49z"/>
	<g>
		
			<rect x="1555.38" y="1003.996" transform="matrix(0.2752 -0.9614 0.9614 0.2752 122.5033 2338.5483)" fill="#E8E8E8" width="113.623" height="168.066"/>
		
			<rect x="1522.827" y="1068.211" transform="matrix(0.2752 -0.9614 0.9614 0.2752 93.8546 2264.0681)" fill="#032139" width="51.288" height="3.156"/>
		
			<rect x="1653.401" y="1089.446" transform="matrix(0.2752 -0.9614 0.9614 0.2752 168.08 2404.9922)" fill="#032139" width="51.288" height="3.156"/>
		
			<rect x="1520.457" y="1071.975" transform="matrix(0.2752 -0.9614 0.9614 0.2752 99.7672 2279.4375)" fill="#032139" width="82.324" height="3.156"/>
		
			<rect x="1526.652" y="1073.748" transform="matrix(0.2752 -0.9614 0.9614 0.2752 102.5526 2286.6792)" fill="#032139" width="82.324" height="3.156"/>
		
			<rect x="1532.848" y="1075.522" transform="matrix(0.2752 -0.9614 0.9614 0.2752 105.338 2293.9207)" fill="#032139" width="82.324" height="3.156"/>
		
			<rect x="1539.042" y="1077.294" transform="matrix(0.2752 -0.9614 0.9614 0.2752 108.1235 2301.1614)" fill="#032139" width="82.324" height="3.157"/>
		
			<rect x="1545.237" y="1079.068" transform="matrix(0.2752 -0.9614 0.9614 0.2752 110.9086 2308.4023)" fill="#032139" width="82.324" height="3.156"/>
		
			<rect x="1551.433" y="1080.841" transform="matrix(0.2752 -0.9614 0.9614 0.2752 113.6901 2315.6392)" fill="#032139" width="82.323" height="3.156"/>
		
			<rect x="1557.628" y="1082.615" transform="matrix(0.2752 -0.9614 0.9614 0.2752 116.4755 2322.8804)" fill="#032139" width="82.323" height="3.156"/>
		
			<rect x="1563.824" y="1084.388" transform="matrix(0.2752 -0.9614 0.9614 0.2752 119.2609 2330.1221)" fill="#032139" width="82.323" height="3.156"/>
		
			<rect x="1570.018" y="1086.162" transform="matrix(0.2752 -0.9614 0.9614 0.2752 122.0316 2337.3462)" fill="#032139" width="82.324" height="3.156"/>
		
			<rect x="1586.126" y="1101.084" transform="matrix(0.2752 -0.9614 0.9614 0.2752 109.4581 2350.5107)" fill="#032139" width="54.97" height="3.156"/>
		<g>
			
				<rect x="1582.408" y="1089.708" transform="matrix(0.2752 -0.9614 0.9614 0.2752 127.621 2351.8501)" fill="#032139" width="82.324" height="3.156"/>
			
				<rect x="1588.603" y="1091.48" transform="matrix(0.2752 -0.9614 0.9614 0.2752 130.4065 2359.0908)" fill="#032139" width="82.324" height="3.157"/>
			
				<rect x="1594.798" y="1093.254" transform="matrix(0.2752 -0.9614 0.9614 0.2752 133.2061 2366.3489)" fill="#032139" width="82.324" height="3.157"/>
			
				<rect x="1600.993" y="1095.028" transform="matrix(0.2752 -0.9614 0.9614 0.2752 135.9769 2373.5732)" fill="#032139" width="82.324" height="3.156"/>
			
				<rect x="1607.188" y="1096.801" transform="matrix(0.2752 -0.9614 0.9614 0.2752 138.7625 2380.8147)" fill="#032139" width="82.324" height="3.156"/>
			
				<rect x="1613.384" y="1098.575" transform="matrix(0.2752 -0.9614 0.9614 0.2752 141.5479 2388.0562)" fill="#032139" width="82.324" height="3.156"/>
			
				<rect x="1629.491" y="1113.497" transform="matrix(0.2752 -0.9614 0.9614 0.2752 128.9617 2401.2061)" fill="#032139" width="54.971" height="3.156"/>
		</g>
	</g>
	<path fill="#4A4C47" d="M1198.951,1646.022L1198.951,1646.022c-47.936,0-111.966-31.285-100.17-90.339l4.777-25.733
		c0-47.936,47.458-95.393,95.393-95.393l0,0c47.936,0,91.484,43.55,91.484,91.485l3.24,37.005
		C1293.676,1610.983,1280.262,1637.218,1198.951,1646.022z"/>
	<path fill="#E5B88E" d="M1040.8,1174.717c-2.071-1.794-5.257-1.296-6.681,1.045l-3.545,5.831l-9.913,14.226l3.9-18.783l1.907-7.978
		c0.438-1.837-0.19-3.765-1.628-4.988l-3.644-3.103c-2.073-1.766-5.176-1.557-6.993,0.472l-3.348,3.737l-5.124,2.078
		c-1.099,0.445-2.033,1.222-2.672,2.22l-3.915,6.112l-18.744,11.719c-2.585,1.616-3.997,4.587-3.617,7.612l4.986,39.702
		l-21.402,57.457l30.689,11.433l21.377-57.39l11.962-17.527c0.404-0.592,0.753-1.219,1.044-1.873l14.076-31.671
		c0.318-0.715,0.541-1.469,0.662-2.241l2.176-13.831C1042.607,1177.383,1042.019,1175.773,1040.8,1174.717z"/>
	<path fill="#E5B88E" d="M1204.154,1451.916h-10.406c-4.971,0-9-4.029-9-9v-16.718c0-4.971,4.029-9,9-9h10.406c4.97,0,9,4.029,9,9
		v16.718C1213.154,1447.887,1209.124,1451.916,1204.154,1451.916z"/>
	<path fill="#E5B88E" d="M1198.951,1434.558L1198.951,1434.558c-25.185,0-47.854,10.736-63.708,27.87
		c0.033,0.114,3.761,13.188,8.475,19.473c4.734,6.313,36.296-9.469,55.233-9.469c18.937,0,47.343,11.047,47.343,11.047
		s9.896,6.798,19.148-17.895C1249.521,1446.621,1225.648,1434.558,1198.951,1434.558z"/>
	<g>
		<path fill="#E1740D" d="M1012.736,1655.49c-6.008-1.092-92.486-11.698-110.313-71.348c-15.935-53.321-15.935-99.086,7.736-171.679
			c43.978-134.863,52.549-150.76,55.233-156.231c0,0,42.411,22.528,42.608,22.094c-0.569,1.248-12.625,31.562-32.593,163.179
			c-6.335,41.756-10.383,73.252,2.133,94.009c12.35,20.48,39.029,4.576,39.929,4.776c-0.516-0.116-6.202,20.689-6.202,20.689
			L1012.736,1655.49z"/>
	</g>
	<g>
		<path fill="#E1740D" d="M1390.011,1655.49c6.008-1.092,92.485-11.698,110.313-71.348c15.935-53.321,15.935-99.086-7.736-171.679
			c-43.978-134.863-52.549-150.76-55.233-156.231c0,0-42.411,22.528-42.608,22.094c0.569,1.248,12.624,31.562,32.594,163.179
			c6.335,41.756,10.382,73.252-2.134,94.009c-12.35,20.48-39.029,4.576-39.929,4.776c0.517-0.116,6.202,20.689,6.202,20.689
			L1390.011,1655.49z"/>
	</g>
	<path fill="#D3977B" d="M1392.841,1187l-6.035,1.723c-0.276,0.079-0.54,0.197-0.784,0.35l-12.053,7.532
		c-0.137,0.085-0.266,0.181-0.387,0.286l-6.621,5.752c-0.994,0.863-2.431,1-3.57,0.34c-1.955-1.133-3.202-3.278-3.117-5.636
		c0.011-0.294,0.081-0.586,0.179-0.863l7.314-20.886c0.301-0.857,0.966-1.538,1.815-1.858l17.707-6.675
		c1.711-0.646,3.604,0.338,4.059,2.109l3.625,14.108C1395.387,1184.895,1394.441,1186.543,1392.841,1187z"/>
	<path fill="#663C14" d="M1415.04,1680.74H978.127c-4.418,0-8-3.582-8-8v-9.25c0-4.418,3.582-8,8-8h436.913c4.419,0,8,3.582,8,8
		v9.25C1423.04,1677.158,1419.459,1680.74,1415.04,1680.74z"/>
	<path fill="#E5B88E" d="M1397.844,1266.969l-28.912-48.862c-0.178-0.301-0.286-0.637-0.318-0.984l-4.032-43.407
		c-0.038-0.419,0.035-0.841,0.214-1.223l1.514-3.221c0.355-0.758,1.086-1.271,1.92-1.348l6.111-0.568
		c1.124-0.104,2.165,0.602,2.484,1.685l10.613,36.002c0.343,1.16,1.507,1.875,2.696,1.654l0,0c2.366-0.438,4.133-2.426,4.292-4.826
		l0.624-9.438c0.03-0.462-0.075-0.922-0.304-1.323l-10.084-17.729c-0.44-0.773-1.279-1.234-2.168-1.191l-22.385,1.091
		c-1.055,0.052-2.015-0.603-2.353-1.602l-0.651-1.925c-0.406-1.198,0.205-2.504,1.385-2.96l17.699-6.848
		c0.258-0.1,0.53-0.153,0.807-0.158l17.66-0.34c0.707-0.014,1.382,0.29,1.842,0.828l23.817,27.882
		c0.338,0.396,0.536,0.893,0.563,1.412l3.534,68.145l1.398,4.627l-25.498,13.315L1397.844,1266.969z"/>
	<g>
		<path fill="#A54C7C" d="M1434.484,1171.972L1434.484,1171.972c0.219,2.347-1.793,4.452-4.492,4.702l-82.801,7.691l-10.237-2.317
			c-1.104-0.25-1.228-1.568-0.188-2.018l9.636-4.163l82.801-7.69C1431.902,1167.926,1434.267,1169.625,1434.484,1171.972z"/>
		<path fill="#D8B29F" d="M1336.887,1182.054l9.403,2.395l0.37-0.034c0.473-1.353,0.69-2.816,0.549-4.336
			c-0.141-1.521-0.625-2.918-1.338-4.161l-0.37,0.034l-8.802,4.085C1335.75,1180.477,1335.872,1181.796,1336.887,1182.054z"/>
		<path fill="#353535" d="M1338.357,1180.9c-0.048-0.518-0.173-1.007-0.293-1.497l-1.365,0.634c-0.949,0.44-0.827,1.759,0.188,2.017
			l1.459,0.372C1338.373,1181.922,1338.405,1181.418,1338.357,1180.9z"/>
	</g>
	<path fill="#AFBDC6" d="M1900.218,877.993c-34.093,95.394-55.854,187.128-40.863,267.956l145.575,60.78l54.006-354.133
		L1900.218,877.993z"/>
	<path fill="#C4D4E1" d="M2126.137,862.046l-55.195,361.934c-4.795,31.448-34.177,53.054-65.625,48.259l0,0
		c-31.448-4.796-53.055-34.178-48.259-65.626c-6.688-124.115,11.854-244.74,55.195-361.934
		c4.796-31.448,34.177-53.054,65.625-48.258h0.001C2109.326,801.216,2130.933,830.598,2126.137,862.046z"/>
	<path fill="#E5B88E" d="M1896.954,1006.646l-1.568,10.286c-0.75,4.914-5.341,8.29-10.254,7.541l-16.527-2.521
		c-4.914-0.75-8.29-5.341-7.54-10.254l1.568-10.287c0.749-4.914,5.34-8.29,10.254-7.54l16.527,2.521
		C1894.328,997.141,1897.703,1001.731,1896.954,1006.646z"/>
	<g>
		<g>
			<path fill="#032139" d="M1879.274,1027.297l-8.593,58.609c-0.2,1.366-1.47,2.311-2.836,2.11l-3.923-0.575
				c-1.366-0.2-2.312-1.47-2.111-2.836l8.593-58.608c0.2-1.366,1.47-2.312,2.836-2.111l3.923,0.575
				C1878.529,1024.661,1879.475,1025.932,1879.274,1027.297z"/>
			<path fill="#032139" d="M1893.124,932.83l-8.593,58.608c-0.2,1.366-1.47,2.312-2.836,2.111l-3.923-0.575
				c-1.366-0.2-2.312-1.471-2.111-2.836l8.593-58.609c0.2-1.366,1.47-2.312,2.836-2.111l3.923,0.575
				C1892.379,930.194,1893.324,931.464,1893.124,932.83z"/>
			
				<rect x="1858.617" y="1006.99" transform="matrix(0.1451 -0.9894 0.9894 0.1451 608.7073 2720.9006)" fill="#032139" width="40.342" height="2.469"/>
			<path fill="#032139" d="M1935.727,1096.009l-0.173,1.177c-0.06,0.409-0.44,0.693-0.851,0.633l-68.077-9.98
				c-0.409-0.06-0.693-0.44-0.633-0.851l0.172-1.177c0.061-0.41,0.441-0.693,0.852-0.634l68.076,9.98
				C1935.503,1095.218,1935.786,1095.599,1935.727,1096.009z"/>
			<path fill="#032139" d="M1958.503,940.646l-0.172,1.177c-0.061,0.41-0.441,0.693-0.851,0.633l-68.077-9.98
				c-0.41-0.06-0.693-0.441-0.634-0.851l0.173-1.177c0.061-0.41,0.441-0.693,0.851-0.633l68.077,9.981
				C1958.28,939.855,1958.563,940.236,1958.503,940.646z"/>
		</g>
	</g>
	<path fill="#4A4C47" d="M2089.061,1042.365L2089.061,1042.365c-7.228,47.388-47.808,105.97-104.408,85.405l-24.719-8.602
		c-47.388-7.227-87.148-61.296-79.922-108.684l0,0c7.228-47.388,56.845-83.874,104.232-76.647l37.07,2.376
		C2068.702,943.44,2092.615,960.656,2089.061,1042.365z"/>
	<path fill="#E5B88E" d="M1599.299,1127.656c-2.086,1.776-2.073,5.002,0.026,6.762l5.229,4.384l12.568,11.944l-17.979-6.688
		l-7.6-3.088c-1.749-0.711-3.75-0.38-5.177,0.857l-3.617,3.134c-2.058,1.783-2.318,4.883-0.587,6.984l3.19,3.873l1.281,5.378
		c0.274,1.154,0.9,2.194,1.792,2.977l5.452,4.791l8.759,20.297c1.208,2.799,3.932,4.643,6.979,4.723l40.001,1.057l53.574,29.82
		l15.927-28.616l-53.511-29.784l-15.522-14.469c-0.524-0.488-1.092-0.929-1.695-1.314l-29.186-18.689
		c-0.659-0.422-1.371-0.756-2.116-0.992l-13.346-4.236C1602.207,1126.271,1600.527,1126.61,1599.299,1127.656z"/>
	<path fill="#E5B88E" d="M1658.774,813.615c-1.572-2.245-0.747-5.363,1.728-6.538l6.165-2.926l15.171-8.394l-19.084,1.944
		l-8.132,1.075c-1.872,0.248-3.725-0.577-4.795-2.133l-2.71-3.944c-1.543-2.244-1.015-5.309,1.19-6.907l4.062-2.945l2.596-4.882
		c0.557-1.047,1.424-1.896,2.483-2.429l6.483-3.264l13.587-17.437c1.874-2.405,4.975-3.503,7.944-2.813l38.978,9.051l59.357-15.368
		l8.208,31.705l-59.287,15.349l-18.666,10.093c-0.63,0.341-1.29,0.624-1.972,0.846l-32.952,10.737
		c-0.744,0.243-1.517,0.386-2.298,0.427l-13.981,0.739C1661.239,815.687,1659.699,814.936,1658.774,813.615z"/>
	<path fill="#E5B88E" d="M1880.012,1010.485L1880.012,1010.485c-3.796,24.896,3.4,48.925,17.947,67.182
		c0.118-0.016,10.765-6.371,11.823-14.155c2.104-15.476,2.932-31.242,5.786-49.963c2.855-18.721,8.068-45.774,8.068-45.774
		s0.874-3.665-2.929-18.343C1899.562,962.313,1884.037,984.093,1880.012,1010.485z"/>
	<g>
		<g>
			<path fill="#C4D4E1" d="M2070.348,1227.88c-1.986,5.774-25.509,89.665-87.164,98.295c-55.114,7.715-100.355,0.815-168.55-33.529
				c-126.692-63.807-141.114-74.677-146.118-78.155c0,0,28.664-38.529,28.264-38.791c1.148,0.751,29.298,17.239,156.4,56.822
				c40.324,12.558,70.85,21.307,93.256,12.063c22.107-9.121,10.407-37.893,10.741-38.752c-0.192,0.493,19.518,9.25,19.518,9.25
				L2070.348,1227.88z"/>
		</g>
	</g>
	<g>
		<g>
			<path fill="#C4D4E1" d="M2127.224,854.917c-0.174-6.104,2.378-93.193-53.902-119.808c-50.31-23.792-95.551-30.691-170.882-18.234
				c-139.952,23.143-156.96,29.22-162.772,31.049c0,0,15.876,45.322,15.417,45.452c1.32-0.375,33.104-7.722,166.228-7.621
				c42.233,0.032,73.979,0.779,92.612,16.282c18.385,15.296-1.36,39.272-1.298,40.192c-0.036-0.528,21.388-3.013,21.388-3.013
				L2127.224,854.917z"/>
		</g>
	</g>
	<path fill="#663C14" d="M2155.958,833.98l-65.868,431.919c-0.666,4.367-4.746,7.368-9.114,6.702l-9.144-1.395
		c-4.367-0.666-7.369-4.747-6.702-9.114l65.867-431.919c0.666-4.368,4.747-7.369,9.115-6.703l9.144,1.395
		C2153.623,825.531,2156.624,829.612,2155.958,833.98z"/>
	<g>
		<path fill="#345670" d="M1551.335,768.912L1551.335,768.912c2.042-1.176,4.794-0.226,6.146,2.123l41.504,72.06l2.161,10.272
			c0.233,1.108-0.914,1.769-1.756,1.011l-7.801-7.024l-41.504-72.06C1548.733,772.946,1549.293,770.088,1551.335,768.912z"/>
		<path fill="#D8B29F" d="M1601.181,853.426l-1.743-9.546l-0.186-0.322c-1.427,0.134-2.848,0.546-4.171,1.309
			c-1.323,0.762-2.392,1.784-3.225,2.951l0.186,0.322l7.383,6.298C1600.221,855.116,1601.368,854.455,1601.181,853.426z"/>
		<path fill="#353535" d="M1599.519,852.569c-0.451,0.26-0.844,0.577-1.239,0.891l1.146,0.977c0.796,0.68,1.943,0.019,1.756-1.011
			l-0.271-1.481C1600.439,852.129,1599.969,852.31,1599.519,852.569z"/>
	</g>
	<g>
		
			<rect x="816.048" y="748.087" transform="matrix(0.8624 0.5062 -0.5062 0.8624 547.9175 -330.334)" fill="#4CB4B3" width="131.085" height="189.224"/>
		
			<rect x="922.792" y="777.102" transform="matrix(0.8624 0.5063 -0.5063 0.8624 569.4326 -351.3713)" fill="#2C9BA4" width="16.454" height="189.224"/>
		<polygon fill="#6DC2BF" points="947.224,771.518 784.391,878.813 777.171,891.111 876.029,949.142 971.82,785.956 		"/>
		<g>
			
				<rect x="870.38" y="770.596" transform="matrix(0.8624 0.5062 -0.5062 0.8624 515.9474 -349.6222)" fill="#2C9BA4" width="61.429" height="7.329"/>
			
				<rect x="812.786" y="852.805" transform="matrix(0.8624 0.5062 -0.5062 0.8624 557.6943 -306.9666)" fill="#2C9BA4" width="61.429" height="39.14"/>
		</g>
	</g>
	<g>
		
			<rect x="764.52" y="696.002" transform="matrix(0.8624 0.5062 -0.5062 0.8624 514.4561 -311.4144)" fill="#B39B79" width="131.085" height="189.223"/>
		
			<rect x="871.264" y="725.018" transform="matrix(0.8624 0.5062 -0.5062 0.8624 535.9438 -332.4436)" fill="#B19776" width="16.454" height="189.223"/>
		<polygon fill="#C7B199" points="895.695,719.434 732.862,826.729 725.643,839.027 824.5,897.057 920.292,733.872 		"/>
		<g>
			<g>
				
					<rect x="818.852" y="718.512" transform="matrix(0.8624 0.5062 -0.5062 0.8624 482.4859 -330.7023)" fill="#513011" width="61.429" height="7.329"/>
				
					<rect x="761.258" y="800.72" transform="matrix(0.8624 0.5062 -0.5062 0.8624 524.2411 -288.0491)" fill="#513011" width="61.429" height="39.141"/>
			</g>
		</g>
	</g>
	<g>
		
			<rect x="676.857" y="669.648" transform="matrix(0.5743 0.8186 -0.8186 0.5743 941.6449 -282.4258)" fill="#8D1344" width="131.085" height="189.223"/>
		
			<rect x="767.091" y="716.568" transform="matrix(0.5743 0.8186 -0.8186 0.5743 994.0742 -289.4)" fill="#8C1243" width="16.454" height="189.223"/>
		<polygon fill="#B51B4F" points="831.663,726.757 638.979,756.754 627.305,764.945 693.142,858.784 848.043,750.105 		"/>
		<g>
			<g>
				
					<rect x="757.844" y="706.434" transform="matrix(0.5743 0.8186 -0.8186 0.5743 916.9581 -343.2667)" fill="#540E2D" width="61.429" height="7.329"/>
				
					<rect x="664.711" y="755.871" transform="matrix(0.5743 0.8186 -0.8186 0.5743 930.8005 -239.2133)" fill="#540E2D" width="61.429" height="39.141"/>
			</g>
		</g>
	</g>
	<g>
		<path fill="#1A394B" d="M1450.722,1079.517l-44.75-9.876c-1.686-0.372-2.75-2.039-2.378-3.725l15.656-70.948
			c0.372-1.685,2.04-2.75,3.726-2.378l44.75,9.876c1.686,0.372,2.75,2.039,2.378,3.725l-15.656,70.948
			C1454.075,1078.823,1452.407,1079.889,1450.722,1079.517z"/>
		<path fill="#DBD4D2" d="M1461.166,1017.179l-38.434-8.481c-0.876-0.193-1.43-1.061-1.236-1.938l1.553-7.035
			c0.193-0.877,1.061-1.43,1.937-1.236l38.435,8.481c0.876,0.193,1.43,1.061,1.236,1.937l-1.553,7.036
			C1462.91,1016.818,1462.043,1017.372,1461.166,1017.179z"/>
		<g>
			<path fill="#FD8E61" d="M1433.535,1016.535l-9.304-2.053c-0.304-0.067-0.495-0.367-0.428-0.671l0.14-0.635
				c0.067-0.304,0.367-0.495,0.671-0.429l9.303,2.054c0.304,0.066,0.495,0.367,0.429,0.67l-0.141,0.636
				C1434.139,1016.41,1433.838,1016.603,1433.535,1016.535z"/>
			<path fill="#FD8E61" d="M1457.372,1021.796l-9.303-2.054c-0.304-0.066-0.495-0.367-0.429-0.67l0.141-0.635
				c0.066-0.304,0.367-0.495,0.67-0.429l9.304,2.054c0.304,0.066,0.495,0.366,0.429,0.67l-0.141,0.635
				C1457.977,1021.671,1457.676,1021.862,1457.372,1021.796z"/>
			<path fill="#FD8E61" d="M1445.525,1019.182l-9.303-2.054c-0.304-0.066-0.495-0.367-0.428-0.67l0.14-0.636
				c0.067-0.303,0.367-0.494,0.671-0.428l9.303,2.053c0.304,0.067,0.495,0.367,0.428,0.671l-0.14,0.635
				C1446.129,1019.057,1445.829,1019.248,1445.525,1019.182z"/>
		</g>
		<g>
			<path fill="#F8A837" d="M1423.771,1026.98l-4.325-0.954c-1.146-0.253-1.87-1.387-1.617-2.533l0.954-4.325
				c0.253-1.146,1.387-1.87,2.533-1.617l4.325,0.954c1.146,0.253,1.87,1.388,1.617,2.533l-0.954,4.325
				C1426.052,1026.51,1424.917,1027.233,1423.771,1026.98z"/>
			<path fill="#F8A837" d="M1435.112,1029.483l-4.325-0.954c-1.146-0.253-1.87-1.387-1.617-2.533l0.954-4.325
				c0.253-1.146,1.387-1.87,2.533-1.617l4.325,0.954c1.146,0.253,1.87,1.387,1.617,2.533l-0.954,4.325
				C1437.393,1029.013,1436.258,1029.736,1435.112,1029.483z"/>
			<path fill="#F8A837" d="M1446.188,1031.928l-4.325-0.955c-1.146-0.252-1.87-1.387-1.617-2.532l0.954-4.325
				c0.253-1.146,1.387-1.87,2.533-1.617l4.325,0.954c1.146,0.253,1.87,1.387,1.617,2.533l-0.954,4.325
				C1448.469,1031.457,1447.334,1032.181,1446.188,1031.928z"/>
			<path fill="#F8A837" d="M1456.807,1034.271l-4.325-0.955c-1.146-0.253-1.87-1.387-1.617-2.533l0.954-4.325
				c0.253-1.146,1.388-1.87,2.533-1.617l4.326,0.955c1.146,0.253,1.869,1.387,1.616,2.532l-0.954,4.326
				C1459.087,1033.8,1457.953,1034.524,1456.807,1034.271z"/>
			<path fill="#F8A837" d="M1421.12,1038.996l-4.326-0.955c-1.146-0.253-1.87-1.387-1.616-2.533l0.954-4.325
				c0.253-1.146,1.387-1.87,2.533-1.617l4.325,0.955c1.146,0.253,1.87,1.387,1.617,2.533l-0.955,4.325
				C1423.4,1038.524,1422.266,1039.249,1421.12,1038.996z"/>
		</g>
		<path fill="#DC443F" d="M1421.691,1046.268c0.398-1.809-0.744-3.598-2.553-3.997l-1.926-0.425
			c-1.809-0.399-3.599,0.743-3.997,2.552l-0.426,1.927c-0.021,0.095-0.021,0.188-0.033,0.283c-0.028,0.091-0.067,0.176-0.089,0.271
			l-2.529,11.461c-0.398,1.809,0.744,3.599,2.553,3.997l1.926,0.426c1.809,0.398,3.599-0.744,3.997-2.553l2.529-11.461
			c0.021-0.095,0.021-0.188,0.033-0.283c0.028-0.091,0.068-0.176,0.089-0.271L1421.691,1046.268z"/>
		<g>
			<path fill="#FAF2E7" d="M1432.461,1041.499l-4.326-0.955c-1.146-0.253-1.869-1.387-1.616-2.533l0.954-4.325
				c0.253-1.146,1.387-1.87,2.533-1.617l4.325,0.955c1.146,0.252,1.87,1.387,1.617,2.532l-0.954,4.326
				C1434.741,1041.027,1433.606,1041.752,1432.461,1041.499z"/>
			<path fill="#FAF2E7" d="M1443.537,1043.943l-4.326-0.955c-1.146-0.253-1.869-1.387-1.617-2.533l0.955-4.325
				c0.253-1.146,1.387-1.87,2.533-1.617l4.325,0.954c1.146,0.254,1.87,1.388,1.617,2.533l-0.954,4.326
				C1445.816,1043.472,1444.683,1044.195,1443.537,1043.943z"/>
			<path fill="#FAF2E7" d="M1454.155,1046.286l-4.325-0.954c-1.146-0.253-1.87-1.388-1.617-2.533l0.954-4.326
				c0.253-1.146,1.388-1.869,2.533-1.616l4.325,0.954c1.146,0.253,1.87,1.387,1.617,2.533l-0.954,4.325
				C1456.436,1045.815,1455.302,1046.539,1454.155,1046.286z"/>
			<path fill="#FAF2E7" d="M1429.81,1053.514l-4.326-0.954c-1.146-0.253-1.87-1.388-1.616-2.533l0.954-4.325
				c0.253-1.146,1.387-1.87,2.533-1.617l4.325,0.954c1.146,0.253,1.87,1.387,1.617,2.533l-0.955,4.325
				C1432.09,1053.043,1430.955,1053.767,1429.81,1053.514z"/>
			<path fill="#FAF2E7" d="M1440.885,1055.958l-4.325-0.954c-1.146-0.254-1.87-1.388-1.617-2.533l0.955-4.326
				c0.253-1.146,1.387-1.869,2.533-1.616l4.325,0.954c1.146,0.253,1.87,1.387,1.617,2.533l-0.955,4.325
				C1443.165,1055.487,1442.031,1056.211,1440.885,1055.958z"/>
			<path fill="#FAF2E7" d="M1451.504,1058.301l-4.325-0.954c-1.146-0.253-1.87-1.387-1.617-2.533l0.954-4.325
				c0.253-1.146,1.387-1.87,2.533-1.617l4.325,0.955c1.146,0.252,1.87,1.387,1.617,2.532l-0.954,4.325
				C1453.784,1057.83,1452.65,1058.555,1451.504,1058.301z"/>
			<path fill="#FAF2E7" d="M1427.158,1065.529l-4.326-0.955c-1.146-0.253-1.87-1.387-1.617-2.533l0.955-4.325
				c0.253-1.146,1.387-1.87,2.533-1.617l4.325,0.954c1.146,0.254,1.87,1.388,1.617,2.533l-0.955,4.326
				C1429.438,1065.058,1428.304,1065.781,1427.158,1065.529z"/>
			<path fill="#FAF2E7" d="M1438.233,1067.973l-4.325-0.954c-1.146-0.253-1.87-1.387-1.617-2.533l0.955-4.325
				c0.253-1.146,1.387-1.87,2.533-1.617l4.325,0.955c1.146,0.252,1.87,1.387,1.617,2.532l-0.955,4.325
				C1440.514,1067.502,1439.38,1068.227,1438.233,1067.973z"/>
			<path fill="#FAF2E7" d="M1448.853,1070.316l-4.325-0.954c-1.146-0.253-1.87-1.388-1.617-2.533l0.954-4.325
				c0.253-1.146,1.387-1.87,2.533-1.617l4.325,0.954c1.146,0.253,1.87,1.387,1.617,2.533l-0.954,4.325
				C1451.133,1069.846,1449.998,1070.569,1448.853,1070.316z"/>
		</g>
	</g>
	<g>
		<g>
			<path fill="#F9F1E4" d="M991.789,974.217l-27.466,7.465c-2.087,0.567-4.239-0.664-4.807-2.752l-16.376-60.253
				c-0.567-2.087,0.665-4.24,2.752-4.807l27.466-7.465c2.087-0.567,4.239,0.665,4.807,2.752l16.376,60.254
				C995.109,971.497,993.876,973.649,991.789,974.217z"/>
			
				<rect x="950.461" y="915.622" transform="matrix(0.965 -0.2623 0.2623 0.965 -213.4824 287.0687)" fill="#264057" width="36.201" height="55.151"/>
			<path fill="#264057" d="M967.989,912.78l-14.365,3.904c-0.133,0.037-0.271-0.042-0.307-0.175l-0.102-0.376
				c-0.036-0.133,0.042-0.271,0.176-0.307l14.365-3.904c0.133-0.036,0.271,0.042,0.307,0.176l0.103,0.376
				C968.201,912.606,968.122,912.744,967.989,912.78z"/>
		</g>
		<polygon fill="#345670" points="973.431,913.298 957.04,969.818 958.327,974.555 993.26,965.06 978.796,911.84 		"/>
	</g>
	<g>
		<path fill="#F9F1E4" d="M1531.272,795.332l-28.014,67.597c-0.438,1.059-1.653,1.562-2.713,1.123l-91.747-38.021
			c-1.06-0.439-1.563-1.654-1.123-2.713l28.013-67.597c0.438-1.059,1.653-1.562,2.713-1.123l91.747,38.021
			C1531.208,793.058,1531.711,794.273,1531.272,795.332z"/>
		
			<rect x="1433.22" y="768.317" transform="matrix(0.3828 -0.9238 0.9238 0.3828 158.8386 1855.5975)" fill="#264057" width="70.01" height="81.201"/>
		<path fill="#264057" d="M1432.387,781.673l-7.378,17.802c-0.05,0.122-0.19,0.18-0.312,0.129l-0.585-0.242
			c-0.122-0.05-0.18-0.19-0.129-0.312l7.377-17.802c0.051-0.122,0.19-0.18,0.313-0.129l0.584,0.242
			C1432.379,781.412,1432.438,781.551,1432.387,781.673z"/>
		<polygon fill="#345670" points="1440.003,770.968 1485.654,854.033 1492.331,856.799 1519.134,792.123 1444.119,761.035 		"/>
		<circle fill="#F4DEBE" cx="1511.347" cy="826.678" r="3.879"/>
	</g>
	<g>
		<g>
			<path fill="#345670" d="M1341.171,934.757h-282.75c-4.787,0-8.667-3.88-8.667-8.667V758.962h300.084V926.09
				C1349.838,930.877,1345.957,934.757,1341.171,934.757z"/>
			<path fill="#393947" d="M1244.42,919.921h-89.249c-2.255,0-4.083-1.828-4.083-4.083v-33.823c0-2.255,1.828-4.083,4.083-4.083
				h89.249c2.255,0,4.083,1.828,4.083,4.083v33.823C1248.503,918.093,1246.675,919.921,1244.42,919.921z"/>
			<rect x="1057.872" y="773.518" fill="#393947" width="284.967" height="96.576"/>
		</g>
		<g>
			<path fill="#E6E6E6" d="M1075.155,787.047h-9.05c-0.759,0-1.375-0.616-1.375-1.375v-2.941c0-0.759,0.616-1.375,1.375-1.375h9.05
				c0.76,0,1.375,0.616,1.375,1.375v2.941C1076.53,786.431,1075.915,787.047,1075.155,787.047z"/>
			<g>
				<path fill="#E6E6E6" d="M1089.579,787.047h-9.051c-0.759,0-1.375-0.616-1.375-1.375v-2.941c0-0.759,0.616-1.375,1.375-1.375
					h9.051c0.759,0,1.375,0.616,1.375,1.375v2.941C1090.954,786.431,1090.338,787.047,1089.579,787.047z"/>
				<path fill="#E6E6E6" d="M1103.856,787.047h-9.051c-0.759,0-1.375-0.616-1.375-1.375v-2.941c0-0.759,0.616-1.375,1.375-1.375
					h9.051c0.759,0,1.375,0.616,1.375,1.375v2.941C1105.231,786.431,1104.615,787.047,1103.856,787.047z"/>
			</g>
			<g>
				<path fill="#E6E6E6" d="M1118.716,787.047h-9.051c-0.759,0-1.375-0.616-1.375-1.375v-2.941c0-0.759,0.616-1.375,1.375-1.375
					h9.051c0.76,0,1.375,0.616,1.375,1.375v2.941C1120.091,786.431,1119.476,787.047,1118.716,787.047z"/>
				<path fill="#E6E6E6" d="M1132.993,787.047h-9.051c-0.759,0-1.375-0.616-1.375-1.375v-2.941c0-0.759,0.616-1.375,1.375-1.375
					h9.051c0.76,0,1.375,0.616,1.375,1.375v2.941C1134.368,786.431,1133.753,787.047,1132.993,787.047z"/>
			</g>
			<g>
				<path fill="#E6E6E6" d="M1147.78,787.047h-9.051c-0.759,0-1.375-0.616-1.375-1.375v-2.941c0-0.759,0.616-1.375,1.375-1.375
					h9.051c0.76,0,1.375,0.616,1.375,1.375v2.941C1149.155,786.431,1148.54,787.047,1147.78,787.047z"/>
				<path fill="#E6E6E6" d="M1162.058,787.047h-9.05c-0.76,0-1.375-0.616-1.375-1.375v-2.941c0-0.759,0.615-1.375,1.375-1.375h9.05
					c0.76,0,1.375,0.616,1.375,1.375v2.941C1163.433,786.431,1162.817,787.047,1162.058,787.047z"/>
			</g>
			<g>
				<path fill="#E6E6E6" d="M1176.554,787.047h-9.051c-0.759,0-1.375-0.616-1.375-1.375v-2.941c0-0.759,0.616-1.375,1.375-1.375
					h9.051c0.76,0,1.375,0.616,1.375,1.375v2.941C1177.929,786.431,1177.313,787.047,1176.554,787.047z"/>
				<path fill="#E6E6E6" d="M1190.831,787.047h-9.051c-0.759,0-1.375-0.616-1.375-1.375v-2.941c0-0.759,0.616-1.375,1.375-1.375
					h9.051c0.76,0,1.375,0.616,1.375,1.375v2.941C1192.206,786.431,1191.591,787.047,1190.831,787.047z"/>
			</g>
			<g>
				<path fill="#E6E6E6" d="M1205.254,787.047h-9.051c-0.759,0-1.375-0.616-1.375-1.375v-2.941c0-0.759,0.616-1.375,1.375-1.375
					h9.051c0.76,0,1.375,0.616,1.375,1.375v2.941C1206.629,786.431,1206.014,787.047,1205.254,787.047z"/>
				<path fill="#E6E6E6" d="M1219.531,787.047h-9.051c-0.759,0-1.375-0.616-1.375-1.375v-2.941c0-0.759,0.616-1.375,1.375-1.375
					h9.051c0.76,0,1.375,0.616,1.375,1.375v2.941C1220.906,786.431,1220.291,787.047,1219.531,787.047z"/>
			</g>
			<g>
				<path fill="#E6E6E6" d="M1234.392,787.047h-9.051c-0.759,0-1.375-0.616-1.375-1.375v-2.941c0-0.759,0.616-1.375,1.375-1.375
					h9.051c0.76,0,1.375,0.616,1.375,1.375v2.941C1235.767,786.431,1235.151,787.047,1234.392,787.047z"/>
				<path fill="#E6E6E6" d="M1248.669,787.047h-9.051c-0.759,0-1.375-0.616-1.375-1.375v-2.941c0-0.759,0.616-1.375,1.375-1.375
					h9.051c0.76,0,1.375,0.616,1.375,1.375v2.941C1250.044,786.431,1249.429,787.047,1248.669,787.047z"/>
			</g>
			<g>
				<path fill="#E6E6E6" d="M1263.456,787.047h-9.051c-0.759,0-1.375-0.616-1.375-1.375v-2.941c0-0.759,0.616-1.375,1.375-1.375
					h9.051c0.76,0,1.375,0.616,1.375,1.375v2.941C1264.831,786.431,1264.216,787.047,1263.456,787.047z"/>
				<path fill="#E6E6E6" d="M1277.733,787.047h-9.051c-0.759,0-1.375-0.616-1.375-1.375v-2.941c0-0.759,0.616-1.375,1.375-1.375
					h9.051c0.76,0,1.375,0.616,1.375,1.375v2.941C1279.108,786.431,1278.493,787.047,1277.733,787.047z"/>
			</g>
			<path fill="#E6E6E6" d="M1263.456,787.047h-9.051c-0.759,0-1.375-0.616-1.375-1.375v-2.941c0-0.759,0.616-1.375,1.375-1.375
				h9.051c0.76,0,1.375,0.616,1.375,1.375v2.941C1264.831,786.431,1264.216,787.047,1263.456,787.047z"/>
			<path fill="#E6E6E6" d="M1277.733,787.047h-9.051c-0.759,0-1.375-0.616-1.375-1.375v-2.941c0-0.759,0.616-1.375,1.375-1.375
				h9.051c0.76,0,1.375,0.616,1.375,1.375v2.941C1279.108,786.431,1278.493,787.047,1277.733,787.047z"/>
			<path fill="#E6E6E6" d="M1292.521,787.047h-9.051c-0.759,0-1.375-0.616-1.375-1.375v-2.941c0-0.759,0.616-1.375,1.375-1.375
				h9.051c0.76,0,1.375,0.616,1.375,1.375v2.941C1293.896,786.431,1293.28,787.047,1292.521,787.047z"/>
			<path fill="#E6E6E6" d="M1306.798,787.047h-9.051c-0.759,0-1.375-0.616-1.375-1.375v-2.941c0-0.759,0.616-1.375,1.375-1.375
				h9.051c0.76,0,1.375,0.616,1.375,1.375v2.941C1308.173,786.431,1307.558,787.047,1306.798,787.047z"/>
			<path fill="#E6E6E6" d="M1321.658,787.047h-9.051c-0.76,0-1.375-0.616-1.375-1.375v-2.941c0-0.759,0.615-1.375,1.375-1.375h9.051
				c0.76,0,1.375,0.616,1.375,1.375v2.941C1323.033,786.431,1322.418,787.047,1321.658,787.047z"/>
			<path fill="#E6E6E6" d="M1335.936,787.047h-9.051c-0.76,0-1.375-0.616-1.375-1.375v-2.941c0-0.759,0.615-1.375,1.375-1.375h9.051
				c0.76,0,1.375,0.616,1.375,1.375v2.941C1337.311,786.431,1336.695,787.047,1335.936,787.047z"/>
			<path fill="#E6E6E6" d="M1089.579,800.741h-23.474c-0.759,0-1.375-0.616-1.375-1.375v-6.72c0-0.759,0.616-1.375,1.375-1.375
				h23.474c0.759,0,1.375,0.616,1.375,1.375v6.72C1090.954,800.125,1090.338,800.741,1089.579,800.741z"/>
			<g>
				<path fill="#E6E6E6" d="M1089.579,800.741h-9.051c-0.759,0-1.375-0.616-1.375-1.375v-6.72c0-0.759,0.616-1.375,1.375-1.375
					h9.051c0.759,0,1.375,0.616,1.375,1.375v6.72C1090.954,800.125,1090.338,800.741,1089.579,800.741z"/>
				<path fill="#E6E6E6" d="M1103.856,800.741h-9.051c-0.759,0-1.375-0.616-1.375-1.375v-6.72c0-0.759,0.616-1.375,1.375-1.375
					h9.051c0.759,0,1.375,0.616,1.375,1.375v6.72C1105.231,800.125,1104.615,800.741,1103.856,800.741z"/>
			</g>
			<g>
				<path fill="#E6E6E6" d="M1118.716,800.741h-9.051c-0.759,0-1.375-0.616-1.375-1.375v-6.72c0-0.759,0.616-1.375,1.375-1.375
					h9.051c0.76,0,1.375,0.616,1.375,1.375v6.72C1120.091,800.125,1119.476,800.741,1118.716,800.741z"/>
				<path fill="#E6E6E6" d="M1132.993,800.741h-9.051c-0.759,0-1.375-0.616-1.375-1.375v-6.72c0-0.759,0.616-1.375,1.375-1.375
					h9.051c0.76,0,1.375,0.616,1.375,1.375v6.72C1134.368,800.125,1133.753,800.741,1132.993,800.741z"/>
			</g>
			<g>
				<path fill="#E6E6E6" d="M1147.78,800.741h-9.051c-0.759,0-1.375-0.616-1.375-1.375v-6.72c0-0.759,0.616-1.375,1.375-1.375h9.051
					c0.76,0,1.375,0.616,1.375,1.375v6.72C1149.155,800.125,1148.54,800.741,1147.78,800.741z"/>
				<path fill="#E6E6E6" d="M1162.058,800.741h-9.05c-0.76,0-1.375-0.616-1.375-1.375v-6.72c0-0.759,0.615-1.375,1.375-1.375h9.05
					c0.76,0,1.375,0.616,1.375,1.375v6.72C1163.433,800.125,1162.817,800.741,1162.058,800.741z"/>
			</g>
			<g>
				<path fill="#E6E6E6" d="M1176.554,800.741h-9.051c-0.759,0-1.375-0.616-1.375-1.375v-6.72c0-0.759,0.616-1.375,1.375-1.375
					h9.051c0.76,0,1.375,0.616,1.375,1.375v6.72C1177.929,800.125,1177.313,800.741,1176.554,800.741z"/>
				<path fill="#E6E6E6" d="M1190.831,800.741h-9.051c-0.759,0-1.375-0.616-1.375-1.375v-6.72c0-0.759,0.616-1.375,1.375-1.375
					h9.051c0.76,0,1.375,0.616,1.375,1.375v6.72C1192.206,800.125,1191.591,800.741,1190.831,800.741z"/>
			</g>
			<g>
				<path fill="#E6E6E6" d="M1205.254,800.741h-9.051c-0.759,0-1.375-0.616-1.375-1.375v-6.72c0-0.759,0.616-1.375,1.375-1.375
					h9.051c0.76,0,1.375,0.616,1.375,1.375v6.72C1206.629,800.125,1206.014,800.741,1205.254,800.741z"/>
				<path fill="#E6E6E6" d="M1219.531,800.741h-9.051c-0.759,0-1.375-0.616-1.375-1.375v-6.72c0-0.759,0.616-1.375,1.375-1.375
					h9.051c0.76,0,1.375,0.616,1.375,1.375v6.72C1220.906,800.125,1220.291,800.741,1219.531,800.741z"/>
			</g>
			<g>
				<path fill="#E6E6E6" d="M1234.392,800.741h-9.051c-0.759,0-1.375-0.616-1.375-1.375v-6.72c0-0.759,0.616-1.375,1.375-1.375
					h9.051c0.76,0,1.375,0.616,1.375,1.375v6.72C1235.767,800.125,1235.151,800.741,1234.392,800.741z"/>
				<path fill="#E6E6E6" d="M1248.669,800.741h-9.051c-0.759,0-1.375-0.616-1.375-1.375v-6.72c0-0.759,0.616-1.375,1.375-1.375
					h9.051c0.76,0,1.375,0.616,1.375,1.375v6.72C1250.044,800.125,1249.429,800.741,1248.669,800.741z"/>
			</g>
			<g>
				<path fill="#E6E6E6" d="M1263.456,800.741h-9.051c-0.759,0-1.375-0.616-1.375-1.375v-6.72c0-0.759,0.616-1.375,1.375-1.375
					h9.051c0.76,0,1.375,0.616,1.375,1.375v6.72C1264.831,800.125,1264.216,800.741,1263.456,800.741z"/>
				<path fill="#E6E6E6" d="M1277.733,800.741h-9.051c-0.759,0-1.375-0.616-1.375-1.375v-6.72c0-0.759,0.616-1.375,1.375-1.375
					h9.051c0.76,0,1.375,0.616,1.375,1.375v6.72C1279.108,800.125,1278.493,800.741,1277.733,800.741z"/>
			</g>
			<path fill="#E6E6E6" d="M1263.456,800.741h-9.051c-0.759,0-1.375-0.616-1.375-1.375v-6.72c0-0.759,0.616-1.375,1.375-1.375h9.051
				c0.76,0,1.375,0.616,1.375,1.375v6.72C1264.831,800.125,1264.216,800.741,1263.456,800.741z"/>
			<path fill="#E6E6E6" d="M1277.733,800.741h-9.051c-0.759,0-1.375-0.616-1.375-1.375v-6.72c0-0.759,0.616-1.375,1.375-1.375h9.051
				c0.76,0,1.375,0.616,1.375,1.375v6.72C1279.108,800.125,1278.493,800.741,1277.733,800.741z"/>
			<path fill="#E6E6E6" d="M1292.521,800.741h-9.051c-0.759,0-1.375-0.616-1.375-1.375v-6.72c0-0.759,0.616-1.375,1.375-1.375h9.051
				c0.76,0,1.375,0.616,1.375,1.375v6.72C1293.896,800.125,1293.28,800.741,1292.521,800.741z"/>
			<path fill="#E6E6E6" d="M1306.798,800.741h-9.051c-0.759,0-1.375-0.616-1.375-1.375v-6.72c0-0.759,0.616-1.375,1.375-1.375h9.051
				c0.76,0,1.375,0.616,1.375,1.375v6.72C1308.173,800.125,1307.558,800.741,1306.798,800.741z"/>
			<path fill="#E6E6E6" d="M1321.658,800.741h-9.051c-0.76,0-1.375-0.616-1.375-1.375v-6.72c0-0.759,0.615-1.375,1.375-1.375h9.051
				c0.76,0,1.375,0.616,1.375,1.375v6.72C1323.033,800.125,1322.418,800.741,1321.658,800.741z"/>
			<path fill="#E6E6E6" d="M1335.936,800.741h-9.051c-0.76,0-1.375-0.616-1.375-1.375v-6.72c0-0.759,0.615-1.375,1.375-1.375h9.051
				c0.76,0,1.375,0.616,1.375,1.375v6.72C1337.311,800.125,1336.695,800.741,1335.936,800.741z"/>
			<path fill="#E6E6E6" d="M1086.169,814.436h-20.064c-0.759,0-1.375-0.615-1.375-1.375v-6.719c0-0.759,0.616-1.375,1.375-1.375
				h20.064c0.76,0,1.375,0.616,1.375,1.375v6.719C1087.544,813.82,1086.929,814.436,1086.169,814.436z"/>
			<path fill="#E6E6E6" d="M1103.856,814.436h-9.051c-0.759,0-1.375-0.615-1.375-1.375v-6.72c0-0.759,0.616-1.375,1.375-1.375h9.051
				c0.759,0,1.375,0.616,1.375,1.375v6.72C1105.231,813.82,1104.615,814.436,1103.856,814.436z"/>
			<g>
				<path fill="#E6E6E6" d="M1118.716,814.436h-9.051c-0.759,0-1.375-0.615-1.375-1.375v-6.72c0-0.759,0.616-1.375,1.375-1.375
					h9.051c0.76,0,1.375,0.616,1.375,1.375v6.72C1120.091,813.82,1119.476,814.436,1118.716,814.436z"/>
				<path fill="#E6E6E6" d="M1132.993,814.436h-9.051c-0.759,0-1.375-0.615-1.375-1.375v-6.72c0-0.759,0.616-1.375,1.375-1.375
					h9.051c0.76,0,1.375,0.616,1.375,1.375v6.72C1134.368,813.82,1133.753,814.436,1132.993,814.436z"/>
			</g>
			<g>
				<path fill="#E6E6E6" d="M1147.78,814.436h-9.051c-0.759,0-1.375-0.615-1.375-1.375v-6.72c0-0.759,0.616-1.375,1.375-1.375h9.051
					c0.76,0,1.375,0.616,1.375,1.375v6.72C1149.155,813.82,1148.54,814.436,1147.78,814.436z"/>
				<path fill="#E6E6E6" d="M1162.058,814.436h-9.05c-0.76,0-1.375-0.615-1.375-1.375v-6.72c0-0.759,0.615-1.375,1.375-1.375h9.05
					c0.76,0,1.375,0.616,1.375,1.375v6.72C1163.433,813.82,1162.817,814.436,1162.058,814.436z"/>
			</g>
			<g>
				<path fill="#E6E6E6" d="M1176.554,814.436h-9.051c-0.759,0-1.375-0.615-1.375-1.375v-6.72c0-0.759,0.616-1.375,1.375-1.375
					h9.051c0.76,0,1.375,0.616,1.375,1.375v6.72C1177.929,813.82,1177.313,814.436,1176.554,814.436z"/>
				<path fill="#E6E6E6" d="M1190.831,814.436h-9.051c-0.759,0-1.375-0.615-1.375-1.375v-6.72c0-0.759,0.616-1.375,1.375-1.375
					h9.051c0.76,0,1.375,0.616,1.375,1.375v6.72C1192.206,813.82,1191.591,814.436,1190.831,814.436z"/>
			</g>
			<g>
				<path fill="#E6E6E6" d="M1205.254,814.436h-9.051c-0.759,0-1.375-0.615-1.375-1.375v-6.72c0-0.759,0.616-1.375,1.375-1.375
					h9.051c0.76,0,1.375,0.616,1.375,1.375v6.72C1206.629,813.82,1206.014,814.436,1205.254,814.436z"/>
				<path fill="#E6E6E6" d="M1219.531,814.436h-9.051c-0.759,0-1.375-0.615-1.375-1.375v-6.72c0-0.759,0.616-1.375,1.375-1.375
					h9.051c0.76,0,1.375,0.616,1.375,1.375v6.72C1220.906,813.82,1220.291,814.436,1219.531,814.436z"/>
			</g>
			<g>
				<path fill="#E6E6E6" d="M1234.392,814.436h-9.051c-0.759,0-1.375-0.615-1.375-1.375v-6.72c0-0.759,0.616-1.375,1.375-1.375
					h9.051c0.76,0,1.375,0.616,1.375,1.375v6.72C1235.767,813.82,1235.151,814.436,1234.392,814.436z"/>
				<path fill="#E6E6E6" d="M1248.669,814.436h-9.051c-0.759,0-1.375-0.615-1.375-1.375v-6.72c0-0.759,0.616-1.375,1.375-1.375
					h9.051c0.76,0,1.375,0.616,1.375,1.375v6.72C1250.044,813.82,1249.429,814.436,1248.669,814.436z"/>
			</g>
			<g>
				<path fill="#E6E6E6" d="M1263.456,814.436h-9.051c-0.759,0-1.375-0.615-1.375-1.375v-6.72c0-0.759,0.616-1.375,1.375-1.375
					h9.051c0.76,0,1.375,0.616,1.375,1.375v6.72C1264.831,813.82,1264.216,814.436,1263.456,814.436z"/>
				<path fill="#E6E6E6" d="M1277.733,814.436h-9.051c-0.759,0-1.375-0.615-1.375-1.375v-6.72c0-0.759,0.616-1.375,1.375-1.375
					h9.051c0.76,0,1.375,0.616,1.375,1.375v6.72C1279.108,813.82,1278.493,814.436,1277.733,814.436z"/>
			</g>
			<path fill="#E6E6E6" d="M1263.456,814.436h-9.051c-0.759,0-1.375-0.615-1.375-1.375v-6.72c0-0.759,0.616-1.375,1.375-1.375h9.051
				c0.76,0,1.375,0.616,1.375,1.375v6.72C1264.831,813.82,1264.216,814.436,1263.456,814.436z"/>
			<path fill="#E6E6E6" d="M1277.733,814.436h-9.051c-0.759,0-1.375-0.615-1.375-1.375v-6.72c0-0.759,0.616-1.375,1.375-1.375h9.051
				c0.76,0,1.375,0.616,1.375,1.375v6.72C1279.108,813.82,1278.493,814.436,1277.733,814.436z"/>
			<path fill="#E6E6E6" d="M1292.521,814.436h-9.051c-0.759,0-1.375-0.615-1.375-1.375v-6.72c0-0.759,0.616-1.375,1.375-1.375h9.051
				c0.76,0,1.375,0.616,1.375,1.375v6.72C1293.896,813.82,1293.28,814.436,1292.521,814.436z"/>
			<path fill="#E6E6E6" d="M1306.798,814.436h-9.051c-0.759,0-1.375-0.615-1.375-1.375v-6.72c0-0.759,0.616-1.375,1.375-1.375h9.051
				c0.76,0,1.375,0.616,1.375,1.375v6.72C1308.173,813.82,1307.558,814.436,1306.798,814.436z"/>
			<path fill="#E6E6E6" d="M1321.658,814.436h-9.051c-0.76,0-1.375-0.615-1.375-1.375v-6.72c0-0.759,0.615-1.375,1.375-1.375h9.051
				c0.76,0,1.375,0.616,1.375,1.375v6.72C1323.033,813.82,1322.418,814.436,1321.658,814.436z"/>
			<path fill="#E6E6E6" d="M1335.936,814.436h-23.328c-0.76,0-1.375-0.615-1.375-1.375v-6.72c0-0.759,0.615-1.375,1.375-1.375
				h23.328c0.76,0,1.375,0.616,1.375,1.375v6.72C1337.311,813.82,1336.695,814.436,1335.936,814.436z"/>
			<path fill="#E6E6E6" d="M1089.579,828.13h-23.474c-0.759,0-1.375-0.616-1.375-1.375v-6.72c0-0.759,0.616-1.375,1.375-1.375
				h23.474c0.759,0,1.375,0.616,1.375,1.375v6.72C1090.954,827.515,1090.338,828.13,1089.579,828.13z"/>
			<path fill="#E6E6E6" d="M1103.856,828.13h-9.051c-0.759,0-1.375-0.616-1.375-1.375v-6.72c0-0.759,0.616-1.375,1.375-1.375h9.051
				c0.759,0,1.375,0.616,1.375,1.375v6.72C1105.231,827.515,1104.615,828.13,1103.856,828.13z"/>
			<g>
				<path fill="#E6E6E6" d="M1118.716,828.13h-9.051c-0.759,0-1.375-0.616-1.375-1.375v-6.72c0-0.759,0.616-1.375,1.375-1.375h9.051
					c0.76,0,1.375,0.616,1.375,1.375v6.72C1120.091,827.515,1119.476,828.13,1118.716,828.13z"/>
				<path fill="#E6E6E6" d="M1132.993,828.13h-9.051c-0.759,0-1.375-0.616-1.375-1.375v-6.72c0-0.759,0.616-1.375,1.375-1.375h9.051
					c0.76,0,1.375,0.616,1.375,1.375v6.72C1134.368,827.515,1133.753,828.13,1132.993,828.13z"/>
			</g>
			<g>
				<path fill="#E6E6E6" d="M1147.78,828.13h-9.051c-0.759,0-1.375-0.616-1.375-1.375v-6.72c0-0.759,0.616-1.375,1.375-1.375h9.051
					c0.76,0,1.375,0.616,1.375,1.375v6.72C1149.155,827.515,1148.54,828.13,1147.78,828.13z"/>
				<path fill="#E6E6E6" d="M1162.058,828.13h-9.05c-0.76,0-1.375-0.616-1.375-1.375v-6.72c0-0.759,0.615-1.375,1.375-1.375h9.05
					c0.76,0,1.375,0.616,1.375,1.375v6.72C1163.433,827.515,1162.817,828.13,1162.058,828.13z"/>
			</g>
			<g>
				<path fill="#E6E6E6" d="M1176.554,828.13h-9.051c-0.759,0-1.375-0.616-1.375-1.375v-6.72c0-0.759,0.616-1.375,1.375-1.375h9.051
					c0.76,0,1.375,0.616,1.375,1.375v6.72C1177.929,827.515,1177.313,828.13,1176.554,828.13z"/>
				<path fill="#E6E6E6" d="M1190.831,828.13h-9.051c-0.759,0-1.375-0.616-1.375-1.375v-6.72c0-0.759,0.616-1.375,1.375-1.375h9.051
					c0.76,0,1.375,0.616,1.375,1.375v6.72C1192.206,827.515,1191.591,828.13,1190.831,828.13z"/>
			</g>
			<g>
				<path fill="#E6E6E6" d="M1205.254,828.13h-9.051c-0.759,0-1.375-0.616-1.375-1.375v-6.72c0-0.759,0.616-1.375,1.375-1.375h9.051
					c0.76,0,1.375,0.616,1.375,1.375v6.72C1206.629,827.515,1206.014,828.13,1205.254,828.13z"/>
				<path fill="#E6E6E6" d="M1219.531,828.13h-9.051c-0.759,0-1.375-0.616-1.375-1.375v-6.72c0-0.759,0.616-1.375,1.375-1.375h9.051
					c0.76,0,1.375,0.616,1.375,1.375v6.72C1220.906,827.515,1220.291,828.13,1219.531,828.13z"/>
			</g>
			<g>
				<path fill="#E6E6E6" d="M1234.392,828.13h-9.051c-0.759,0-1.375-0.616-1.375-1.375v-6.72c0-0.759,0.616-1.375,1.375-1.375h9.051
					c0.76,0,1.375,0.616,1.375,1.375v6.72C1235.767,827.515,1235.151,828.13,1234.392,828.13z"/>
				<path fill="#E6E6E6" d="M1248.669,828.13h-9.051c-0.759,0-1.375-0.616-1.375-1.375v-6.72c0-0.759,0.616-1.375,1.375-1.375h9.051
					c0.76,0,1.375,0.616,1.375,1.375v6.72C1250.044,827.515,1249.429,828.13,1248.669,828.13z"/>
			</g>
			<g>
				<path fill="#E6E6E6" d="M1263.456,828.13h-9.051c-0.759,0-1.375-0.616-1.375-1.375v-6.72c0-0.759,0.616-1.375,1.375-1.375h9.051
					c0.76,0,1.375,0.616,1.375,1.375v6.72C1264.831,827.515,1264.216,828.13,1263.456,828.13z"/>
				<path fill="#E6E6E6" d="M1277.733,828.13h-9.051c-0.759,0-1.375-0.616-1.375-1.375v-6.72c0-0.759,0.616-1.375,1.375-1.375h9.051
					c0.76,0,1.375,0.616,1.375,1.375v6.72C1279.108,827.515,1278.493,828.13,1277.733,828.13z"/>
			</g>
			<path fill="#E6E6E6" d="M1271.833,828.13h-17.428c-0.759,0-1.375-0.616-1.375-1.375v-6.72c0-0.759,0.616-1.375,1.375-1.375
				h17.428c0.76,0,1.375,0.616,1.375,1.375v6.72C1273.208,827.515,1272.593,828.13,1271.833,828.13z"/>
			<path fill="#E6E6E6" d="M1277.733,828.13h-9.051c-0.759,0-1.375-0.616-1.375-1.375v-20.414c0-0.759,0.616-1.375,1.375-1.375
				h9.051c0.76,0,1.375,0.616,1.375,1.375v20.414C1279.108,827.515,1278.493,828.13,1277.733,828.13z"/>
			<path fill="#E6E6E6" d="M1292.521,828.13h-9.051c-0.759,0-1.375-0.616-1.375-1.375v-6.72c0-0.759,0.616-1.375,1.375-1.375h9.051
				c0.76,0,1.375,0.616,1.375,1.375v6.72C1293.896,827.515,1293.28,828.13,1292.521,828.13z"/>
			<path fill="#E6E6E6" d="M1306.798,828.13h-9.051c-0.759,0-1.375-0.616-1.375-1.375v-6.72c0-0.759,0.616-1.375,1.375-1.375h9.051
				c0.76,0,1.375,0.616,1.375,1.375v6.72C1308.173,827.515,1307.558,828.13,1306.798,828.13z"/>
			<path fill="#E6E6E6" d="M1321.658,828.13h-9.051c-0.76,0-1.375-0.616-1.375-1.375v-6.72c0-0.759,0.615-1.375,1.375-1.375h9.051
				c0.76,0,1.375,0.616,1.375,1.375v6.72C1323.033,827.515,1322.418,828.13,1321.658,828.13z"/>
			<path fill="#E6E6E6" d="M1335.936,828.13h-38.188c-0.759,0-1.375-0.616-1.375-1.375v-6.72c0-0.759,0.616-1.375,1.375-1.375
				h38.188c0.76,0,1.375,0.616,1.375,1.375v6.72C1337.311,827.515,1336.695,828.13,1335.936,828.13z"/>
			<path fill="#E6E6E6" d="M1075.155,842.48h-9.05c-0.759,0-1.375-0.615-1.375-1.375v-6.719c0-0.76,0.616-1.375,1.375-1.375h9.05
				c0.76,0,1.375,0.615,1.375,1.375v6.719C1076.53,841.865,1075.915,842.48,1075.155,842.48z"/>
			<g>
				<path fill="#E6E6E6" d="M1089.579,842.48h-9.051c-0.759,0-1.375-0.615-1.375-1.375v-6.719c0-0.76,0.616-1.375,1.375-1.375h9.051
					c0.759,0,1.375,0.615,1.375,1.375v6.719C1090.954,841.865,1090.338,842.48,1089.579,842.48z"/>
				<path fill="#E6E6E6" d="M1103.856,842.48h-9.051c-0.759,0-1.375-0.615-1.375-1.375v-6.719c0-0.76,0.616-1.375,1.375-1.375h9.051
					c0.759,0,1.375,0.615,1.375,1.375v6.719C1105.231,841.865,1104.615,842.48,1103.856,842.48z"/>
			</g>
			<g>
				<path fill="#E6E6E6" d="M1118.716,842.48h-9.051c-0.759,0-1.375-0.615-1.375-1.375v-6.719c0-0.76,0.616-1.375,1.375-1.375h9.051
					c0.76,0,1.375,0.615,1.375,1.375v6.719C1120.091,841.865,1119.476,842.48,1118.716,842.48z"/>
				<path fill="#E6E6E6" d="M1132.993,842.48h-9.051c-0.759,0-1.375-0.615-1.375-1.375v-6.719c0-0.76,0.616-1.375,1.375-1.375h9.051
					c0.76,0,1.375,0.615,1.375,1.375v6.719C1134.368,841.865,1133.753,842.48,1132.993,842.48z"/>
			</g>
			<g>
				<path fill="#E6E6E6" d="M1147.78,842.48h-9.051c-0.759,0-1.375-0.615-1.375-1.375v-6.719c0-0.76,0.616-1.375,1.375-1.375h9.051
					c0.76,0,1.375,0.615,1.375,1.375v6.719C1149.155,841.865,1148.54,842.48,1147.78,842.48z"/>
				<path fill="#E6E6E6" d="M1162.058,842.48h-9.05c-0.76,0-1.375-0.615-1.375-1.375v-6.719c0-0.76,0.615-1.375,1.375-1.375h9.05
					c0.76,0,1.375,0.615,1.375,1.375v6.719C1163.433,841.865,1162.817,842.48,1162.058,842.48z"/>
			</g>
			<g>
				<path fill="#E6E6E6" d="M1176.554,842.48h-9.051c-0.759,0-1.375-0.615-1.375-1.375v-6.719c0-0.76,0.616-1.375,1.375-1.375h9.051
					c0.76,0,1.375,0.615,1.375,1.375v6.719C1177.929,841.865,1177.313,842.48,1176.554,842.48z"/>
				<path fill="#E6E6E6" d="M1190.831,842.48h-9.051c-0.759,0-1.375-0.615-1.375-1.375v-6.719c0-0.76,0.616-1.375,1.375-1.375h9.051
					c0.76,0,1.375,0.615,1.375,1.375v6.719C1192.206,841.865,1191.591,842.48,1190.831,842.48z"/>
			</g>
			<g>
				<path fill="#E6E6E6" d="M1205.254,842.48h-9.051c-0.759,0-1.375-0.615-1.375-1.375v-6.719c0-0.76,0.616-1.375,1.375-1.375h9.051
					c0.76,0,1.375,0.615,1.375,1.375v6.719C1206.629,841.865,1206.014,842.48,1205.254,842.48z"/>
				<path fill="#E6E6E6" d="M1219.531,842.48h-9.051c-0.759,0-1.375-0.615-1.375-1.375v-6.719c0-0.76,0.616-1.375,1.375-1.375h9.051
					c0.76,0,1.375,0.615,1.375,1.375v6.719C1220.906,841.865,1220.291,842.48,1219.531,842.48z"/>
			</g>
			<g>
				<path fill="#E6E6E6" d="M1234.392,842.48h-9.051c-0.759,0-1.375-0.615-1.375-1.375v-6.719c0-0.76,0.616-1.375,1.375-1.375h9.051
					c0.76,0,1.375,0.615,1.375,1.375v6.719C1235.767,841.865,1235.151,842.48,1234.392,842.48z"/>
				<path fill="#E6E6E6" d="M1248.669,842.48h-9.051c-0.759,0-1.375-0.615-1.375-1.375v-6.719c0-0.76,0.616-1.375,1.375-1.375h9.051
					c0.76,0,1.375,0.615,1.375,1.375v6.719C1250.044,841.865,1249.429,842.48,1248.669,842.48z"/>
			</g>
			<g>
				<path fill="#E6E6E6" d="M1263.456,842.48h-9.051c-0.759,0-1.375-0.615-1.375-1.375v-6.719c0-0.76,0.616-1.375,1.375-1.375h9.051
					c0.76,0,1.375,0.615,1.375,1.375v6.719C1264.831,841.865,1264.216,842.48,1263.456,842.48z"/>
				<path fill="#E6E6E6" d="M1277.733,842.48h-9.051c-0.759,0-1.375-0.615-1.375-1.375v-6.719c0-0.76,0.616-1.375,1.375-1.375h9.051
					c0.76,0,1.375,0.615,1.375,1.375v6.719C1279.108,841.865,1278.493,842.48,1277.733,842.48z"/>
			</g>
			<path fill="#E6E6E6" d="M1271.833,842.48h-17.428c-0.759,0-1.375-0.615-1.375-1.375V826.12c0-0.76,0.616-1.375,1.375-1.375
				h17.428c0.76,0,1.375,0.615,1.375,1.375v14.985C1273.208,841.865,1272.593,842.48,1271.833,842.48z"/>
			<path fill="#E6E6E6" d="M1277.733,842.48h-9.051c-0.759,0-1.375-0.615-1.375-1.375v-16.335c0-0.759,0.616-1.375,1.375-1.375
				h9.051c0.76,0,1.375,0.616,1.375,1.375v16.335C1279.108,841.865,1278.493,842.48,1277.733,842.48z"/>
			<path fill="#E6E6E6" d="M1292.521,842.48h-9.051c-0.759,0-1.375-0.615-1.375-1.375v-6.719c0-0.76,0.616-1.375,1.375-1.375h9.051
				c0.76,0,1.375,0.615,1.375,1.375v6.719C1293.896,841.865,1293.28,842.48,1292.521,842.48z"/>
			<path fill="#E6E6E6" d="M1306.798,842.48h-9.051c-0.759,0-1.375-0.615-1.375-1.375v-6.719c0-0.76,0.616-1.375,1.375-1.375h9.051
				c0.76,0,1.375,0.615,1.375,1.375v6.719C1308.173,841.865,1307.558,842.48,1306.798,842.48z"/>
			<path fill="#E6E6E6" d="M1321.658,842.48h-9.051c-0.76,0-1.375-0.615-1.375-1.375v-6.719c0-0.76,0.615-1.375,1.375-1.375h9.051
				c0.76,0,1.375,0.615,1.375,1.375v6.719C1323.033,841.865,1322.418,842.48,1321.658,842.48z"/>
			<path fill="#E6E6E6" d="M1335.936,842.48h-9.051c-0.76,0-1.375-0.615-1.375-1.375v-6.719c0-0.76,0.615-1.375,1.375-1.375h9.051
				c0.76,0,1.375,0.615,1.375,1.375v6.719C1337.311,841.865,1336.695,842.48,1335.936,842.48z"/>
			<path fill="#E6E6E6" d="M1075.155,856.758h-9.05c-0.759,0-1.375-0.615-1.375-1.375v-6.72c0-0.759,0.616-1.375,1.375-1.375h9.05
				c0.76,0,1.375,0.616,1.375,1.375v6.72C1076.53,856.143,1075.915,856.758,1075.155,856.758z"/>
			<g>
				<path fill="#E6E6E6" d="M1089.579,856.758h-9.051c-0.759,0-1.375-0.615-1.375-1.375v-6.72c0-0.759,0.616-1.375,1.375-1.375
					h9.051c0.759,0,1.375,0.616,1.375,1.375v6.72C1090.954,856.143,1090.338,856.758,1089.579,856.758z"/>
				<path fill="#E6E6E6" d="M1103.856,856.758h-9.051c-0.759,0-1.375-0.615-1.375-1.375v-6.72c0-0.759,0.616-1.375,1.375-1.375
					h9.051c0.759,0,1.375,0.616,1.375,1.375v6.72C1105.231,856.143,1104.615,856.758,1103.856,856.758z"/>
			</g>
			<g>
				<path fill="#E6E6E6" d="M1118.716,856.758h-9.051c-0.759,0-1.375-0.615-1.375-1.375v-6.72c0-0.759,0.616-1.375,1.375-1.375
					h9.051c0.76,0,1.375,0.616,1.375,1.375v6.72C1120.091,856.143,1119.476,856.758,1118.716,856.758z"/>
				<path fill="#E6E6E6" d="M1132.993,856.758h-9.051c-0.759,0-1.375-0.615-1.375-1.375v-6.72c0-0.759,0.616-1.375,1.375-1.375
					h9.051c0.76,0,1.375,0.616,1.375,1.375v6.72C1134.368,856.143,1133.753,856.758,1132.993,856.758z"/>
			</g>
			<path fill="#E6E6E6" d="M1147.78,856.758h-9.051c-0.759,0-1.375-0.615-1.375-1.375v-6.72c0-0.759,0.616-1.375,1.375-1.375h9.051
				c0.76,0,1.375,0.616,1.375,1.375v6.72C1149.155,856.143,1148.54,856.758,1147.78,856.758z"/>
			<path fill="#E6E6E6" d="M1234.392,856.758h-81.385c-0.759,0-1.375-0.616-1.375-1.375v-6.72c0-0.759,0.616-1.375,1.375-1.375
				h81.385c0.759,0,1.375,0.616,1.375,1.375v6.72C1235.767,856.142,1235.15,856.758,1234.392,856.758z"/>
			<path fill="#E6E6E6" d="M1176.554,856.758h-9.051c-0.759,0-1.375-0.615-1.375-1.375v-6.72c0-0.759,0.616-1.375,1.375-1.375h9.051
				c0.76,0,1.375,0.616,1.375,1.375v6.72C1177.929,856.143,1177.313,856.758,1176.554,856.758z"/>
			<path fill="#E6E6E6" d="M1190.831,856.758h-9.051c-0.759,0-1.375-0.615-1.375-1.375v-6.72c0-0.759,0.616-1.375,1.375-1.375h9.051
				c0.76,0,1.375,0.616,1.375,1.375v6.72C1192.206,856.143,1191.591,856.758,1190.831,856.758z"/>
			<g>
				<path fill="#E6E6E6" d="M1205.254,856.758h-9.051c-0.759,0-1.375-0.615-1.375-1.375v-6.72c0-0.759,0.616-1.375,1.375-1.375
					h9.051c0.76,0,1.375,0.616,1.375,1.375v6.72C1206.629,856.143,1206.014,856.758,1205.254,856.758z"/>
				<path fill="#E6E6E6" d="M1219.531,856.758h-9.051c-0.759,0-1.375-0.615-1.375-1.375v-6.72c0-0.759,0.616-1.375,1.375-1.375
					h9.051c0.76,0,1.375,0.616,1.375,1.375v6.72C1220.906,856.143,1220.291,856.758,1219.531,856.758z"/>
			</g>
			<g>
				<path fill="#E6E6E6" d="M1234.392,856.758h-9.051c-0.759,0-1.375-0.615-1.375-1.375v-6.72c0-0.759,0.616-1.375,1.375-1.375
					h9.051c0.76,0,1.375,0.616,1.375,1.375v6.72C1235.767,856.143,1235.151,856.758,1234.392,856.758z"/>
				<path fill="#E6E6E6" d="M1248.669,856.758h-9.051c-0.759,0-1.375-0.615-1.375-1.375v-6.72c0-0.759,0.616-1.375,1.375-1.375
					h9.051c0.76,0,1.375,0.616,1.375,1.375v6.72C1250.044,856.143,1249.429,856.758,1248.669,856.758z"/>
			</g>
			<g>
				<path fill="#E6E6E6" d="M1263.456,856.758h-9.051c-0.759,0-1.375-0.615-1.375-1.375v-6.72c0-0.759,0.616-1.375,1.375-1.375
					h9.051c0.76,0,1.375,0.616,1.375,1.375v6.72C1264.831,856.143,1264.216,856.758,1263.456,856.758z"/>
				<path fill="#E6E6E6" d="M1277.733,856.758h-9.051c-0.759,0-1.375-0.615-1.375-1.375v-6.72c0-0.759,0.616-1.375,1.375-1.375
					h9.051c0.76,0,1.375,0.616,1.375,1.375v6.72C1279.108,856.143,1278.493,856.758,1277.733,856.758z"/>
			</g>
			<path fill="#E6E6E6" d="M1263.456,856.758h-9.051c-0.759,0-1.375-0.615-1.375-1.375v-6.72c0-0.759,0.616-1.375,1.375-1.375h9.051
				c0.76,0,1.375,0.616,1.375,1.375v6.72C1264.831,856.143,1264.216,856.758,1263.456,856.758z"/>
			<path fill="#E6E6E6" d="M1277.733,856.758h-9.051c-0.759,0-1.375-0.615-1.375-1.375v-6.72c0-0.759,0.616-1.375,1.375-1.375h9.051
				c0.76,0,1.375,0.616,1.375,1.375v6.72C1279.108,856.143,1278.493,856.758,1277.733,856.758z"/>
			<path fill="#E6E6E6" d="M1292.521,856.758h-9.051c-0.759,0-1.375-0.615-1.375-1.375v-6.72c0-0.759,0.616-1.375,1.375-1.375h9.051
				c0.76,0,1.375,0.616,1.375,1.375v6.72C1293.896,856.143,1293.28,856.758,1292.521,856.758z"/>
			<path fill="#E6E6E6" d="M1306.798,856.758h-9.051c-0.759,0-1.375-0.615-1.375-1.375v-6.72c0-0.759,0.616-1.375,1.375-1.375h9.051
				c0.76,0,1.375,0.616,1.375,1.375v6.72C1308.173,856.143,1307.558,856.758,1306.798,856.758z"/>
			<path fill="#E6E6E6" d="M1321.658,856.758h-9.051c-0.76,0-1.375-0.615-1.375-1.375v-6.72c0-0.759,0.615-1.375,1.375-1.375h9.051
				c0.76,0,1.375,0.616,1.375,1.375v6.72C1323.033,856.143,1322.418,856.758,1321.658,856.758z"/>
			<path fill="#E6E6E6" d="M1335.936,856.758h-9.051c-0.76,0-1.375-0.615-1.375-1.375v-6.72c0-0.759,0.615-1.375,1.375-1.375h9.051
				c0.76,0,1.375,0.616,1.375,1.375v6.72C1337.311,856.143,1336.695,856.758,1335.936,856.758z"/>
		</g>
		<g>
			<polygon fill="#284556" points="1360.838,640.412 1037.064,640.412 1049.754,758.962 1349.838,758.962 			"/>
			<polygon fill="#E6E6E6" points="1344.238,751.124 1055.353,751.124 1042.663,648.25 1355.239,648.25 			"/>
			<polygon fill="#B79D7C" points="1220.906,729.569 1093.43,729.569 1080.741,670.924 1231.907,670.924 			"/>
			<polygon fill="#19354D" points="1244.144,700.177 1192.206,700.177 1179.517,665.885 1255.145,665.885 			"/>
		</g>
		<path fill="#213744" d="M1358.229,634.673h-318.558c-1.44,0-2.608,1.167-2.608,2.608v3.131h323.774v-3.131
			C1360.838,635.841,1359.67,634.673,1358.229,634.673z"/>
	</g>
	<g>
		
			<rect x="611.551" y="906.431" transform="matrix(0.7715 0.6362 -0.6362 0.7715 782.8477 -198.9136)" fill="#E8E8E8" width="113.622" height="168.067"/>
		
			<rect x="684.886" y="937.75" transform="matrix(0.7715 0.6362 -0.6362 0.7715 759.9404 -237.4252)" fill="#032139" width="51.288" height="3.156"/>
		
			<rect x="613.275" y="1048.982" transform="matrix(0.7715 0.6362 -0.6362 0.7715 814.3539 -166.4515)" fill="#032139" width="51.288" height="3.157"/>
		
			<rect x="660.666" y="948.302" transform="matrix(0.7715 0.6362 -0.6362 0.7715 764.6725 -229.478)" fill="#032139" width="82.324" height="3.156"/>
		
			<rect x="656.566" y="953.274" transform="matrix(0.7715 0.6362 -0.6362 0.7715 766.8989 -225.7339)" fill="#032139" width="82.324" height="3.156"/>
		
			<rect x="652.467" y="958.245" transform="matrix(0.7715 0.6362 -0.6362 0.7715 769.1296 -221.9893)" fill="#032139" width="82.324" height="3.156"/>
		
			<rect x="648.367" y="963.217" transform="matrix(0.7715 0.6362 -0.6362 0.7715 771.3558 -218.2452)" fill="#032139" width="82.324" height="3.156"/>
		
			<rect x="644.268" y="968.188" transform="matrix(0.7715 0.6362 -0.6362 0.7715 773.5821 -214.5011)" fill="#032139" width="82.324" height="3.156"/>
		
			<rect x="640.168" y="973.16" transform="matrix(0.7715 0.6362 -0.6362 0.7715 775.8192 -210.7561)" fill="#032139" width="82.324" height="3.156"/>
		
			<rect x="636.068" y="978.132" transform="matrix(0.7715 0.6362 -0.6362 0.7715 778.0345 -207.0129)" fill="#032139" width="82.324" height="3.156"/>
		
			<rect x="631.969" y="983.103" transform="matrix(0.7715 0.6362 -0.6362 0.7715 780.2608 -203.2688)" fill="#032139" width="82.324" height="3.156"/>
		
			<rect x="627.869" y="988.075" transform="matrix(0.7715 0.6362 -0.6362 0.7715 782.4827 -199.525)" fill="#032139" width="82.324" height="3.156"/>
		
			<rect x="626.894" y="984.345" transform="matrix(0.7715 0.6362 -0.6362 0.7715 776.7605 -191.056)" fill="#032139" width="54.971" height="3.156"/>
		<g>
			
				<rect x="619.67" y="998.018" transform="matrix(0.7715 0.6362 -0.6362 0.7715 786.9353 -192.0367)" fill="#032139" width="82.324" height="3.156"/>
			
				<rect x="615.57" y="1002.989" transform="matrix(0.7715 0.6362 -0.6362 0.7715 789.1613 -188.2927)" fill="#032139" width="82.324" height="3.157"/>
			
				<rect x="611.471" y="1007.961" transform="matrix(0.7715 0.6362 -0.6362 0.7715 791.3876 -184.5486)" fill="#032139" width="82.324" height="3.157"/>
			
				<rect x="607.371" y="1012.932" transform="matrix(0.7715 0.6362 -0.6362 0.7715 793.614 -180.8044)" fill="#032139" width="82.324" height="3.157"/>
			
				<rect x="603.271" y="1017.904" transform="matrix(0.7715 0.6362 -0.6362 0.7715 795.8403 -177.0604)" fill="#032139" width="82.324" height="3.157"/>
			
				<rect x="599.172" y="1022.876" transform="matrix(0.7715 0.6362 -0.6362 0.7715 798.0667 -173.3163)" fill="#032139" width="82.324" height="3.157"/>
			
				<rect x="598.197" y="1019.146" transform="matrix(0.7715 0.6362 -0.6362 0.7715 792.3508 -164.8463)" fill="#032139" width="54.97" height="3.156"/>
		</g>
	</g>
	<polygon fill="#D3977B" points="1382.749,1172.178 1377.02,1165.368 1363.803,1167.109 1361.147,1173.229 	"/>
	<path fill="#E5B88E" d="M1368.482,1215.662l-3.811-41.021c-0.1-1.069,0.089-2.145,0.545-3.116l0.201-0.427
		c0.906-1.931,2.768-3.237,4.892-3.435l0.135-0.013c3.387-0.314,6.522,1.812,7.483,5.073l10.041,34.058
		c0.046,0.157,0.069,0.32,0.068,0.483l-0.017,4.528c-0.003,0.784-0.546,1.463-1.31,1.639l-16.17,3.72
		C1369.545,1217.38,1368.576,1216.68,1368.482,1215.662z"/>
	<path fill="#F4E9DC" d="M1370.009,1169.563l2.147-0.247c1.138-0.131,2.215,0.542,2.596,1.621l2.922,8.27l-9.983,1.13l-0.496-7.15
		c-0.036-0.524,0.097-1.046,0.378-1.488l0.646-1.014C1368.615,1170.059,1369.273,1169.646,1370.009,1169.563z"/>
	<path fill="#A20D11" d="M468.136,1309.495c-23.76-98.477-55.829-187.136-112.664-246.53l-155.078,28.938l148.897,325.816
		L468.136,1309.495z"/>
	<path fill="#C0272C" d="M287.901,1446.642l-152.177-332.993c-13.222-28.934-0.486-63.108,28.448-76.33v-0.001
		c28.934-13.222,63.108-0.485,76.331,28.448c73.611,100.153,124.205,211.214,152.176,332.993
		c13.223,28.934,0.486,63.107-28.447,76.33l0,0C335.298,1488.312,301.124,1475.575,287.901,1446.642z"/>
	<path fill="#E5B88E" d="M584.588,997.978c1.38-2.367,0.3-5.406-2.264-6.372l-6.387-2.404l-15.814-7.107l19.18,0.355l8.193,0.396
		c1.886,0.092,3.664-0.884,4.601-2.523l2.375-4.155c1.351-2.364,0.57-5.374-1.759-6.784l-4.292-2.598l-2.99-4.65
		c-0.642-0.998-1.577-1.771-2.677-2.216l-6.731-2.715l-14.986-16.25c-2.067-2.241-5.248-3.078-8.15-2.145l-38.093,12.251
		l-60.426-10.394l-5.552,32.275l60.355,10.382l19.438,8.511c0.656,0.287,1.337,0.515,2.035,0.679l33.729,7.969
		c0.761,0.18,1.543,0.259,2.325,0.235l13.995-0.423C582.303,1000.246,583.776,999.37,584.588,997.978z"/>
	<g>
		<g>
			<path fill="#C0272C" d="M134.085,1110.061c-1.503-5.919-27.801-88.981,19.042-129.988
				c41.874-36.656,87.248-37.206,163.517-40.816c142.739-6.757,168.375,1.523,174.466,1.691c0,0,0.142,44.611,0.619,44.611
				c-1.372,0.001-18.288-2.793-147.942,11.805c-41.969,4.726-101.532,10.808-115.208,30.818
				c-13.494,19.745,12.061,37.399,12.252,38.302c-0.11-0.518-21.396,2.958-21.396,2.958L134.085,1110.061z"/>
		</g>
	</g>
	<g>
		<path fill="#C0272C" d="M290.899,1453.201c3.491,5.01,49.082,79.256,110.745,70.676c55.12-7.67,96.744-26.691,152.93-78.395
			c104.383-96.054,115.278-110.457,119.139-115.173c0,0-38.118-29.21-37.805-29.571c-0.899,1.037-23.459,24.602-134.868,97.471
			c-35.345,23.117-62.309,39.89-86.391,37.134c-23.76-2.72-20.384-33.596-20.94-34.331c0.32,0.422-16.239,14.24-16.239,14.24
			L290.899,1453.201z"/>
	</g>
	<path fill="#D3977B" d="M718.179,1261.047l-4.075-4.772c-0.187-0.218-0.403-0.41-0.644-0.568l-11.861-7.831
		c-0.134-0.088-0.275-0.166-0.421-0.232l-7.983-3.631c-1.199-0.546-1.92-1.796-1.793-3.106c0.218-2.249,1.65-4.275,3.83-5.178
		c0.272-0.112,0.566-0.17,0.859-0.197l22.036-2.027c0.905-0.083,1.801,0.238,2.446,0.879l13.431,13.33
		c1.298,1.288,1.19,3.418-0.232,4.568l-11.325,9.16C721.152,1262.487,719.26,1262.313,718.179,1261.047z"/>
	<path fill="#663C14" d="M278.337,1486.461L96.735,1089.078c-1.836-4.019-0.067-8.766,3.951-10.602l8.413-3.845
		c4.019-1.837,8.765-0.067,10.602,3.951l181.602,397.383c1.836,4.019,0.068,8.766-3.951,10.602l-8.413,3.845
		C284.92,1492.248,280.174,1490.479,278.337,1486.461z"/>
	<path fill="#E5B88E" d="M647.525,1298.837l32.424-46.605c0.2-0.287,0.46-0.525,0.763-0.699l37.804-21.709
		c0.365-0.21,0.78-0.318,1.201-0.313l3.559,0.037c0.837,0.009,1.607,0.46,2.023,1.186l3.057,5.322
		c0.562,0.979,0.353,2.22-0.499,2.96l-28.333,24.618c-0.914,0.793-1.08,2.149-0.384,3.14l0,0c1.382,1.97,3.924,2.75,6.174,1.897
		l8.843-3.355c0.432-0.164,0.807-0.451,1.078-0.826l11.932-16.54c0.521-0.723,0.592-1.677,0.183-2.468l-10.296-19.906
		c-0.485-0.937-0.29-2.082,0.479-2.805l1.48-1.393c0.921-0.867,2.362-0.854,3.268,0.029l13.584,13.252
		c0.198,0.192,0.36,0.418,0.479,0.667l7.649,15.922c0.306,0.637,0.311,1.378,0.013,2.019l-15.46,33.252
		c-0.219,0.472-0.588,0.858-1.05,1.099l-60.51,31.539l-3.628,3.195l-22.708-17.657L647.525,1298.837z"/>
	<g>
		<path fill="#A54C7C" d="M749.157,1292.677L749.157,1292.677c-2.044,1.174-4.794,0.22-6.145-2.131l-41.411-72.112l-2.148-10.275
			c-0.232-1.108,0.917-1.768,1.757-1.009l7.792,7.034l41.411,72.113C751.763,1288.646,751.201,1291.504,749.157,1292.677z"/>
		<path fill="#D8B29F" d="M699.42,1208.1l1.73,9.549l0.185,0.322c1.427-0.133,2.849-0.543,4.172-1.304
			c1.324-0.76,2.395-1.781,3.228-2.946l-0.185-0.322l-7.374-6.308C700.382,1206.41,699.233,1207.069,699.42,1208.1z"/>
		<path fill="#353535" d="M701.081,1208.958c0.451-0.259,0.844-0.575,1.24-0.889l-1.144-0.979c-0.795-0.681-1.944-0.021-1.757,1.009
			l0.269,1.481C700.159,1209.397,700.63,1209.217,701.081,1208.958z"/>
	</g>
	<polygon fill="#D3977B" points="727.466,1245.708 731.278,1237.666 724.2,1226.369 717.53,1226.498 	"/>
	<path fill="#E5B88E" d="M681.985,1250.807l35.727-20.517c0.931-0.534,1.987-0.811,3.061-0.799l0.471,0.005
		c2.133,0.021,4.095,1.172,5.157,3.021l0.068,0.117c1.693,2.949,1.063,6.685-1.504,8.916l-26.802,23.287
		c-0.124,0.107-0.262,0.196-0.411,0.264l-4.126,1.867c-0.714,0.322-1.557,0.111-2.034-0.51l-10.104-13.162
		C680.865,1252.487,681.1,1251.314,681.985,1250.807z"/>
	<path fill="#F4E9DC" d="M724.549,1233.033l1.117,1.851c0.592,0.98,0.428,2.239-0.396,3.035l-6.307,6.094l-5.177-8.61l6.297-3.423
		c0.461-0.251,0.991-0.347,1.511-0.274l1.19,0.165C723.519,1231.973,724.167,1232.399,724.549,1233.033z"/>
	<rect x="1001.618" y="968.625" fill="#D4D5D6" width="109.291" height="183.719"/>
	<g>
		
			<rect x="1034.5" y="989.008" transform="matrix(0.9815 0.1916 -0.1916 0.9815 225.8401 -189.2335)" fill="#E8E8E8" width="113.623" height="168.068"/>
		
			<rect x="1078.368" y="1006.412" transform="matrix(0.9815 0.1916 -0.1916 0.9815 213.6175 -192.8779)" fill="#032139" width="51.288" height="3.156"/>
		
			<rect x="1068.424" y="1138.327" transform="matrix(0.9815 0.1916 -0.1916 0.9815 238.7116 -188.5277)" fill="#032139" width="51.288" height="3.156"/>
		
			<rect x="1060.229" y="1019.835" transform="matrix(0.9815 0.1916 -0.1916 0.9815 216.1386 -192.1251)" fill="#032139" width="82.324" height="3.156"/>
		
			<rect x="1058.995" y="1026.159" transform="matrix(0.9815 0.1916 -0.1916 0.9815 217.3161 -191.7631)" fill="#032139" width="82.323" height="3.157"/>
		
			<rect x="1057.76" y="1032.484" transform="matrix(0.9815 0.1916 -0.1916 0.9815 218.5181 -191.4186)" fill="#032139" width="82.324" height="3.156"/>
		
			<rect x="1056.525" y="1038.809" transform="matrix(0.9815 0.1916 -0.1916 0.9815 219.7086 -191.0657)" fill="#032139" width="82.323" height="3.156"/>
		
			<rect x="1055.29" y="1045.133" transform="matrix(0.9815 0.1916 -0.1916 0.9815 220.8961 -190.7109)" fill="#032139" width="82.324" height="3.156"/>
		
			<rect x="1054.055" y="1051.458" transform="matrix(0.9815 0.1916 -0.1916 0.9815 222.0707 -190.3468)" fill="#032139" width="82.324" height="3.156"/>
		
			<rect x="1052.821" y="1057.782" transform="matrix(0.9815 0.1916 -0.1916 0.9815 223.2758 -190.0042)" fill="#032139" width="82.323" height="3.156"/>
		
			<rect x="1051.586" y="1064.106" transform="matrix(0.9815 0.1916 -0.1916 0.9815 224.4619 -189.6484)" fill="#032139" width="82.324" height="3.156"/>
		
			<rect x="1050.351" y="1070.431" transform="matrix(0.9815 0.1916 -0.1916 0.9815 225.6537 -189.2965)" fill="#032139" width="82.323" height="3.156"/>
		
			<rect x="1049.37" y="1074.135" transform="matrix(0.9815 0.1916 -0.1916 0.9815 226.0784 -186.41)" fill="#032139" width="54.97" height="3.156"/>
		<g>
			
				<rect x="1047.881" y="1083.08" transform="matrix(0.9815 0.1916 -0.1916 0.9815 228.0305 -188.5879)" fill="#032139" width="82.324" height="3.156"/>
			
				<rect x="1046.647" y="1089.404" transform="matrix(0.9815 0.1916 -0.1916 0.9815 229.2195 -188.2341)" fill="#032139" width="82.324" height="3.156"/>
			
				<rect x="1045.412" y="1095.729" transform="matrix(0.9815 0.1916 -0.1916 0.9815 230.4085 -187.8804)" fill="#032139" width="82.324" height="3.156"/>
			
				<rect x="1044.177" y="1102.053" transform="matrix(0.9815 0.1916 -0.1916 0.9815 231.5826 -187.5165)" fill="#032139" width="82.324" height="3.156"/>
			
				<rect x="1042.942" y="1108.378" transform="matrix(0.9815 0.1916 -0.1916 0.9815 232.7853 -187.1716)" fill="#032139" width="82.324" height="3.156"/>
			
				<rect x="1041.707" y="1114.702" transform="matrix(0.9815 0.1916 -0.1916 0.9815 233.9772 -186.8197)" fill="#032139" width="82.323" height="3.156"/>
			
				<rect x="1040.726" y="1118.406" transform="matrix(0.9815 0.1916 -0.1916 0.9815 234.4241 -183.9479)" fill="#032139" width="54.97" height="3.156"/>
		</g>
	</g>
	<g>
		<path fill="#946936" d="M195.052,1296.412l-2.975-9.469c-19.924-43.599-4.974-119.477,58.527-135.527l27.52-7.324
			c47.565-21.737,114.381-0.094,134.306,43.505l0,0c19.924,43.599-5.188,102.956-52.753,124.693l-35.373,19.728
			C276.738,1353.755,237.585,1366.374,195.052,1296.412z"/>
		<path fill="#E5B88E" d="M412.429,1187.597L412.429,1187.597c-10.468-22.905-29.655-39.061-51.828-46.359
			c-0.091,0.077-10.432,8.902-14.189,15.802c-3.773,6.93,23.698,29.076,31.569,46.3c7.872,17.225,9.631,47.651,9.631,47.651
			s-2.07,11.826,24.235,9.978C422.476,1238.605,423.526,1211.879,412.429,1187.597z"/>
		<path fill="#E5B88E" d="M394.286,1176.082l26.295,2.331c4.018,0.355,6.076,4.993,3.644,8.212l-13.895,18.389L394.286,1176.082z"/>
	</g>
</g>
</svg>
